<svg id="line" height="512" viewBox="0 0 64 64" width="512" xmlns="http://www.w3.org/2000/svg"><path d="m21 62h22a4 4 0 0 0 4-4v-44a4 4 0 0 0 -4-4h-3v-7a1 1 0 0 0 -1-1h-14a1 1 0 0 0 -1 1v7h-3a4 4 0 0 0 -4 4v44a4 4 0 0 0 4 4zm5-58h12v6h-12zm-7 10a2 2 0 0 1 2-2h22a2 2 0 0 1 2 2v44a2 2 0 0 1 -2 2h-22a2 2 0 0 1 -2-2z"/><path d="m21 55h2v2h-2z"/><path d="m25 55h2v2h-2z"/><path d="m29 55h2v2h-2z"/><path d="m33 55h2v2h-2z"/><path d="m37 55h2v2h-2z"/><path d="m41 55h2v2h-2z"/><path d="m23 53h2v2h-2z"/><path d="m27 53h2v2h-2z"/><path d="m31 53h2v2h-2z"/><path d="m35 53h2v2h-2z"/><path d="m39 53h2v2h-2z"/><path d="m21 51h2v2h-2z"/><path d="m25 51h2v2h-2z"/><path d="m29 51h2v2h-2z"/><path d="m33 51h2v2h-2z"/><path d="m37 51h2v2h-2z"/><path d="m41 51h2v2h-2z"/><path d="m23 49h2v2h-2z"/><path d="m27 49h2v2h-2z"/><path d="m31 49h2v2h-2z"/><path d="m35 49h2v2h-2z"/><path d="m39 49h2v2h-2z"/><path d="m21 47h2v2h-2z"/><path d="m29 47h2v2h-2z"/><path d="m33 47h2v2h-2z"/><path d="m37 47h2v2h-2z"/><path d="m41 47h2v2h-2z"/><path d="m23 45h2v2h-2z"/><path d="m31 45h2v2h-2z"/><path d="m35 45h2v2h-2z"/><path d="m39 45h2v2h-2z"/><path d="m21 43h2v2h-2z"/><path d="m26.265 45-1.175 2.586a1 1 0 0 0 1.617 1.121l12-12a1 1 0 0 0 0-1.414l-3.6-3.6 1.863-7.45a1 1 0 0 0 -1.677-.95l-9 9a1 1 0 0 0 0 1.414l3.51 3.51-2.803 6.167v-.384h-2v2zm5.645-7.586a1 1 0 0 0 -.2-1.121l-3.296-3.293 5.74-5.74-1.124 4.5a1 1 0 0 0 .263.95l3.293 3.29-7.394 7.394z"/><path d="m33 43h2v2h-2z"/><path d="m37 43h2v2h-2z"/><path d="m41 43h2v2h-2z"/><path d="m23 41h2v2h-2z"/><path d="m35 41h2v2h-2z"/><path d="m39 41h2v2h-2z"/></svg>