<?xml version="1.0"?>
<svg xmlns="http://www.w3.org/2000/svg" id="line" viewBox="0 0 64 64" width="512" height="512"><path d="M36,23a9,9,0,1,0,9,9A9.01,9.01,0,0,0,36,23Zm0,16a7,7,0,1,1,7-7A7.009,7.009,0,0,1,36,39Z"/><path d="M36,29a3,3,0,1,0,3,3A3,3,0,0,0,36,29Zm0,4a1,1,0,1,1,1-1A1,1,0,0,1,36,33Z"/><path d="M61,6H5A1,1,0,0,0,4,7V57a1,1,0,0,0,1,1H61a1,1,0,0,0,1-1V7A1,1,0,0,0,61,6ZM43.293,17.293l1.414,1.414,2.949-2.949A19.989,19.989,0,1,1,36,12c.189,0,.378.013.567.019l-1.274,1.274,1.414,1.414L43.414,8h3.172l-9.293,9.293,1.414,1.414L49.414,8h3.172ZM6,8h4V56H6ZM60,56H12V8H40.586l-2.145,2.145A22.332,22.332,0,0,0,36,10a22.019,22.019,0,1,0,13.088,4.326L55.414,8H60Z"/><rect x="33.586" y="20" width="2.828" height="2" transform="translate(-4.598 30.899) rotate(-45)"/><rect x="39.586" y="20" width="2.828" height="2" transform="translate(-2.841 35.142) rotate(-45)"/></svg>
