<svg xmlns="http://www.w3.org/2000/svg" xmlns:xlink="http://www.w3.org/1999/xlink" viewBox="0 0 785 1085"><defs><style>.cls-1{fill:url(#Degradado_sin_nombre_55);}.cls-2{fill:url(#Degradado_sin_nombre_55-2);}.cls-14,.cls-15,.cls-3,.cls-4,.cls-5,.cls-6,.cls-8{stroke:#484866;}.cls-14,.cls-15,.cls-3,.cls-4,.cls-8{stroke-miterlimit:10;}.cls-14,.cls-15,.cls-3,.cls-4,.cls-6,.cls-8{stroke-width:2px;}.cls-3{fill:url(#Degradado_sin_nombre_64);}.cls-4{fill:url(#Degradado_sin_nombre_63);}.cls-5,.cls-8{fill:#a6a6ed;}.cls-5,.cls-6{stroke-linejoin:round;}.cls-6{fill:none;}.cls-7{fill:#4b4b70;opacity:0.69;}.cls-9{fill:url(#Degradado_sin_nombre_55-3);}.cls-10{fill:url(#Degradado_sin_nombre_55-4);}.cls-11{fill:url(#Degradado_sin_nombre_55-5);}.cls-12{fill:url(#Degradado_sin_nombre_55-6);}.cls-13{fill:url(#Degradado_sin_nombre_60);}.cls-14{fill:url(#Degradado_sin_nombre_63-2);}.cls-15{fill:url(#Degradado_sin_nombre_63-3);}</style><linearGradient id="Degradado_sin_nombre_55" x1="21.93" y1="516.28" x2="720" y2="516.28" gradientUnits="userSpaceOnUse"><stop offset="0" stop-color="#c867f0"/><stop offset="0.47" stop-color="#774894"/><stop offset="0.83" stop-color="#3d3252"/><stop offset="1" stop-color="#272a39"/></linearGradient><linearGradient id="Degradado_sin_nombre_55-2" x1="42.29" y1="879" x2="693.79" y2="879" xlink:href="#Degradado_sin_nombre_55"/><linearGradient id="Degradado_sin_nombre_64" x1="264.39" y1="628.25" x2="219.21" y2="891.78" gradientUnits="userSpaceOnUse"><stop offset="0" stop-color="#c5c5ff"/><stop offset="0.01" stop-color="#c2c2fb"/><stop offset="0.37" stop-color="#6f7194"/><stop offset="0.62" stop-color="#3b3e52"/><stop offset="0.74" stop-color="#272a39"/></linearGradient><linearGradient id="Degradado_sin_nombre_63" x1="446.6" y1="620.08" x2="447.32" y2="875.08" gradientUnits="userSpaceOnUse"><stop offset="0.17" stop-color="#c5c5ff"/><stop offset="0.18" stop-color="#c2c2fb"/><stop offset="0.59" stop-color="#6f7194"/><stop offset="0.87" stop-color="#3b3e52"/><stop offset="1" stop-color="#272a39"/></linearGradient><linearGradient id="Degradado_sin_nombre_55-3" x1="-2317.89" y1="-1802.33" x2="-2268.99" y2="-1802.33" gradientTransform="matrix(-1.24, -0.04, 0.03, -1, -2185.84, -1392.29)" xlink:href="#Degradado_sin_nombre_55"/><linearGradient id="Degradado_sin_nombre_55-4" x1="592.77" y1="438.91" x2="608.37" y2="438.91" xlink:href="#Degradado_sin_nombre_55"/><linearGradient id="Degradado_sin_nombre_55-5" x1="260" y1="448.79" x2="295.11" y2="448.79" xlink:href="#Degradado_sin_nombre_55"/><linearGradient id="Degradado_sin_nombre_55-6" x1="101.81" y1="-1672.16" x2="152.81" y2="-1672.16" gradientTransform="translate(-1510.5 1170.35) rotate(71.34)" xlink:href="#Degradado_sin_nombre_55"/><linearGradient id="Degradado_sin_nombre_60" x1="390" y1="305.78" x2="430" y2="305.78" gradientUnits="userSpaceOnUse"><stop offset="0" stop-color="#c5c5ff"/><stop offset="0.02" stop-color="#c2c2fb"/><stop offset="0.5" stop-color="#6f7194"/><stop offset="0.84" stop-color="#3b3e52"/><stop offset="1" stop-color="#272a39"/></linearGradient><linearGradient id="Degradado_sin_nombre_63-2" x1="444.47" y1="850.97" x2="444.54" y2="875.46" xlink:href="#Degradado_sin_nombre_63"/><linearGradient id="Degradado_sin_nombre_63-3" x1="446.46" y1="851" x2="446.53" y2="875.42" xlink:href="#Degradado_sin_nombre_63"/></defs><title>Mesa de trabajo 5</title><g id="Capa_2" data-name="Capa 2"><path class="cls-1" d="M405.33,569.35c-40.35-.52-33.76,181.16-112.85,210.43-98.54,36.48-303.57-173.49-266-249.4,34.17-69.05,253.18,4.93,310.79-93.52,32.58-55.67-18.78-111.2,19.71-154.15,44.39-49.53,175.23-45.44,220.33,13.86,56.27,74-61.68,180.35-4.48,290.1C617.38,672.16,726.35,679.4,719.71,707c-7.42,30.87-151,53.84-231.08-11.26C428.14,646.61,431.6,569.69,405.33,569.35Z"/><ellipse class="cls-2" cx="368.04" cy="879" rx="325.75" ry="93"/><polygon class="cls-3" points="320 933 166.5 845.5 166 573 320.5 617.5 320 933"/><polygon class="cls-4" points="574.5 871.5 319.5 933.5 320.5 617.5 574.5 588.5 574.5 871.5"/><polygon class="cls-5" points="320.5 617.5 166.5 572.5 402.5 552.5 574.5 588.5 320.5 617.5"/><polyline class="cls-6" points="489.5 570.5 243.25 595.25 243.25 889.25"/><polygon class="cls-7" points="243 633 263 639 262 601 318 594 285 583 225 589 226 627 243 633"/><polygon class="cls-8" points="385.87 598.8 309.1 575.96 307.49 500.52 384.54 511.45 385.87 598.8"/><polygon class="cls-8" points="512.13 579.49 385.63 598.95 384.54 511.45 510.71 501.14 512.13 579.49"/><polygon class="cls-5" points="384.54 511.45 307.74 500.38 425 492.72 510.71 501.14 384.54 511.45"/><polyline class="cls-6" points="468.35 496.92 346.02 505.99 347.49 587.38"/><polygon class="cls-7" points="346.08 516.44 356.06 517.92 355.37 507.41 383.18 504.97 366.72 502.22 336.91 504.42 337.6 514.93 346.08 516.44"/><polygon class="cls-8" points="406.99 946.32 352.4 915.2 352.22 818.29 407.17 834.12 406.99 946.32"/><polygon class="cls-8" points="497.5 924.45 406.81 946.5 407.17 834.12 497.5 823.8 497.5 924.45"/><polygon class="cls-5" points="407.17 834.12 352.4 818.11 436.33 811 497.5 823.8 407.17 834.12"/><polyline class="cls-6" points="467.27 817.4 379.69 826.2 379.69 930.76"/><polygon class="cls-7" points="379.6 839.63 386.72 841.76 386.36 828.25 406.28 825.76 394.54 821.85 373.2 823.98 373.56 837.5 379.6 839.63"/><path class="cls-9" d="M580,513.28c-11-26.81,30-60.68,46.51-56.6,13.23,3.26,13.52,31.51,12.35,43.39-1.09,11.11-3.21,32.58-18.53,36.46C606.12,540.12,585.76,527.33,580,513.28Z"/><path class="cls-10" d="M595.48,446.87c3.49,2.73,10.15,1.7,12.17-1.62,3.25-5.34-5.4-16.75-9.74-15.82C593.88,430.3,590,442.59,595.48,446.87Z"/><path class="cls-11" d="M264.65,438.4c1.82-3.39,5.52-10.27,11.64-11,8.93-1.06,19.81,11.38,18.75,22.63-1.36,14.5-22.28,24-30.39,18.75C257.67,464.3,259.29,448.37,264.65,438.4Z"/><path class="cls-12" d="M93.88,757.61c12.93,19.48,43,24.1,46.35,13.91,2.87-8.66-12-32.6-28.37-37.09-9.29-2.55-21.47.51-22.69,9.22C88.37,749.32,92.48,755.51,93.88,757.61Z"/><path class="cls-13" d="M395.29,293.94c2.08-3.86,6.3-11.7,13.26-12.52,10.18-1.21,22.57,13,21.37,25.78-1.55,16.52-25.39,27.3-34.63,21.36C387.34,323.45,389.19,305.29,395.29,293.94Z"/><polygon class="cls-14" points="425 856 459 881 464 869 433 848 425 856"/><polygon class="cls-15" points="429 874 450 848 464 856 438 881 429 874"/></g></svg>