<svg xmlns="http://www.w3.org/2000/svg" xmlns:xlink="http://www.w3.org/1999/xlink" viewBox="0 0 785 1080"><defs><style>.cls-1{fill:url(#Degradado_sin_nombre_14);}.cls-2{fill:#503063;}.cls-3{fill:url(#Degradado_sin_nombre_23);}.cls-4{fill:#181a20;}.cls-13,.cls-5{fill:#c5c5ff;}.cls-5,.cls-6{stroke:#484866;}.cls-12,.cls-15,.cls-21,.cls-30,.cls-31,.cls-32,.cls-33,.cls-37,.cls-38,.cls-5,.cls-6,.cls-8,.cls-9{stroke-miterlimit:10;}.cls-25,.cls-30,.cls-31,.cls-5,.cls-6{stroke-width:2px;}.cls-17,.cls-6{fill:#a6a6ed;}.cls-7{fill:#272a39;}.cls-12,.cls-21,.cls-25,.cls-28,.cls-30,.cls-31,.cls-32,.cls-33,.cls-8,.cls-9{fill:none;}.cls-8,.cls-9{stroke:#c867f0;}.cls-8{stroke-width:8px;}.cls-9{stroke-width:6px;}.cls-10{fill:url(#Degradado_sin_nombre_33);}.cls-11{fill:#ffcafb;}.cls-12,.cls-15,.cls-37,.cls-38{stroke:#ffcafb;}.cls-14,.cls-38{fill:#793b9e;}.cls-15,.cls-16{fill:#d1d1d1;}.cls-18{fill:#a6a8d3;}.cls-19{fill:#8788ae;}.cls-20{fill:#3c2744;}.cls-21{stroke:#d1d1d1;stroke-linecap:round;stroke-width:0.5px;}.cls-22{fill:#7474b2;}.cls-23{fill:#df8ae2;}.cls-24{fill:#ff63d6;}.cls-25,.cls-28,.cls-30{stroke:#4a056b;}.cls-25,.cls-28{stroke-linejoin:bevel;}.cls-26{fill:#4a056b;}.cls-27{fill:#fff;}.cls-29{fill:#85579b;}.cls-31{stroke:#e1b8f4;}.cls-32{stroke:#ff63d6;stroke-width:7px;}.cls-33{stroke:#c98dbe;stroke-width:3px;}.cls-34{fill:url(#Degradado_sin_nombre_33-2);}.cls-35{fill:#ac52ba;}.cls-36{fill:url(#Degradado_sin_nombre_42);}.cls-37{fill:#211c27;}</style><linearGradient id="Degradado_sin_nombre_14" x1="35" y1="890" x2="686.5" y2="890" gradientUnits="userSpaceOnUse"><stop offset="0" stop-color="#272a39"/><stop offset="0.46" stop-color="#666892"/><stop offset="0.83" stop-color="#9494d4"/><stop offset="1" stop-color="#a6a6ed"/></linearGradient><linearGradient id="Degradado_sin_nombre_23" x1="59.24" y1="486.42" x2="624.31" y2="486.42" gradientUnits="userSpaceOnUse"><stop offset="0" stop-color="#272a39"/><stop offset="0.19" stop-color="#666885"/><stop offset="0.39" stop-color="#a6a6d1"/><stop offset="0.49" stop-color="#bfbfef"/><stop offset="0.73" stop-color="#737494"/><stop offset="0.91" stop-color="#3c3f52"/><stop offset="1" stop-color="#272a39"/></linearGradient><linearGradient id="Degradado_sin_nombre_33" x1="205.87" y1="352.41" x2="670.75" y2="352.41" gradientUnits="userSpaceOnUse"><stop offset="0" stop-color="#1e1f23"/><stop offset="0.5" stop-color="#794591"/><stop offset="0.84" stop-color="#b25ed5"/><stop offset="1" stop-color="#c867f0"/></linearGradient><linearGradient id="Degradado_sin_nombre_33-2" x1="609.38" y1="214.03" x2="624.68" y2="214.03" xlink:href="#Degradado_sin_nombre_33"/><linearGradient id="Degradado_sin_nombre_42" x1="278.49" y1="218.17" x2="288.21" y2="218.17" gradientUnits="userSpaceOnUse"><stop offset="0" stop-color="#1e1f23"/><stop offset="1" stop-color="#17191e"/></linearGradient></defs><title>Mesa de trabajo 3</title><g id="Capa_2" data-name="Capa 2"><ellipse class="cls-1" cx="360.75" cy="890" rx="325.75" ry="115.5"/><ellipse class="cls-2" cx="476.34" cy="941.5" rx="92.16" ry="19" transform="translate(-89.4 50.85) rotate(-5.59)"/><path class="cls-3" d="M159.93,521.17c10.22,19-27.87,41.67-22.43,74.79,5.37,32.68,51,62.45,88.91,58.17,37.73-4.25,44.21-39.48,74-39,34.8.5,42.2,48.92,87.26,84.76,54.16,43.07,151,58.66,200.27,15,42.62-37.82,42-113.31,27.43-161.22C593.51,482,534.42,452.35,548,414c9.1-25.66,38.54-20.88,51.53-49.86,16.43-36.66-7.08-97-47.37-120.49-72.27-42.11-183.34,43.25-192.79,50.69C292,347.31,298,391.53,248.85,405.66c-72.24,20.77-128.68-62.16-167-36.56-32.15,21.46-29.74,104.6,5.82,131.3C113.88,520.1,150.22,503.09,159.93,521.17Z"/><path class="cls-4" d="M144.39,229.94a6.61,6.61,0,0,0-3.39,1.81c-2.37,2.3-5.54,6.77.57,10.39,8.62,5.1,20.94-5.1,22.17-6.8s7.38-1.71,4.92-8.51-6.15-5.1-8.62-1.7C158.6,227.12,149.07,229.05,144.39,229.94Z"/><polygon class="cls-5" points="596.5 516.5 413.5 531.5 449.5 432.5 617.5 452.5 596.5 516.5"/><polygon class="cls-5" points="402.5 549.5 165.5 569.5 144.5 441.5 376.5 427.5 402.5 549.5"/><polygon class="cls-6" points="320 929 166.5 841.5 166 569 320.5 613.5 320 929"/><polygon class="cls-6" points="574.5 867.5 319.5 929.5 320.5 613.5 574.5 584.5 574.5 867.5"/><polygon class="cls-6" points="320.5 613.5 165.5 568.5 85.5 470.5 223.5 502.5 320.5 613.5"/><polygon class="cls-7" points="273.5 560.39 376.1 551.73 320.5 613.5 273.5 560.39"/><path class="cls-8" d="M166,772c-28,2-28.82-.71-52.5,1.5-22.53,2.1-42,11.88-34,28,30.8,62.28,512.09-148.91,579-82C677,738,624.2,826.52,613,845"/><path class="cls-9" d="M166,777c-29.63-13.58-57.14-11.34-68,3-.74,1-6.23,8.46-5,18,3.58,27.78,60,41,64,42,82.17,19.34,133.6-91.73,288-152,85-33.17,175.73-41,189-15,10.4,20.4-29.42,56.45-18,71,8.47,10.78,83.93-22,117-36"/><path class="cls-10" d="M620.33,263.56s-7.29-72.35-63.71-58.44c-1.6.39-3.2-.55-4.11-2.35-2.37-4.68-8.07-13.48-18.9-18h0s5.22-18-24.88-14.59-61.44-13.58-63.94-39c-2.46-24.93-80.57-46.67-111,11.43a19.59,19.59,0,0,1-5.89,7,52.61,52.61,0,0,1-11.5,6.14,41.83,41.83,0,0,1-9.68,2.43c-53.83-74.49-69.55-45-83.91-30.41-5,5.1-27.58-3.39-47.64,27.16-18,27.35-12.81,52-11.53,56.84a4.08,4.08,0,0,0,.75,1.55c2.42,3,12.93,13.52,19.55-19.35,7.53-37.34,17.56-23.76,22.57-25.46s-23.82,35.64-16.3,69.59c6.57,29.64,27.48,37.28,32.68,38.75a2.78,2.78,0,0,1,1.69,1.51c2.53,5.05,16.32,23.28,78.48,5.57,0,0,27.59-8.49,52.67,10.18s21.31-18.67-2.51-22.06,6.59-21.69,17.56-8.49c11.28,13.58,21.31,8.49,21.31,8.49s22.57-13.58,26.33-10.19c2.47,2.23,7.09,2.27,10,2,2.05-.17,3.32-3.28,2.22-5.64-1.24-2.66-4.58-5.51-12.85-6.42l1.34-.6c7.19-.55,20-3.79,20.63-2.95,1.65,2.25,5.88,5.6,9.77,7.64,6.47,3.42,13.83,3.34,13.85,3.4A95.34,95.34,0,0,0,480.71,261a25.12,25.12,0,0,1,22.52,13.58c7.86,15.15-2.55,41.4-8.66,50.92-5,7.73-17.81,16.92-32.91,25.46-23.55,13.33-52.77,22.09-67.54-1.69,0,0,6.92-6.79,0-15.28H375.06c-13.85-3.39-41.56-1.7-43.13,16.12-1.37,15.66,5.76,3.08,15.29,2.12,2.67,5.54-13.23,21.56-30.33,18.25-17.56-3.39-51.41-8.48-40.13,8.49,8.27,12.43,31.34,10.29,43.09,8.26,5.56-1,11,3.32,12.84,10.49a17.39,17.39,0,0,1,.5,6.71c-1.26,8.49-12.54,6.79-12.54-1.7s-16.3-5.09-23.82-1.7-5,18.68,2.5,15.28,20.07-3.39,21.32,1.7-8.78,3.39-12.54,8.48c-3.05,4.13-27.47,6-36.65,6.6a21.5,21.5,0,0,0-7.79,2c-8.22,3.84-24.17,13.24-10.73,23.63,5.18,4,11.78,6.69,18.51,8.47,4.86,1.29,4.75,10.74-.15,11.74l-.81.16c-25.07,5.09-22.57,0-25.07,15.28s45.14,8.48,56.42,8.48-1.25,8.49-3.76,18.68c-1.82,7.37,12.17,5,20,3.06a24.39,24.39,0,0,0,8.62-4.07c8.31-6.06,28.58-19.22,31.56-5.78,3.58,16.17-13.33,29.26,5.69,37.8a19.86,19.86,0,0,0,4.78,1.48c4.28.74,14.88,3.43,10.84,11.64-5,10.18-12.54-3.4-13.79,10.18s5.38,17.47,6.27,18.67,8.84,3.69,12.23,4.66c-2-.87-5.94-3.49-11-11.45-7.52-11.88,12.54-11.88,16.3-17s-6.45-9-5-18.67c1.25-8.49,2.51-5.09,10-6.79s3.76-6.79,11.28-23.76c5.38-12.13,12.67-6.93,16.4-3a13.27,13.27,0,0,0,6.67,4.07c5.1,1.14,13.28,2.31,15.81-1.1,3.76-5.1-2.51-8.09-2.51-11.89,0-5.09,17.55-8.48,21.31-5.09,3,2.66,12.54-3.39,7.53-8.48s-13.23-1.12-13.8-3.4c-1.25-5.08,26.7-16.51-26.26-13.72a15.09,15.09,0,0,1-5.52-.76c-8.68-2.86-30.66-11.89,16.31-17.57a12.75,12.75,0,0,0,3.66-1c5.42-2.46,17.76-9.66-19.53-11.06-45.14-1.7,5-30.55,26.33-27.16s22.39,2.68,23.82,8.49c1.26,5.09-12.24,14.47-15,22.06-2.51,6.79-7.48,25.38,33.54,13.67a4.26,4.26,0,0,1,.49-.1c.78-.07,3.83-.63,4.74-4.93.62-2.92,2.26-5.26,4.47-5.81,3.34-.84,7.15-2.89,5.66-7.92-2.51-8.48-7.52-11.88-13.79-13.58-5.74-1.55-4.13-22.75,35.59-22.7,3.84,0,5.57,2.05,8.29,5.73a7.38,7.38,0,0,0,6.27,3.4c10,0,17.56-3.4,18.81-8.49s0-16.74-43.81-12a3.57,3.57,0,0,1-3.44-1.85c-1.87-3.1-1.34-10,22.17-21.77,0,0,13.44-4.95-6.7-19.77a5.06,5.06,0,0,1-1.53-1.93c-2.63-5.6-9.19-27.4,40.83-37.7C630.36,304.3,620.33,263.56,620.33,263.56ZM421.24,229.5c-25.77,10-22.8-8-32.71-10a30,30,0,0,0-17.85,2c-4.41-7.69-16.31-3.8-18.53-2.77a4.62,4.62,0,0,1-.86.3c-73.08,18.63-74.3,10.12-74.3,10.12-14.71-13.66-6.13-20.49-2.45-29s21.45-7.69,26.36-4.27c4.08,2.84,19.22,4.5,24.17,5a12.33,12.33,0,0,1,3,.68,66.51,66.51,0,0,0,45.81-1.39c25.74-10.25,1.22-34.16,19.61-30.75s28.2,59.78,28.2,59.78Z"/><path class="cls-11" d="M205.94,169.16a50.74,50.74,0,0,1,5.62-7,32.24,32.24,0,0,1,7-5.59,14.25,14.25,0,0,1,8.63-2,12,12,0,0,1,4.2,1.47,16.28,16.28,0,0,1,3.47,2.76,16.17,16.17,0,0,0-3.55-2.61,11.55,11.55,0,0,0-4.15-1.3,13.73,13.73,0,0,0-8.27,2.25,31.44,31.44,0,0,0-6.6,5.7,47.69,47.69,0,0,0-5.22,7Z"/><path class="cls-11" d="M223.14,277.85a21.31,21.31,0,0,1-3.71-6.69,28.94,28.94,0,0,1-1.55-7.41,34,34,0,0,1,0-3.78,31.17,31.17,0,0,1,.38-3.74c.15-1.25.5-2.46.74-3.69s.72-2.4,1.08-3.6c-.32,1.21-.66,2.41-1,3.63s-.51,2.45-.62,3.69a33.22,33.22,0,0,0-.25,3.73,35.58,35.58,0,0,0,.14,3.72,28.63,28.63,0,0,0,1.75,7.19,20.51,20.51,0,0,0,3.73,6.25Z"/><path class="cls-11" d="M266.86,179.21a13.81,13.81,0,0,0-7.79,2.85,10.52,10.52,0,0,0-3.8,7.14,22.72,22.72,0,0,0,.78,8.27,55.15,55.15,0,0,0,2.8,7.92,65.21,65.21,0,0,0,8.79,14.32,66.66,66.66,0,0,0,5.62,6.23,19.52,19.52,0,0,0,3.43,2.33,16.81,16.81,0,0,0,3.79,1.63l-.15.67a18,18,0,0,1-4-1.63,20.6,20.6,0,0,1-3.61-2.37,65.58,65.58,0,0,1-14.65-20.83,56.13,56.13,0,0,1-2.72-8.09,22.69,22.69,0,0,1-.63-8.53,10.93,10.93,0,0,1,4.16-7.33A14,14,0,0,1,266.86,179.21Z"/><path class="cls-11" d="M274.25,191.12a29,29,0,0,0-8.3,7.63,12.31,12.31,0,0,0-2.15,5.12,11.05,11.05,0,0,0,.76,5.43,46,46,0,0,0,5.39,9.9,100.57,100.57,0,0,0,6.93,9l-.76.66a101.6,101.6,0,0,1-6.86-9.16,46.79,46.79,0,0,1-5.33-10.15,16.76,16.76,0,0,1-.71-2.81,9.29,9.29,0,0,1,0-2.93,12.68,12.68,0,0,1,2.39-5.23A29,29,0,0,1,274.25,191.12Z"/><path class="cls-11" d="M220.15,129.54a47.39,47.39,0,0,1,7.36-2.26,19,19,0,0,1,3.84-.48,7.18,7.18,0,0,1,2,.23A2.93,2.93,0,0,1,235,128.1a.15.15,0,1,1-.24.17,2.57,2.57,0,0,0-1.53-.87,7,7,0,0,0-1.84-.13,18.86,18.86,0,0,0-3.7.64,47.16,47.16,0,0,0-7.12,2.55h0a.49.49,0,0,1-.66-.25.5.5,0,0,1,.25-.66Z"/><path class="cls-11" d="M369.57,221.25a7.37,7.37,0,0,0-4.36-3.34,14.66,14.66,0,0,0-5.76-.32,29.2,29.2,0,0,0-5.73,1.32l-1.4.5c-.34.13-.51.14-.77.22l-.73.18-2.91.73c-7.76,1.93-15.55,3.77-23.38,5.45s-15.7,3.2-23.65,4.32c-4,.56-8,1-12,1.2a49.74,49.74,0,0,1-6.1-.07,17,17,0,0,1-3.11-.49,7.13,7.13,0,0,1-1.6-.6,3.52,3.52,0,0,1-.81-.55,2.94,2.94,0,0,1-.39-.45,2.55,2.55,0,0,1-.17-.33,1.25,1.25,0,0,1-.11-.54l.3.7h0a45.33,45.33,0,0,1-5.26-5.88,16.93,16.93,0,0,1-3.29-7.29,13.46,13.46,0,0,1,1.49-7.84c1.14-2.38,2.58-4.53,3.71-6.81.29-.56.53-1.13.87-1.76.16-.3.37-.58.55-.87s.42-.53.65-.79a12.37,12.37,0,0,1,3.2-2.43,23,23,0,0,1,7.54-2.32,34.84,34.84,0,0,1,7.84-.2,25.63,25.63,0,0,1,3.89.63,11.74,11.74,0,0,1,3.73,1.5,16.53,16.53,0,0,0,3.42,1.52c1.21.42,2.44.78,3.68,1.12,2.47.68,5,1.25,7.51,1.78s5,1,7.59,1.41c1.27.2,2.55.39,3.82.54a15.06,15.06,0,0,1,3.88.8,48.49,48.49,0,0,0,15.11,2.29,70.64,70.64,0,0,0,15.26-1.74,82.44,82.44,0,0,0,14.62-4.76,21.14,21.14,0,0,0,6.2-4.3,13.25,13.25,0,0,0,3.48-6.54,22.89,22.89,0,0,0,.06-7.57l-.56-3.83a13.6,13.6,0,0,1-.13-4,3.54,3.54,0,0,1,.92-1.95,3.75,3.75,0,0,1,1.91-1,11.93,11.93,0,0,1,4,0A12.05,12.05,0,0,1,396.4,170a15.63,15.63,0,0,1,3.33,2.17,29.24,29.24,0,0,1,5.15,5.91,59.73,59.73,0,0,1,3.89,6.76,112.74,112.74,0,0,1,5.77,14.43A221.44,221.44,0,0,1,422,229.42l-1,.16a221.54,221.54,0,0,0-7.32-30A112.14,112.14,0,0,0,408,185.23c-2.28-4.57-4.94-9.11-8.81-12.41a12.42,12.42,0,0,0-6.74-3.06,11,11,0,0,0-3.7,0,3,3,0,0,0-1.49.76,2.75,2.75,0,0,0-.69,1.51,13,13,0,0,0,.14,3.72l.56,3.84a23.26,23.26,0,0,1-.06,7.85,14.1,14.1,0,0,1-3.68,7,21.81,21.81,0,0,1-6.46,4.49,82.62,82.62,0,0,1-14.8,4.84,71.2,71.2,0,0,1-15.46,1.79,49.5,49.5,0,0,1-15.41-2.33,13.75,13.75,0,0,0-3.69-.75c-1.29-.15-2.57-.34-3.85-.54q-3.84-.63-7.65-1.41c-2.53-.53-5.06-1.1-7.57-1.78-1.25-.34-2.5-.71-3.73-1.14a17.08,17.08,0,0,1-3.64-1.63,11.34,11.34,0,0,0-3.43-1.36,24.63,24.63,0,0,0-3.75-.6,33.4,33.4,0,0,0-7.61.21,21.79,21.79,0,0,0-7.2,2.22,11,11,0,0,0-2.94,2.22c-.2.23-.39.47-.58.71s-.35.5-.49.77c-.28.51-.54,1.13-.83,1.72-1.14,2.36-2.56,4.54-3.62,6.83a11.82,11.82,0,0,0-1.26,7.17,15.25,15.25,0,0,0,3.24,6.6,39.4,39.4,0,0,0,5.32,5.41h0l.3.7c0-.22,0-.15,0-.18s0,0,0,0,.05.06.11.11a2,2,0,0,0,.42.29,6,6,0,0,0,1.2.45,15.74,15.74,0,0,0,2.8.47,46,46,0,0,0,5.88.13c3.95-.14,7.92-.54,11.86-1.05,7.9-1,15.77-2.46,23.59-4s15.63-3.34,23.4-5.19l2.92-.69c.46-.12,1-.23,1.39-.35s.95-.35,1.44-.51a30.54,30.54,0,0,1,5.93-1.35,15.56,15.56,0,0,1,6.14.37,8.41,8.41,0,0,1,4.95,3.76Z"/><path class="cls-11" d="M306.45,159.09c-8.56-11.62-17.54-23-28-32.91-1.31-1.23-2.62-2.47-4-3.6-.69-.58-1.37-1.17-2.06-1.74l-2.14-1.63-1.06-.81-1.11-.75c-.75-.5-1.48-1-2.23-1.49a48.26,48.26,0,0,0-4.68-2.55,27.85,27.85,0,0,0-10.1-2.81,20,20,0,0,0-5.19.35,21.42,21.42,0,0,0-4.91,1.74,33.56,33.56,0,0,0-8.47,6.29c-2.58,2.48-4.93,5.21-7.41,7.87l-.94,1-.47.49-.24.25-.31.27a7.44,7.44,0,0,1-2.75,1.33,41.87,41.87,0,0,1-5.47.91,66.72,66.72,0,0,0-10.53,1.93,42.62,42.62,0,0,0-9.78,4.09,47.52,47.52,0,0,0-8.5,6.37,72.08,72.08,0,0,0-13,16.94,78.57,78.57,0,0,0-8,19.82A72.36,72.36,0,0,0,163,201.69a55.84,55.84,0,0,0,1.53,10.52,3.37,3.37,0,0,0,.44,1c.19.25.52.63.79.93a11.3,11.3,0,0,0,1.89,1.65,5.54,5.54,0,0,0,4.39,1.12,7.16,7.16,0,0,0,3.83-2.75,22.58,22.58,0,0,0,2.64-4.47,58.06,58.06,0,0,0,3.37-10.12c.44-1.74.82-3.49,1.19-5.25s.74-3.56,1.18-5.33a81.57,81.57,0,0,1,3.17-10.49,35.33,35.33,0,0,1,2.36-5,16.36,16.36,0,0,1,3.59-4.45A9.19,9.19,0,0,1,196,167.5a7.86,7.86,0,0,1,3-.42,30.81,30.81,0,0,1,5.44,1.08,5.36,5.36,0,0,0,1.15.12,2.41,2.41,0,0,0,.49-.07l.12,0,.21-.06a1.34,1.34,0,0,1,.91.06,1,1,0,0,1,.52.48,1.34,1.34,0,0,1,.15.48,1.68,1.68,0,0,1,0,.32.93.93,0,0,1,0,.26,4.49,4.49,0,0,1-.21.79c-.16.48-.34.91-.53,1.34-.75,1.69-1.58,3.3-2.39,4.92-1.62,3.23-3.21,6.46-4.7,9.74a130.6,130.6,0,0,0-7.44,20.21,76.52,76.52,0,0,0-2.86,21.19,54.67,54.67,0,0,0,1.22,10.6l1.35,5.19c.58,1.68,1.16,3.37,1.77,5a51.38,51.38,0,0,0,11.67,17.69A44.16,44.16,0,0,0,219,275.3c.82.33,1.64.68,2.47,1,.42.15.84.28,1.26.4l.32.1.41.14a3.18,3.18,0,0,1,.77.47,4,4,0,0,1,1,1.32c.22.38.41.74.64,1.11l.74,1.05c.25.35.56.66.83,1a20,20,0,0,0,1.86,1.82c.64.59,1.4,1,2.09,1.58a34.59,34.59,0,0,0,9.65,4.23c6.86,1.91,14.13,2.18,21.28,1.82.9,0,1.8-.05,2.69-.11l2.68-.27c1.79-.19,3.58-.35,5.37-.56l5.33-.86c1.78-.28,3.56-.54,5.31-.95l5.29-1.13,2.64-.57,2.62-.68c3.51-.91,6.91-1.84,10.51-2.74a65.44,65.44,0,0,1,21.84-.93,60.56,60.56,0,0,1,20.88,6.41l2.41,1.33a21.49,21.49,0,0,1,2.35,1.41c1.5,1,3.06,2.06,4.52,3.08a33.45,33.45,0,0,0,4.5,2.81,15.49,15.49,0,0,0,4.86,1.7,5.15,5.15,0,0,0,4.43-1.12,6.57,6.57,0,0,0,1.54-4.49,15.4,15.4,0,0,0-.9-5.07,21.51,21.51,0,0,0-2.27-4.71,23.21,23.21,0,0,0-9.73-8.58,24.31,24.31,0,0,0-2.45-.95,20.23,20.23,0,0,0-2.55-.64c-.84-.17-1.74-.33-2.66-.49a17.75,17.75,0,0,1-5.35-1.78l-.62-.41-.31-.21-.28-.27a7.14,7.14,0,0,1-.54-.56l-.44-.69a3.71,3.71,0,0,1,0-3.19,7.26,7.26,0,0,1,1.78-2.38,13.4,13.4,0,0,1,2.29-1.69,21.53,21.53,0,0,1,5.13-2.2,20.8,20.8,0,0,1,11.07-.34,14,14,0,0,1,5.05,2.52,15.2,15.2,0,0,1,2,2l1.78,2a24,24,0,0,0,8.59,6,14.54,14.54,0,0,0,5.07,1.09,11.67,11.67,0,0,0,5-.85l0,0a146.23,146.23,0,0,1,16-8.3c1.39-.59,2.8-1.14,4.25-1.61a15.32,15.32,0,0,1,4.58-.87,2.74,2.74,0,0,1,.63,0,2.57,2.57,0,0,1,.64.15,3.45,3.45,0,0,1,1.13.67,6.34,6.34,0,0,0,1.8,1,14.15,14.15,0,0,0,4.23.78q1.1,0,2.19,0l1.1-.07a2,2,0,0,0,.79-.28,3.77,3.77,0,0,0,1.31-3.48,6.15,6.15,0,0,0-2.08-3.45,12,12,0,0,0-3.67-2.2,29.51,29.51,0,0,0-8.62-1.75,71.58,71.58,0,0,0-8.91,0l-.06-1a73.86,73.86,0,0,1,9.05,0,30.33,30.33,0,0,1,8.93,1.81,12.86,12.86,0,0,1,4,2.38,7.17,7.17,0,0,1,2.43,4.1,5.45,5.45,0,0,1-.26,2.47,4.2,4.2,0,0,1-1.51,2.06,3,3,0,0,1-1.31.46l-1.14.08c-.76,0-1.53,0-2.29,0a15.41,15.41,0,0,1-4.58-.83,8.3,8.3,0,0,1-2.11-1.18l-.24-.2-.17-.11a.91.91,0,0,0-.37-.17,1.42,1.42,0,0,0-.44-.1,2,2,0,0,0-.49,0,14.1,14.1,0,0,0-4.21.83c-1.4.45-2.78,1-4.15,1.58a145.53,145.53,0,0,0-15.85,8.28l0,0h0a12.73,12.73,0,0,1-5.6,1,15.79,15.79,0,0,1-5.48-1.15,25.31,25.31,0,0,1-9.05-6.3l-1.85-2.05a13.58,13.58,0,0,0-1.85-1.79,12.58,12.58,0,0,0-4.59-2.27,19.52,19.52,0,0,0-10.36.36,20.07,20.07,0,0,0-4.8,2.07,8.67,8.67,0,0,0-3.51,3.46,2.33,2.33,0,0,0,0,2,4.45,4.45,0,0,0,1.67,1.57,16.17,16.17,0,0,0,4.91,1.59c.86.15,1.74.3,2.67.49a19.18,19.18,0,0,1,2.71.68,25,25,0,0,1,2.61,1,22.33,22.33,0,0,1,2.46,1.32,24.53,24.53,0,0,1,7.9,7.77,22.67,22.67,0,0,1,2.43,5,16.76,16.76,0,0,1,1,5.56,8,8,0,0,1-2,5.5,5.54,5.54,0,0,1-2.7,1.45c-.25.06-.5.12-.75.16l-.74,0a6.26,6.26,0,0,1-.75,0l-.72-.09a16.7,16.7,0,0,1-5.33-1.85,35.14,35.14,0,0,1-4.7-2.91c-1.5-1.05-3-2-4.45-3a19.72,19.72,0,0,0-2.3-1.38l-2.34-1.29A59.06,59.06,0,0,0,326.51,284a63.87,63.87,0,0,0-21.32.92c-1.7.39-3.44.91-5.21,1.35l-5.26,1.39-2.64.69-2.66.57-5.32,1.15c-1.77.41-3.57.67-5.36,1l-5.38.86c-1.81.22-3.62.38-5.43.57l-2.72.28c-.9.06-1.82.08-2.73.12-7.25.37-14.66.11-21.77-1.85a36.45,36.45,0,0,1-10.13-4.44c-.75-.57-1.55-1.06-2.24-1.69a20.88,20.88,0,0,1-2-2c-.3-.37-.63-.7-.91-1.08l-.82-1.17c-.25-.41-.48-.84-.72-1.24a2.39,2.39,0,0,0-.62-.8,2.14,2.14,0,0,0-.38-.23l-.23-.08-.33-.1c-.45-.13-.89-.26-1.33-.42-.88-.3-1.73-.65-2.58-1a45.59,45.59,0,0,1-4.93-2.5,44.77,44.77,0,0,1-8.76-6.67,53,53,0,0,1-12.08-18.25c-.63-1.72-1.23-3.46-1.82-5.19l-1.39-5.31A56.61,56.61,0,0,1,188.15,228a78.11,78.11,0,0,1,2.9-21.68,132.45,132.45,0,0,1,7.51-20.48c1.5-3.31,3.1-6.57,4.72-9.8.81-1.62,1.63-3.24,2.35-4.85.17-.4.34-.8.47-1.18a2.73,2.73,0,0,0,.14-.52.28.28,0,0,0,0-.08s0-.06,0,0a.59.59,0,0,0,.34.42c.24.09.28,0,.24.05l-.11,0-.22.06a4.22,4.22,0,0,1-.85.11,6.88,6.88,0,0,1-1.54-.15,31.54,31.54,0,0,0-5.17-1,6.38,6.38,0,0,0-4.43,1.51,14.8,14.8,0,0,0-3.17,4,34.75,34.75,0,0,0-2.24,4.78A83.26,83.26,0,0,0,186,189.37c-.43,1.74-.79,3.51-1.16,5.27s-.76,3.56-1.2,5.33a60.62,60.62,0,0,1-3.48,10.44,23.38,23.38,0,0,1-2.87,4.84,8.87,8.87,0,0,1-4.84,3.4,6.33,6.33,0,0,1-3.12-.09,9.08,9.08,0,0,1-2.71-1.31,13.33,13.33,0,0,1-2.18-1.91,10.44,10.44,0,0,1-1-1.14,4.94,4.94,0,0,1-.7-1.49,57.47,57.47,0,0,1-1.61-10.92A74,74,0,0,1,163.3,180a80.58,80.58,0,0,1,8.18-20.3l2.85-4.69c1-1.52,2-3,3.17-4.48a63.26,63.26,0,0,1,7.34-8.19,49.6,49.6,0,0,1,8.85-6.58,45.21,45.21,0,0,1,10.2-4.23,68.36,68.36,0,0,1,10.8-1.93,42.61,42.61,0,0,0,5.23-.84,5.89,5.89,0,0,0,2.11-1l.2-.17.23-.23.47-.49.93-1c2.45-2.63,4.84-5.37,7.49-7.91a35.17,35.17,0,0,1,8.9-6.54,22.39,22.39,0,0,1,5.3-1.86,21.47,21.47,0,0,1,5.6-.36,29.32,29.32,0,0,1,10.66,3,52.64,52.64,0,0,1,4.83,2.65c.77.5,1.51,1,2.27,1.54l1.14.77,1.08.83,2.17,1.67c.71.58,1.39,1.18,2.09,1.77,1.4,1.16,2.72,2.42,4.05,3.67,10.48,10.1,19.36,21.64,27.82,33.38Z"/><path class="cls-11" d="M351.5,230.93a103.33,103.33,0,0,1,12.36-7,62.24,62.24,0,0,1,13.4-4.81,28.13,28.13,0,0,1,7.17-.72,16.14,16.14,0,0,1,3.63.57,19.11,19.11,0,0,1,3.39,1.42,21.74,21.74,0,0,1,5.68,4.53,68.16,68.16,0,0,0,4.73,5.15,8.77,8.77,0,0,0,2.8,1.65,8.87,8.87,0,0,0,3.22.43,22.36,22.36,0,0,0,6.65-1.49c2.18-.79,4.35-1.72,6.48-2.68s4.25-2,6.31-3.1,4.08-2.27,6-3.57a49.71,49.71,0,0,0,5.58-4.21,26.21,26.21,0,0,0,4.66-5.15,10.59,10.59,0,0,0,2-6.57,10.27,10.27,0,0,1-1.42,6.9,24.33,24.33,0,0,1-4.46,5.63,56,56,0,0,1-11.61,8.34,89.9,89.9,0,0,1-13,5.89,24.08,24.08,0,0,1-7.14,1.53,10.53,10.53,0,0,1-3.75-.54,10.14,10.14,0,0,1-3.26-1.95,66.61,66.61,0,0,1-4.81-5.3,21.11,21.11,0,0,0-5.3-4.32c-3.92-2.46-8.8-2.33-13.34-1.45a68.58,68.58,0,0,0-13.35,4.37A118.5,118.5,0,0,0,351.5,230.93Z"/><path class="cls-11" d="M412.92,251.71c3.09,0,6.31-.37,9.46-.66s6.32-.68,9.46-1.13c1.56-.23,3.13-.48,4.67-.8.76-.16,1.53-.33,2.25-.55a18.33,18.33,0,0,0,2.09-.92,51.18,51.18,0,0,0,8.06-4.83,31.83,31.83,0,0,0,6.64-6.52,23.49,23.49,0,0,0,4-8.28c1.5-6,.38-12.44-2.17-18.09a33.57,33.57,0,0,0-4.91-7.89,12.47,12.47,0,0,0-1.59-1.58c-.23-.17-.66-.46-1-.71s-.64-.54-.94-.81c-1.21-1.09-2.34-2.23-3.47-3.35a75.92,75.92,0,0,0-6.94-6.41,13.11,13.11,0,0,0-3.87-2.23,2.8,2.8,0,0,0-1.83,0,2.55,2.55,0,0,0-1.25,1.31,7.53,7.53,0,0,0-.71,4.21,14.62,14.62,0,0,0,1.24,4.36,33.71,33.71,0,0,0,5.1,7.82c.5.61,1,1.2,1.55,1.77.27.29.54.57.82.85s.55.52.87.9a3.71,3.71,0,0,1,.68,2.58,8.12,8.12,0,0,1-.61,2.42,20,20,0,0,1-2.45,4.18A32.87,32.87,0,0,1,435,221a30.64,30.64,0,0,0,4.84-8.11c.5-1.42.74-3.1-.13-4.13-.21-.22-.53-.49-.83-.77s-.59-.55-.88-.83c-.58-.57-1.14-1.15-1.68-1.75a33.77,33.77,0,0,1-5.47-8,16.08,16.08,0,0,1-1.45-4.78,8.61,8.61,0,0,1,.83-5.07,4,4,0,0,1,2-2,4.23,4.23,0,0,1,2.85,0,14.36,14.36,0,0,1,4.39,2.47,77.64,77.64,0,0,1,7.11,6.52c1.13,1.12,2.25,2.25,3.41,3.29.29.26.58.51.88.75s.55.4.95.7a14.54,14.54,0,0,1,1.81,1.78,34.79,34.79,0,0,1,5.18,8.27,33.59,33.59,0,0,1,2.76,9.37,25.66,25.66,0,0,1-.52,9.79,24.93,24.93,0,0,1-4.27,8.82,33.62,33.62,0,0,1-7,6.79,51.78,51.78,0,0,1-8.33,4.92,19.64,19.64,0,0,1-2.3,1c-.81.24-1.6.4-2.4.56-1.58.3-3.17.53-4.76.73-3.17.42-6.35.73-9.53,1s-6.33.53-9.61.51Z"/><path class="cls-11" d="M347.4,351.7a4,4,0,0,1,.64,3,9.25,9.25,0,0,1-.9,2.78,20.69,20.69,0,0,1-3.25,4.64A33.49,33.49,0,0,1,335,369a30.57,30.57,0,0,1-10.78,3.38,25.53,25.53,0,0,1-5.73,0c-1.95-.24-3.66-.63-5.48-.92a189.27,189.27,0,0,0-21.63-2.68,48,48,0,0,0-10.62.43,10.14,10.14,0,0,0-4.43,1.72,3.13,3.13,0,0,0-1,3.53,13.52,13.52,0,0,0,2.26,4.37,16.7,16.7,0,0,0,3.59,3.53,27.55,27.55,0,0,0,9.51,4.19,68,68,0,0,0,21.38,1.22c1.8-.15,3.59-.36,5.37-.62l2.76-.42a10.34,10.34,0,0,1,3.14.12,11.69,11.69,0,0,1,5.5,2.74,15.81,15.81,0,0,1,3.65,4.74,20.27,20.27,0,0,1,2,11.47,7.44,7.44,0,0,1-1.12,3.13,6.39,6.39,0,0,1-2.61,2.25,7.8,7.8,0,0,1-6.45-.09,8.32,8.32,0,0,1-4.41-4.6,8.56,8.56,0,0,1-.45-1.55,7.56,7.56,0,0,1-.12-.79l-.08-.67a5.16,5.16,0,0,0-.64-2.1,5.84,5.84,0,0,0-3.52-2.57,15.14,15.14,0,0,0-5-.5A27.85,27.85,0,0,0,300,400.86a19.63,19.63,0,0,0-2.26,1.23,7.27,7.27,0,0,0-1.74,1.54,10,10,0,0,0-2,4.35,9.83,9.83,0,0,0,.15,4.77,4.44,4.44,0,0,0,1,1.81,2.11,2.11,0,0,0,1.55.64,3.1,3.1,0,0,0,1-.15,9.44,9.44,0,0,0,1.14-.44,22.83,22.83,0,0,1,2.74-1,32.91,32.91,0,0,1,5.62-1,31.32,31.32,0,0,1,5.73-.06,17.41,17.41,0,0,1,5.76,1.37,7.39,7.39,0,0,1,2.67,2,5.05,5.05,0,0,1,.84,1.69,4.47,4.47,0,0,1,.09,1.94,3.91,3.91,0,0,1-.9,1.82,6,6,0,0,1-1.34,1.13,16.48,16.48,0,0,1-2.7,1.29c-1.76.68-3.46,1.24-5,2a11.13,11.13,0,0,0-2.08,1.31,7,7,0,0,0-.84.79l-.38.46a4.33,4.33,0,0,1-.71.71,9.75,9.75,0,0,1-2.83,1.42,26.77,26.77,0,0,1-2.77.78c-1.85.43-3.68.73-5.52,1-7.34,1-14.68,1.4-22,1.8l-2.74.14c-.92.06-1.82.09-2.66.2a21.64,21.64,0,0,0-5,1.21,36.42,36.42,0,0,0-4.73,2.34,41.64,41.64,0,0,0-4.43,3,25.39,25.39,0,0,0-3.83,3.55,12.71,12.71,0,0,0-2.58,4.25,6.92,6.92,0,0,0,0,4.58,10.69,10.69,0,0,0,2.7,4,18,18,0,0,0,1.95,1.66,13.09,13.09,0,0,0,2.16,1.28,37.73,37.73,0,0,0,4.95,1.95c1.71.57,3.45,1.07,5.21,1.57a27.81,27.81,0,0,1,5.43,1.87,14.93,14.93,0,0,1,2.48,1.7,5.92,5.92,0,0,1,2,2.79,5.46,5.46,0,0,1,.18,1.75l0,.7,0,.65a6.87,6.87,0,0,1-3,5.61,8.65,8.65,0,0,1-2.93,1.32c-1.84.37-3.61.71-5.43,1.05-3.6.67-7.26,1.23-10.79,1.92a12.37,12.37,0,0,0-4.65,1.61c-1.07.76-1.47,2.41-1.79,4.16s-.56,3.58-.84,5.4l-.22,1.37a6.51,6.51,0,0,0-.09,1.15,4.16,4.16,0,0,0,.58,2.07,7.85,7.85,0,0,0,3.7,2.89,24.32,24.32,0,0,0,5,1.5,66.94,66.94,0,0,0,10.73,1.1c3.63.12,7.27.08,10.91,0,7.29-.23,14.56-.87,21.92-1.27a19,19,0,0,1,5.81.31,3.75,3.75,0,0,1,1.64.92,2.68,2.68,0,0,1,.73,2,7.42,7.42,0,0,1-1.05,3c-.95,1.68-2,3.17-3,4.7a46.33,46.33,0,0,0-2.74,4.62,24.56,24.56,0,0,0-1.07,2.41c-.15.41-.29.82-.41,1.23a8.17,8.17,0,0,0-.29,1.19,2.23,2.23,0,0,0,.4,1.82,3.67,3.67,0,0,0,1.83,1,16.56,16.56,0,0,0,5.12.39,48.64,48.64,0,0,0,5.35-.6c1.78-.29,3.55-.66,5.32-1.06a23.57,23.57,0,0,0,5-1.66,25.15,25.15,0,0,0,4.54-2.74q2.25-1.62,4.57-3.13a78.29,78.29,0,0,1,9.67-5.46,38.13,38.13,0,0,1,5.24-2,17.68,17.68,0,0,1,5.7-.83,8.64,8.64,0,0,1,3,.63,6.53,6.53,0,0,1,2.52,1.83,10.56,10.56,0,0,1,2.16,5.48,29.52,29.52,0,0,1-.73,11.21c-.83,3.62-2.08,7.09-2.75,10.59a15,15,0,0,0-.22,5.2,8.85,8.85,0,0,0,2.12,4.53,15.44,15.44,0,0,0,4.08,3.24,24.15,24.15,0,0,0,4.86,2.15,21.4,21.4,0,0,0,2.6.59c.92.18,1.83.39,2.74.64a20.77,20.77,0,0,1,5.23,2.2,10.51,10.51,0,0,1,2.26,1.87,6.51,6.51,0,0,1,1.43,2.68,8,8,0,0,1-1.1,5.74,9.64,9.64,0,0,1-1.75,2.36,5.62,5.62,0,0,1-2.69,1.45c-2.06.44-4-.3-5.6-.35a2.27,2.27,0,0,0-2,.77,5.64,5.64,0,0,0-1,2.23,27.34,27.34,0,0,0-.63,5.31A22.86,22.86,0,0,0,368.15,590a15.34,15.34,0,0,0,3.09,4.28l1,1,.27.31c.05,0,.08.09.16.15a2.41,2.41,0,0,0,.5.33,17.84,17.84,0,0,0,2.42,1.11c3.37,1.31,6.89,2.35,10.4,3.35h0l-.13,1a7.44,7.44,0,0,1-3-1.13,17.19,17.19,0,0,1-2.48-1.82,31.65,31.65,0,0,1-4.14-4.45,57,57,0,0,1-3.47-5,12,12,0,0,1-1.31-2.83,6.26,6.26,0,0,1-.18-3.22,5.94,5.94,0,0,1,1.61-2.82,11.46,11.46,0,0,1,2.5-1.88,36.88,36.88,0,0,1,5.56-2.45c1.87-.71,3.76-1.35,5.5-2.21a9.1,9.1,0,0,0,2.34-1.53,3.58,3.58,0,0,0,1.11-2.27,4.82,4.82,0,0,0-.7-2.54c-.45-.83-1-1.65-1.57-2.47a24,24,0,0,1-2.95-5.36,12.82,12.82,0,0,1-.65-6.17c.15-1,.3-2,.55-3a10.24,10.24,0,0,1,.48-1.52,3.88,3.88,0,0,1,1-1.45,3.33,3.33,0,0,1,1.66-.71,12.45,12.45,0,0,1,1.56-.13c1,0,2-.08,2.94-.21,1.9-.27,3.94-.59,5.3-1.69s1.84-3.08,2.32-5,.91-3.89,1.45-5.83a81.52,81.52,0,0,1,4.05-11.35,19.6,19.6,0,0,1,3.25-5.26,9,9,0,0,1,2.52-2,6.74,6.74,0,0,1,3.21-.75,10.35,10.35,0,0,1,5.86,2.35,21.45,21.45,0,0,1,2.31,2,18.7,18.7,0,0,0,2.12,2,11.41,11.41,0,0,0,5.07,2.38,48.36,48.36,0,0,0,5.83.91,19.61,19.61,0,0,0,5.74-.21,5.81,5.81,0,0,0,2.41-1.06A5,5,0,0,0,445,520.8a3.8,3.8,0,0,0,0-2.47,10.09,10.09,0,0,0-1.29-2.47,26.77,26.77,0,0,1-1.62-2.62,4.41,4.41,0,0,1-.42-3.48,5.76,5.76,0,0,1,2.26-2.54,15.11,15.11,0,0,1,2.79-1.45,30.08,30.08,0,0,1,5.91-1.67,29.06,29.06,0,0,1,6.12-.47,13.66,13.66,0,0,1,3.14.44,6.25,6.25,0,0,1,1.57.66,3.19,3.19,0,0,1,.38.26l.29.24a1.38,1.38,0,0,0,.42.21,3.71,3.71,0,0,0,2.37-.31,8.63,8.63,0,0,0,2.29-1.48,6.16,6.16,0,0,0,2.36-4.52c0-1.62-1.43-3.07-3-3.86a9.52,9.52,0,0,0-5.4-.66c-1,.1-1.91.29-2.9.47-.51.08-1,.17-1.59.21a3.75,3.75,0,0,1-1-.06,1.65,1.65,0,0,1-1.16-.89,2.67,2.67,0,0,1,.17-2.15,7.68,7.68,0,0,1,.91-1.42c.66-.83,1.37-1.56,2.06-2.28a22.47,22.47,0,0,0,3.67-4.38,2.58,2.58,0,0,0,.32-1.08,1.26,1.26,0,0,0-.26-.85,4.6,4.6,0,0,0-2.11-1.25,26.6,26.6,0,0,0-5.67-1.08c-1.95-.18-3.93-.28-5.91-.33-4-.09-7.93,0-11.91.15l-3,.13-1.49.08c-.51,0-.93.06-1.43.12-1,.12-2,.26-3,.36a11.78,11.78,0,0,1-3.24,0l-.46-.12-.37-.12-.71-.24-1.43-.51c-.95-.36-1.89-.73-2.82-1.14a27.46,27.46,0,0,1-5.42-3,7.6,7.6,0,0,1-2.27-2.51,3.46,3.46,0,0,1-.37-2,3.68,3.68,0,0,1,.77-1.8,8.36,8.36,0,0,1,2.62-2.08,23.21,23.21,0,0,1,2.84-1.29,72.06,72.06,0,0,1,11.75-3c3.95-.72,7.93-1.27,11.9-1.76a12,12,0,0,0,2.68-.67,26.34,26.34,0,0,0,2.59-1.23,17.88,17.88,0,0,0,2.38-1.52,4.07,4.07,0,0,0,1.49-1.79.81.81,0,0,0-.14-.69,3,3,0,0,0-.82-.73,10.46,10.46,0,0,0-2.52-1.08,39.24,39.24,0,0,0-5.7-1.23c-3.89-.59-7.86-.88-11.82-1.1a109.45,109.45,0,0,1-12-.9,29.32,29.32,0,0,1-6-1.51,11.74,11.74,0,0,1-2.86-1.55,5.58,5.58,0,0,1-2.09-2.87,5.38,5.38,0,0,1,.3-3.56A11,11,0,0,1,409,437.6a26.22,26.22,0,0,1,4.58-4.19,59.81,59.81,0,0,1,10.54-6.06,79.06,79.06,0,0,1,11.38-4.17,52.56,52.56,0,0,1,12-2,29.2,29.2,0,0,1,3.1,0c1,.07,2.08.25,3.05.4l5.91.91,5.92.92a59.62,59.62,0,0,1,6,1.19,10.27,10.27,0,0,1,3.05,1.3,5.74,5.74,0,0,1,2.11,2.87c.19.52.33,1,.46,1.53l.09.38a3.05,3.05,0,0,1,.08.5,3.92,3.92,0,0,1,0,1,8.37,8.37,0,0,1-1.22,3.17,34.22,34.22,0,0,1-3.76,4.89l-4,4.45c-1.32,1.48-2.61,3-3.75,4.53a25.29,25.29,0,0,0-1.57,2.4,13.75,13.75,0,0,0-1.11,2.57,22.48,22.48,0,0,0-1.24,5.57,9.31,9.31,0,0,0,1,5.21,7.63,7.63,0,0,0,4,3.3A18,18,0,0,0,471,469.4a50.56,50.56,0,0,0,11.66-.92,118.41,118.41,0,0,0,11.53-2.74,5.47,5.47,0,0,1,.9-.19,2.77,2.77,0,0,0,.56-.11,3.87,3.87,0,0,0,1.07-.5,4.41,4.41,0,0,0,1.54-1.81,15.46,15.46,0,0,0,.83-2.69,10.22,10.22,0,0,1,1.42-3,6.68,6.68,0,0,1,2.67-2.3,5.4,5.4,0,0,1,.88-.31l.68-.19a10.83,10.83,0,0,0,1.28-.47,4.7,4.7,0,0,0,3.17-3.44,5.8,5.8,0,0,0-.24-2.48l-.44-1.37-.52-1.33a17.66,17.66,0,0,0-2.91-4.81,15.07,15.07,0,0,0-4.34-3.47,20,20,0,0,0-2.58-1.17c-.46-.15-.9-.32-1.36-.45l-.69-.21-.43-.13a3,3,0,0,1-.49-.21,4.76,4.76,0,0,1-2.25-3,8.59,8.59,0,0,1-.18-3.41,13.57,13.57,0,0,1,2.53-5.94,24.75,24.75,0,0,1,9.83-7.56,49.09,49.09,0,0,1,11.71-3.48,80.42,80.42,0,0,1,12.07-1.14c1,0,2,0,3,0a9,9,0,0,1,3.34.66,9.33,9.33,0,0,1,2.76,1.94,23.52,23.52,0,0,1,2,2.39l.91,1.21a11.13,11.13,0,0,0,.87,1,6.08,6.08,0,0,0,2.07,1.45,6.51,6.51,0,0,0,2.51.45c1,0,1.94,0,2.91-.11a25.24,25.24,0,0,0,10.95-3,8.52,8.52,0,0,0,3.58-3.79,7.34,7.34,0,0,0,.48-2.53,6,6,0,0,0-.45-2.5,8.13,8.13,0,0,0-3.53-3.8,20.4,20.4,0,0,0-5.26-2.11,53.92,53.92,0,0,0-11.6-1.55c-3.94-.15-7.91-.06-11.86.16-2,.11-4,.27-5.94.43l-3,.29-1.56.15a4.54,4.54,0,0,1-1.93-.36,5.59,5.59,0,0,1-3-6.23,12.37,12.37,0,0,1,3.19-5.65,46.62,46.62,0,0,1,9.59-7.6c3.41-2.16,7-4.07,10.54-5.88h0l.1,0a6.27,6.27,0,0,0,3.29-3,5.3,5.3,0,0,0-.19-4.36A16.19,16.19,0,0,0,540,364a36.91,36.91,0,0,0-3.75-3.64c-.67-.57-1.35-1.13-2-1.67l-1.05-.81-.56-.42a5.49,5.49,0,0,1-.61-.57,6.19,6.19,0,0,1-.94-1.31,13.65,13.65,0,0,1-.6-1.34,19.79,19.79,0,0,1-.88-2.7,19.1,19.1,0,0,1,.53-11.22,24,24,0,0,1,6.35-9.2,43.35,43.35,0,0,1,9.07-6.25A91.4,91.4,0,0,1,566,317.42c3.51-.91,7.08-1.56,10.51-2.4a98.93,98.93,0,0,0,10.2-3,62.83,62.83,0,0,0,18.47-10.17,40.1,40.1,0,0,0,12.27-16.74,38.71,38.71,0,0,0,2.35-10.19,35.9,35.9,0,0,0-.47-10.37v-.15a105.53,105.53,0,0,0-3.92-18,88.2,88.2,0,0,0-7.13-17A55.56,55.56,0,0,0,597,215a39.25,39.25,0,0,0-15.78-8.68,46.18,46.18,0,0,0-18.11-1c-.76.1-1.52.21-2.27.35s-1.51.26-2.26.44l-1.12.24-.57.13a4.75,4.75,0,0,1-.72.11,4.06,4.06,0,0,1-2.76-.87,5.93,5.93,0,0,1-1.68-2.11c-.34-.68-.7-1.35-1.07-2a41.88,41.88,0,0,0-2.48-3.84,39.14,39.14,0,0,0-6.2-6.72,35.08,35.08,0,0,0-7.7-5,34.44,34.44,0,0,0-8.77-2.82,45.49,45.49,0,0,0-9.26-.69,38.2,38.2,0,0,1,18.4,2.68A36.61,36.61,0,0,1,549.4,196.9a45.26,45.26,0,0,1,2.67,3.93c.4.69.79,1.38,1.16,2.08a4.08,4.08,0,0,0,1.22,1.48,2.38,2.38,0,0,0,1.6.49,4.23,4.23,0,0,0,.43-.07l.57-.14,1.15-.27c.77-.19,1.55-.33,2.32-.48s1.55-.28,2.34-.39a46.6,46.6,0,0,1,18.91.81,41.24,41.24,0,0,1,8.87,3.56,43.44,43.44,0,0,1,7.78,5.54,57.61,57.61,0,0,1,11.65,14.91,89.94,89.94,0,0,1,7.31,17.37,107.4,107.4,0,0,1,4,18.42l0-.14a37.87,37.87,0,0,1,.52,11.07,40.42,40.42,0,0,1-2.48,10.74,42.23,42.23,0,0,1-12.89,17.63A64.93,64.93,0,0,1,587.41,314,99.94,99.94,0,0,1,577,317.09c-3.54.87-7,1.51-10.49,2.4a89.13,89.13,0,0,0-20,7.26,41.62,41.62,0,0,0-8.62,5.93,21.93,21.93,0,0,0-5.8,8.35,17,17,0,0,0-.46,10,19,19,0,0,0,.79,2.42,5.9,5.9,0,0,0,1.12,2,3,3,0,0,0,.37.34l.51.4,1.09.82c.72.56,1.43,1.14,2.13,1.73a41.26,41.26,0,0,1,4,3.86,18.25,18.25,0,0,1,3.15,4.76,9.27,9.27,0,0,1,.74,2.95,6.54,6.54,0,0,1-.57,3.13,7.32,7.32,0,0,1-1.89,2.49,9.23,9.23,0,0,1-2.61,1.61l.1-.05c-3.53,1.79-7,3.67-10.36,5.78a44.91,44.91,0,0,0-9.13,7.22,10.39,10.39,0,0,0-2.67,4.61,3.85,3.85,0,0,0,.23,2.29,3,3,0,0,0,1.48,1.56,2.37,2.37,0,0,0,1,.18l1.43-.14,3-.29c2-.17,4-.33,6-.44,4-.22,8-.32,12.08-.16a56.59,56.59,0,0,1,12.08,1.62,23.13,23.13,0,0,1,5.81,2.34,10.35,10.35,0,0,1,4.42,4.85,8.4,8.4,0,0,1,.61,3.35,9.37,9.37,0,0,1-.65,3.31,10.55,10.55,0,0,1-4.45,4.82,27.22,27.22,0,0,1-11.92,3.33c-1,.07-2,.11-3.07.11a8.31,8.31,0,0,1-3.34-.62,8.14,8.14,0,0,1-2.8-1.94,12.41,12.41,0,0,1-1.06-1.26l-.88-1.18a11,11,0,0,0-3.94-3.65,6.68,6.68,0,0,0-2.51-.48c-1,0-2,0-2.95,0a80.72,80.72,0,0,0-11.74,1.11A46.53,46.53,0,0,0,506,417.14a22.41,22.41,0,0,0-9,6.85,11.32,11.32,0,0,0-2.13,5,6.41,6.41,0,0,0,.11,2.52,2.69,2.69,0,0,0,1.16,1.69l.2.08.11,0,.18.06.75.22c.49.14,1,.32,1.47.49a21.76,21.76,0,0,1,2.87,1.3,17.23,17.23,0,0,1,5,4,19.79,19.79,0,0,1,3.27,5.39c.19.49.39,1,.56,1.46l.48,1.47a7.88,7.88,0,0,1,.3,3.44,5.94,5.94,0,0,1-1.62,3.21,9,9,0,0,1-2.83,1.88,13.39,13.39,0,0,1-1.53.55l-.77.21a5.44,5.44,0,0,0-.52.19,4.47,4.47,0,0,0-1.79,1.58,8,8,0,0,0-1.13,2.38,16.07,16.07,0,0,1-1,3,6.49,6.49,0,0,1-2.3,2.67,6.12,6.12,0,0,1-1.64.76,6.37,6.37,0,0,1-.91.18,2.84,2.84,0,0,0-.56.12c-3.86,1.09-7.77,2.07-11.75,2.78a51.89,51.89,0,0,1-12.16.92,20,20,0,0,1-6.17-1.28,9.8,9.8,0,0,1-5-4.22,11.37,11.37,0,0,1-1.21-6.39,24.26,24.26,0,0,1,1.35-6.09,15.85,15.85,0,0,1,1.27-2.91,27.86,27.86,0,0,1,1.7-2.61c1.22-1.66,2.55-3.19,3.89-4.68l4-4.44a32.68,32.68,0,0,0,3.54-4.58,6.44,6.44,0,0,0,.95-2.36,1.83,1.83,0,0,0,0-.52.93.93,0,0,0,0-.24l-.08-.34c-.12-.47-.25-.93-.4-1.34a3.62,3.62,0,0,0-1.35-1.89,8.49,8.49,0,0,0-2.44-1c-1.83-.5-3.8-.82-5.75-1.15l-5.91-.92-5.92-.93c-1-.16-1.93-.32-2.88-.38a27.77,27.77,0,0,0-2.89,0A49.76,49.76,0,0,0,436,425.1a75.86,75.86,0,0,0-11.09,4,58.29,58.29,0,0,0-10.2,5.83,23.66,23.66,0,0,0-4.23,3.86c-1.18,1.41-2.09,3.15-1.66,4.57s2.07,2.48,3.79,3.15a26.93,26.93,0,0,0,5.59,1.41c1.93.31,3.89.49,5.86.61l6,.28c4,.23,8,.53,12,1.14a39.71,39.71,0,0,1,6,1.3,12.2,12.2,0,0,1,3,1.3,4.4,4.4,0,0,1,1.37,1.27,2.66,2.66,0,0,1,.4,2.17,4.07,4.07,0,0,1-.93,1.68,8.65,8.65,0,0,1-1.22,1.14,20.47,20.47,0,0,1-2.65,1.7,29.28,29.28,0,0,1-2.82,1.33,13.31,13.31,0,0,1-3.12.77c-3.95.48-7.88,1-11.79,1.73a70.05,70.05,0,0,0-11.43,2.88,22.06,22.06,0,0,0-2.61,1.18,6.6,6.6,0,0,0-2.05,1.59,1.58,1.58,0,0,0-.22,1.84,5.86,5.86,0,0,0,1.74,1.87,25.56,25.56,0,0,0,5,2.79c.89.39,1.81.75,2.73,1.1l1.39.5.7.24.34.11.27.07a10.27,10.27,0,0,0,2.72,0c1-.09,1.94-.23,2.94-.35.49-.06,1.07-.12,1.56-.13l1.49-.07,3-.13c4-.15,8-.23,12-.12,2,.05,4,.15,6,.35a27.62,27.62,0,0,1,6.06,1.18,9.55,9.55,0,0,1,1.51.67,4.53,4.53,0,0,1,1.4,1.18,3,3,0,0,1,.6,2,4.42,4.42,0,0,1-.51,1.77,23.64,23.64,0,0,1-4,4.78c-.69.71-1.38,1.42-2,2.15a6.51,6.51,0,0,0-.71,1.09,1.39,1.39,0,0,0-.17.74c0-.06-.12-.08,0,0a2,2,0,0,0,.52,0,12.47,12.47,0,0,0,1.38-.18c1-.17,2-.36,3-.48a11.27,11.27,0,0,1,6.31.84,8.47,8.47,0,0,1,2.6,2.05,5.36,5.36,0,0,1,1.28,3.21,6.2,6.2,0,0,1-.85,3.28,9.71,9.71,0,0,1-2.07,2.51,9.92,9.92,0,0,1-2.73,1.74,5.1,5.1,0,0,1-3.46.36,2.87,2.87,0,0,1-.9-.47l-.29-.24-.24-.16a4.64,4.64,0,0,0-1.18-.49,12,12,0,0,0-2.77-.4,27.56,27.56,0,0,0-5.79.43,28.66,28.66,0,0,0-5.6,1.56,13.63,13.63,0,0,0-2.52,1.3,4.31,4.31,0,0,0-1.7,1.82,3,3,0,0,0,.36,2.28,25,25,0,0,0,1.52,2.47,11.33,11.33,0,0,1,1.45,2.84,5.28,5.28,0,0,1-.06,3.4,6.51,6.51,0,0,1-.75,1.49,5.07,5.07,0,0,1-1.13,1.29,7.29,7.29,0,0,1-3,1.34,20.75,20.75,0,0,1-6.18.22,49.8,49.8,0,0,1-6-1,12.79,12.79,0,0,1-5.65-2.67,20.55,20.55,0,0,1-2.24-2.11,18.65,18.65,0,0,0-2.16-1.92,9,9,0,0,0-5.05-2.09,5.45,5.45,0,0,0-2.56.6,7.55,7.55,0,0,0-2.15,1.69,18.16,18.16,0,0,0-3,4.88,79.94,79.94,0,0,0-4,11.16c-.53,1.91-1,3.84-1.45,5.79a23.7,23.7,0,0,1-.9,3,6.64,6.64,0,0,1-1.86,2.69,7.85,7.85,0,0,1-2.92,1.39,23,23,0,0,1-3,.56c-1,.13-2,.17-3,.21a4.2,4.2,0,0,0-2.48.54,4.61,4.61,0,0,0-1.09,2.33c-.23.93-.39,1.91-.53,2.88a11.63,11.63,0,0,0,.57,5.61,23.23,23.23,0,0,0,2.8,5.11c.56.83,1.13,1.66,1.63,2.58A6.06,6.06,0,0,1,391,570a4.25,4.25,0,0,1-.47,1.65,5.22,5.22,0,0,1-1,1.35,10.32,10.32,0,0,1-2.64,1.74c-1.85.89-3.75,1.53-5.61,2.23a36.85,36.85,0,0,0-5.4,2.35c-1.65.95-3.22,2.24-3.61,4s.35,3.64,1.34,5.26a56.29,56.29,0,0,0,3.39,4.86,30.28,30.28,0,0,0,4,4.32,16.09,16.09,0,0,0,2.33,1.72,9.4,9.4,0,0,0,1.26.65,5.08,5.08,0,0,0,1.25.35l-.13,1h0c-3.54-1-7.06-2-10.52-3.32a20.26,20.26,0,0,1-2.58-1.16,5.52,5.52,0,0,1-.64-.43,2.05,2.05,0,0,1-.33-.33l-.19-.21-1-.94a16.47,16.47,0,0,1-3.33-4.56,24,24,0,0,1-2.09-11,29.54,29.54,0,0,1,.63-5.58,7,7,0,0,1,1.25-2.73,3.26,3.26,0,0,1,1.35-1,4.46,4.46,0,0,1,1.58-.25,24.79,24.79,0,0,1,2.8.36,7,7,0,0,0,2.5,0,5.68,5.68,0,0,0,3.57-3.19,6.74,6.74,0,0,0,.94-4.78,6.37,6.37,0,0,0-3.11-3.71,19.08,19.08,0,0,0-4.88-2c-.86-.24-1.74-.43-2.62-.6a21.6,21.6,0,0,1-2.75-.61,25.69,25.69,0,0,1-5.18-2.25,17.09,17.09,0,0,1-4.49-3.53,10.43,10.43,0,0,1-2.5-5.27,16.64,16.64,0,0,1,.2-5.73c.69-3.7,1.92-7.15,2.7-10.68a27.65,27.65,0,0,0,.64-10.58,8.84,8.84,0,0,0-1.78-4.61,5.67,5.67,0,0,0-4.27-1.83,15.69,15.69,0,0,0-5.11.79,37,37,0,0,0-5,1.95,77.75,77.75,0,0,0-9.41,5.39q-2.28,1.5-4.48,3.11a27.51,27.51,0,0,1-4.84,2.94,25.11,25.11,0,0,1-5.39,1.8c-1.8.42-3.61.8-5.44,1.1a48.67,48.67,0,0,1-5.57.65,18.46,18.46,0,0,1-5.78-.45,5.64,5.64,0,0,1-2.83-1.7,4.28,4.28,0,0,1-.83-3.36,11,11,0,0,1,.34-1.49c.13-.46.29-.92.46-1.37a25.41,25.41,0,0,1,1.14-2.61c1.67-3.38,4-6.37,5.74-9.4a5.84,5.84,0,0,0,.79-2.11.6.6,0,0,0-.15-.49,1.78,1.78,0,0,0-.75-.38,18.48,18.48,0,0,0-5.11-.2c-7.26.41-14.6,1.09-21.94,1.34-3.68.14-7.36.19-11.06.08a69.71,69.71,0,0,1-11.1-1.11,25.88,25.88,0,0,1-5.49-1.63,10,10,0,0,1-4.76-3.81,6.56,6.56,0,0,1-.9-3.16,10.14,10.14,0,0,1,.11-1.58l.22-1.35c.28-1.8.51-3.61.83-5.46a16.87,16.87,0,0,1,.72-2.86,5.89,5.89,0,0,1,1.92-2.73,8.61,8.61,0,0,1,2.83-1.38c.94-.3,1.86-.49,2.78-.69,3.65-.73,7.24-1.28,10.83-2l5.35-1.05a6.22,6.22,0,0,0,2.05-.94,4.7,4.7,0,0,0,1.44-1.61,4.59,4.59,0,0,0,.52-2.1c0-.15,0-.5,0-.72l0-.67a2.86,2.86,0,0,0-.08-1c-.28-1.05-1.87-2.22-3.26-3a26.1,26.1,0,0,0-4.95-1.66c-1.76-.5-3.54-1-5.31-1.58a42.21,42.21,0,0,1-5.27-2.06,16.73,16.73,0,0,1-2.55-1.51,20.32,20.32,0,0,1-2.23-1.9,13.16,13.16,0,0,1-3.33-5,9.54,9.54,0,0,1,0-6.2,15.35,15.35,0,0,1,3.06-5.1,28.68,28.68,0,0,1,4.2-3.91,41.79,41.79,0,0,1,4.7-3.14,37.83,37.83,0,0,1,5.1-2.53,23.85,23.85,0,0,1,5.63-1.36c1-.13,1.91-.16,2.82-.22l2.74-.15c7.3-.4,14.61-.8,21.78-1.79,1.78-.26,3.56-.56,5.29-1a24.32,24.32,0,0,0,2.51-.71,7.32,7.32,0,0,0,2.06-1,1.36,1.36,0,0,0,.27-.26l.49-.6a9.84,9.84,0,0,1,1.15-1.09,14.22,14.22,0,0,1,2.56-1.61c1.75-.87,3.54-1.46,5.2-2.1a14.6,14.6,0,0,0,2.24-1.07,2.09,2.09,0,0,0,1.08-1.23,2.15,2.15,0,0,0,0-.78,2.45,2.45,0,0,0-.39-.75,4.63,4.63,0,0,0-1.7-1.24,15.23,15.23,0,0,0-4.88-1.13,28.7,28.7,0,0,0-5.24.06,29.62,29.62,0,0,0-5.15,1,19.55,19.55,0,0,0-2.44.86,14.06,14.06,0,0,1-1.43.55,6.4,6.4,0,0,1-1.73.25,4.82,4.82,0,0,1-3.39-1.4,7,7,0,0,1-1.7-2.9A13.09,13.09,0,0,1,294,401.93a10,10,0,0,1,2.35-2.09,24.55,24.55,0,0,1,2.56-1.4,30.39,30.39,0,0,1,11.09-2.8,17.85,17.85,0,0,1,5.9.61,10.24,10.24,0,0,1,2.85,1.37,7.67,7.67,0,0,1,2.23,2.44,7.94,7.94,0,0,1,1,3.11l.09.7a3.43,3.43,0,0,0,.08.56,5.39,5.39,0,0,0,.31,1.08,5.66,5.66,0,0,0,3,3.12,5.14,5.14,0,0,0,4.2.1,4,4,0,0,0,2.19-3.28,17.64,17.64,0,0,0-1.74-9.87c-1.49-3-4.11-5.45-7.22-6a7.85,7.85,0,0,0-2.32-.08l-2.67.41q-2.76.4-5.54.64A70.34,70.34,0,0,1,290,389.25a30.17,30.17,0,0,1-10.47-4.62,19.39,19.39,0,0,1-4.2-4.14,15.87,15.87,0,0,1-2.73-5.34,7,7,0,0,1,0-3.43,5.78,5.78,0,0,1,2-2.94,12.67,12.67,0,0,1,5.68-2.28,49.24,49.24,0,0,1,11.28-.42,170.31,170.31,0,0,1,21.91,3c1.79.33,3.65.77,5.33,1a24.07,24.07,0,0,0,5.23.11,28.36,28.36,0,0,0,10.13-2.93,31.58,31.58,0,0,0,8.67-6.19,20,20,0,0,0,3.2-4.2,8.66,8.66,0,0,0,.91-2.38,3,3,0,0,0-.32-2.24Z"/><path class="cls-11" d="M347,371.4a32.36,32.36,0,0,0,7-6.71,11,11,0,0,0,2-4.26,5.28,5.28,0,0,0-1-4.35,9.92,9.92,0,0,0-3.71-2.78,9,9,0,0,0-4.57-.63c-3.13.36-6,2-8.8,3.55-.71.4-1.42.8-2.17,1.17a5.44,5.44,0,0,1-2.57.7,1.8,1.8,0,0,1-1.37-.83,3.56,3.56,0,0,1-.45-1.33,11.51,11.51,0,0,1-.05-2.55,46.55,46.55,0,0,1,.67-4.88,19.1,19.1,0,0,1,1.53-4.75,17.08,17.08,0,0,1,6.74-7.27,28.63,28.63,0,0,1,9.29-3.39,68.74,68.74,0,0,1,19.58-.46l2.43.25c.79.08,1.59.12,2.38.14,1.6,0,3.21,0,4.82-.11a93.81,93.81,0,0,1,9.82-.3,14.43,14.43,0,0,1,5,1.09,6.94,6.94,0,0,1,3.73,3.83,12.38,12.38,0,0,1,.65,5.14,14.24,14.24,0,0,1-1.15,5,18.14,18.14,0,0,1-2.74,4.24c-1.06,1.26-2.14,2.45-3.08,3.71a13.75,13.75,0,0,0-2.62,9,14.49,14.49,0,0,1-.12-4.92,13.37,13.37,0,0,1,1.82-4.66c1.77-2.85,4.17-5.1,5.31-8a12.52,12.52,0,0,0,1-4.46,10.9,10.9,0,0,0-.58-4.45,5.34,5.34,0,0,0-2.86-3,13.22,13.22,0,0,0-4.45-1,91.81,91.81,0,0,0-9.65.14c-1.63.06-3.27.09-4.92,0-.82,0-1.65-.1-2.47-.2l-2.42-.26a67.74,67.74,0,0,0-19.24.38,27.55,27.55,0,0,0-8.93,3.22,16.07,16.07,0,0,0-6.36,6.76A17.51,17.51,0,0,0,333,348.7a45.72,45.72,0,0,0-.7,4.75,10.54,10.54,0,0,0,0,2.32,2.64,2.64,0,0,0,.3,1,.8.8,0,0,0,.64.39,4.63,4.63,0,0,0,2.07-.6c.71-.33,1.42-.73,2.13-1.12,2.82-1.56,5.78-3.22,9.17-3.6a9.72,9.72,0,0,1,5,.78,10.71,10.71,0,0,1,4,3.08,5.81,5.81,0,0,1,1,4.88,11.62,11.62,0,0,1-2.26,4.39A30.78,30.78,0,0,1,347,371.4Z"/><path class="cls-11" d="M394.42,349.72a36.79,36.79,0,0,0,15.86,11.49A38.11,38.11,0,0,0,429.71,363a60.94,60.94,0,0,0,18.68-6.48c5.95-3.19,12-6.13,17.83-9.46a102.71,102.71,0,0,0,16.42-11.39,72.27,72.27,0,0,0,13.09-15,74.33,74.33,0,0,0,8.59-18.06A106,106,0,0,0,508.73,283a97.27,97.27,0,0,1-3.37,20,76.11,76.11,0,0,1-8.14,18.67,64.41,64.41,0,0,1-6,8.29,71.92,71.92,0,0,1-7.15,7.35A96.4,96.4,0,0,1,467.4,349.1c-5.92,3.39-12,6.3-17.94,9.48a72.33,72.33,0,0,1-9.41,4.13,52.79,52.79,0,0,1-10,2.43,39.7,39.7,0,0,1-20.38-2.29,38.51,38.51,0,0,1-8.92-5.17,34.35,34.35,0,0,1-7.14-7.4Z"/><path class="cls-11" d="M533.13,185.18a10.82,10.82,0,0,0-1.79-9c-2-2.5-5.1-3.84-8.25-4.5a37.66,37.66,0,0,0-9.79-.58c-1.66.08-3.29.27-4.95.43l-2.52.24-2.53.14A69.2,69.2,0,0,1,464.49,162,48.75,48.75,0,0,1,449.68,148a36.7,36.7,0,0,1-4.52-9.24c-.24-.83-.5-1.66-.7-2.49s-.39-1.69-.51-2.54l-.35-2.51a7.15,7.15,0,0,0-.22-1.12,7.05,7.05,0,0,0-.32-1.11,20,20,0,0,0-5.27-7.75,39.58,39.58,0,0,0-7.87-5.67,65.84,65.84,0,0,0-18.42-6.71,77.3,77.3,0,0,0-19.61-1.58,70.91,70.91,0,0,0-19.33,3.53,64,64,0,0,0-17.45,8.92,64.78,64.78,0,0,0-13.91,13.8,74.8,74.8,0,0,0-5.33,8.28l-1.2,2.2a24.48,24.48,0,0,1-1.38,2.24,19.38,19.38,0,0,1-3.58,3.94c-.34.29-.7.56-1.07.82l-1.06.72c-.71.48-1.43.93-2.17,1.37q-2.19,1.32-4.51,2.43a45.64,45.64,0,0,1-9.67,3.38,37.28,37.28,0,0,1-10.21.93A34.48,34.48,0,0,1,291,158a37.21,37.21,0,0,1-9.05-4.58,48.78,48.78,0,0,1-7.69-6.48,57.49,57.49,0,0,0,8.11,5.82,40,40,0,0,0,9.05,3.9,36.62,36.62,0,0,0,19.32.25,46.63,46.63,0,0,0,9.15-3.41q2.21-1.08,4.29-2.37c.7-.42,1.39-.87,2.06-1.32l1-.7c.31-.23.61-.46.91-.71a18.43,18.43,0,0,0,3.12-3.47,23.36,23.36,0,0,0,1.25-2l1.2-2.21a77.88,77.88,0,0,1,5.51-8.56,66.18,66.18,0,0,1,32.55-23.58,73.74,73.74,0,0,1,20-3.65A80,80,0,0,1,412,106.5a66.44,66.44,0,0,1,19.09,7,42.45,42.45,0,0,1,8.31,6.09,22.16,22.16,0,0,1,5.81,8.71,11.54,11.54,0,0,1,.37,1.31,8.42,8.42,0,0,1,.24,1.33l.33,2.46c.11.8.31,1.59.46,2.38s.43,1.56.64,2.34a34.76,34.76,0,0,0,4.21,8.72,46.53,46.53,0,0,0,14.09,13.42,68.37,68.37,0,0,0,37.68,10l2.48-.11,2.47-.2c1.66-.14,3.35-.32,5-.37a39,39,0,0,1,10.15.73,20,20,0,0,1,4.87,1.74,12.45,12.45,0,0,1,4,3.35,10.6,10.6,0,0,1,2,4.82,12.86,12.86,0,0,1-.22,5.2Z"/><path class="cls-11" d="M441.27,248.63a.2.2,0,0,0,0,0l0,.07a1.56,1.56,0,0,0,.06.15l.21.37c.19.24.37.51.59.75l.71.74.83.68c.54.46,1.21.82,1.8,1.24s1.32.72,2,1.08,1.38.62,2.07.94a22,22,0,0,0,2.14.83l2.18.77,2.24.64a124.61,124.61,0,0,0,18.42,3.43c1.55.19,3.12.3,4.69.46s3.12.33,4.7.4c3.15.2,6.26.35,9.44.59l4.76.34c1.59.16,3.17.4,4.75.6.78.11,1.58.19,2.36.33l2.35.47a47.12,47.12,0,0,1,4.67,1.08,41,41,0,0,1,4.57,1.44l2.25.86c.75.29,1.45.7,2.17,1.05a24.91,24.91,0,0,1,7.78,5.7,16.91,16.91,0,0,1,4.25,8.65,18.23,18.23,0,0,1,0,4.84,26.91,26.91,0,0,0-.09,4.67c.23,6.32.27,12.65,0,19a88.16,88.16,0,0,1-1,9.45,33.24,33.24,0,0,1-1.06,4.62,8.89,8.89,0,0,1-2.29,4.09,8.93,8.93,0,0,0,2.2-4.12,31.58,31.58,0,0,0,1-4.62,85.17,85.17,0,0,0,.75-9.43c.2-6.31,0-12.63-.33-18.92a29.59,29.59,0,0,1,0-4.8,16.84,16.84,0,0,0-.07-4.6,15.86,15.86,0,0,0-4.15-8,24,24,0,0,0-7.52-5.27c-.71-.32-1.38-.71-2.11-1l-2.2-.79a40.38,40.38,0,0,0-4.48-1.31c-12.16-3.09-24.91-2.12-37.58-3.47a127,127,0,0,1-18.87-3.13l-2.34-.61-2.3-.76a21.79,21.79,0,0,1-2.29-.85c-.75-.32-1.52-.59-2.26-1s-1.48-.74-2.21-1.15-1.44-.86-2.12-1.4l-1-.81-1-.95a12.46,12.46,0,0,1-.88-1.1,5.34,5.34,0,0,1-.75-1.57Z"/><path class="cls-12" d="M488.25,262.43s20.44,3.18,18,35.67"/><path class="cls-11" d="M498.54,465.12a25.92,25.92,0,0,0,1.42-4.45,23.58,23.58,0,0,0,.58-4.66,16.59,16.59,0,0,0-.63-4.64,12.74,12.74,0,0,0-2.25-4.14,13,13,0,0,1,2.49,4.06A16.78,16.78,0,0,1,501,456a23.51,23.51,0,0,1-.35,4.81,27,27,0,0,1-1.23,4.69Z"/><path class="cls-11" d="M509.69,263.92a9.69,9.69,0,0,1,9,9.31c0,.29.07.57.08.86l0,.86a13.94,13.94,0,0,1-.1,1.72c-.15,1.14-.33,2.27-.5,3.35a30.53,30.53,0,0,0-.07,6.69c.4,4.47,1.62,8.83,2.21,13.31a19.19,19.19,0,0,1-.14,6.76,11.65,11.65,0,0,1-3.33,5.79,11.56,11.56,0,0,0,3.21-5.82,19,19,0,0,0,0-6.69c-.67-4.44-2-8.79-2.45-13.3a31,31,0,0,1-.06-6.81c.16-1.14.31-2.25.43-3.34A11.53,11.53,0,0,0,518,275v-.83c0-.27-.06-.54-.09-.81a8.8,8.8,0,0,0-8.29-8.39Z"/><path class="cls-11" d="M517.42,392.81c.89-1.06,1.79-1.86,2.68-2.78s1.76-1.81,2.6-2.75a34.08,34.08,0,0,0,4.46-6,13.7,13.7,0,0,0,1.39-3.47,12.69,12.69,0,0,0-.88-7.36,6.63,6.63,0,0,0-2.46-2.81,6.6,6.6,0,0,1,2.55,2.76,12.89,12.89,0,0,1,1.12,7.48,14.11,14.11,0,0,1-1.3,3.62,35.41,35.41,0,0,1-4.32,6.31c-.82,1-1.67,1.93-2.53,2.87s-1.79,1.87-2.5,2.77Z"/><path class="cls-11" d="M475.48,434.19a6.15,6.15,0,0,0,1.54-1.41,8.34,8.34,0,0,0,.65-.88c.18-.32.38-.63.54-1a14.18,14.18,0,0,0,1.32-4.26,18.66,18.66,0,0,0,.26-2.25c0-.75,0-1.51,0-2.27s-.08-1.52-.14-2.28l-.28-2.26.4,2.25c.11.76.18,1.52.27,2.28s.08,1.53.08,2.3a22.18,22.18,0,0,1-.14,2.3,15.11,15.11,0,0,1-1.14,4.51c-.16.36-.35.71-.52,1.06s-.4.69-.65,1a6.89,6.89,0,0,1-1.75,1.74Z"/><path class="cls-11" d="M392,353.39a21.88,21.88,0,0,0,1,3.38,19,19,0,0,0,1.55,3.21,13.24,13.24,0,0,0,2.22,2.78,8.73,8.73,0,0,0,3.06,1.83,8.91,8.91,0,0,1-3.23-1.64,14.09,14.09,0,0,1-2.47-2.7,19.65,19.65,0,0,1-1.82-3.18,24,24,0,0,1-1.32-3.46Z"/><path class="cls-11" d="M321,402.46a5.46,5.46,0,0,1-.8,2.87,4.51,4.51,0,0,1-2.26,1.81,7.2,7.2,0,0,1-2.79.38c-.46,0-.92-.07-1.38-.14l-1.35-.27,1.37.15c.45,0,.91,0,1.36,0a6.82,6.82,0,0,0,2.59-.59,3.9,3.9,0,0,0,1.81-1.73,4.52,4.52,0,0,0,.45-2.41Z"/><path class="cls-13" d="M256.54,490c-1.52.08-2.92,1.45-3.3,3.49s.26,4.52,5,5.45c8.62,1.7,30.79,1.7,33.25,0s3.69-6.8-2.46-6.8C283.75,492.15,263.13,489.66,256.54,490Z"/><path class="cls-11" d="M256.57,490.53a2.73,2.73,0,0,0-2,1.15,4.6,4.6,0,0,0-.92,2.32,3.46,3.46,0,0,0,.53,2.35,4.73,4.73,0,0,0,2,1.53,11.63,11.63,0,0,0,2.6.74q1.37.25,2.76.42c1.85.24,3.71.4,5.58.53,3.73.25,7.48.37,11.23.35a80,80,0,0,0,11.18-.64,10.61,10.61,0,0,0,1.32-.32,2.6,2.6,0,0,0,1.06-.73,4.68,4.68,0,0,0,1.25-2.32,2.65,2.65,0,0,0-.62-2.4,4,4,0,0,0-2.38-1c-3.7-.1-7.5-.4-11.23-.71s-7.48-.61-11.22-.87S260.25,490.39,256.57,490.53Zm-.05-1a111.47,111.47,0,0,1,11.3.59L279,491.13c3.75.35,7.44.68,11.24.84a4.56,4.56,0,0,1,2.67,1.19,3.17,3.17,0,0,1,.72,2.84,5.18,5.18,0,0,1-1.36,2.57,3,3,0,0,1-1.24.85,8.72,8.72,0,0,1-1.4.36,82,82,0,0,1-11.27.75c-3.76,0-7.52,0-11.28-.23-1.87-.1-3.75-.23-5.63-.44-.94-.1-1.88-.23-2.81-.39a12.84,12.84,0,0,1-2.81-.75,5.81,5.81,0,0,1-2.44-1.81,4.39,4.39,0,0,1-.74-3,5.62,5.62,0,0,1,1.08-2.86A3.84,3.84,0,0,1,256.52,489.48Z"/><path class="cls-14" d="M527.58,431.88c.67,1.95,3.45,2.06,6.22.25s4.46-4.85,3.79-6.8-2,.38-4.76,2.19S526.91,429.93,527.58,431.88Z"/><path class="cls-11" d="M528.21,431.66a1.47,1.47,0,0,0,.85.84,2.93,2.93,0,0,0,1.4.11,7.63,7.63,0,0,0,2.93-1.23,9.74,9.74,0,0,0,2.42-2.24,5.63,5.63,0,0,0,1.23-2.85,2.2,2.2,0,0,0-.06-.69c0-.21-.19-.45-.14-.39s0,0-.23.12a5.7,5.7,0,0,0-.66.46A27.71,27.71,0,0,1,533,428c-1,.67-2.17,1.19-3.2,1.77a6.8,6.8,0,0,0-1.35.93A.78.78,0,0,0,528.21,431.66Zm-1.26.43a2.1,2.1,0,0,1,0-1.29,2.36,2.36,0,0,1,.7-1,7.44,7.44,0,0,1,1.67-1,26,26,0,0,0,3.15-1.66,26.87,26.87,0,0,0,2.74-2.24,6.44,6.44,0,0,1,.78-.62,2.66,2.66,0,0,1,.56-.27,1.26,1.26,0,0,1,.9.08,1.91,1.91,0,0,1,.8,1.11,3.44,3.44,0,0,1,.17,1.09,6.61,6.61,0,0,1-1.32,3.77,10.73,10.73,0,0,1-2.77,2.73,7.8,7.8,0,0,1-3.72,1.37,4.27,4.27,0,0,1-2.14-.34A2.91,2.91,0,0,1,527,432.09Z"/><path class="cls-15" d="M175.64,197.31c-1.24-5.33-4.82-4.27-5.38,1.6-1,10.12,0,13,2.78,9.92,3.47-3.84,3.47-7.68,2.6-11.52Z"/><path class="cls-14" d="M495.89,357.79s-16,13.61-1.23,13.61a21.83,21.83,0,0,0,12.88-3.88c5-3.54,3.59-14.16-2.06-14.59C502.77,352.72,499.53,353.88,495.89,357.79Z"/><path class="cls-11" d="M496.42,358.34c-1.07.87-2,1.72-2.95,2.64a27.64,27.64,0,0,0-2.65,2.87,10.49,10.49,0,0,0-1.92,3.3,3,3,0,0,0,0,1.77,2.24,2.24,0,0,0,1.13,1.26,9.4,9.4,0,0,0,3.69.69,24.14,24.14,0,0,0,3.89-.18,21.21,21.21,0,0,0,7.34-2.32,12.64,12.64,0,0,0,3.06-2.14,7.09,7.09,0,0,0,1.61-3.2,9.66,9.66,0,0,0-1-7.07,4.34,4.34,0,0,0-2.52-2c-.27,0-.51-.13-.8-.14a6.61,6.61,0,0,0-.89,0,7.19,7.19,0,0,0-1.76.33,12.1,12.1,0,0,0-3.28,1.67A20.13,20.13,0,0,0,496.42,358.34Zm-1.06-1.1a16.08,16.08,0,0,1,6.74-4.76,9.74,9.74,0,0,1,2.15-.42,10.07,10.07,0,0,1,1.1,0,8,8,0,0,1,1.16.19,6,6,0,0,1,3.51,2.84,11.26,11.26,0,0,1,1,8.32,8.58,8.58,0,0,1-2,3.78,14.22,14.22,0,0,1-3.47,2.34,22.44,22.44,0,0,1-7.82,2.25,25,25,0,0,1-4.06.09,9.46,9.46,0,0,1-4-1.05,3.27,3.27,0,0,1-1.39-1.69,4.12,4.12,0,0,1,0-2.15,12.93,12.93,0,0,1,1.83-3.68A36.61,36.61,0,0,1,495.36,357.24Z"/><path class="cls-13" d="M269.33,441.13s-7.39,0-3.7,5.1c2.14,2.95,5.5,3.06,8,2.62,1.94-.34,2.25-4,.43-5C273,443.25,271.44,441.13,269.33,441.13Z"/><path class="cls-11" d="M269.33,441.68a7.82,7.82,0,0,0-3.29.68,1.74,1.74,0,0,0-.93,1,2.31,2.31,0,0,0,.23,1.47,6.71,6.71,0,0,0,2.15,2.63,6.63,6.63,0,0,0,3.22,1.13,9.51,9.51,0,0,0,1.77,0c.29,0,.58-.05.88-.1a1.33,1.33,0,0,0,.69-.25,2.75,2.75,0,0,0,.64-2.94,1.89,1.89,0,0,0-.94-1.14,14,14,0,0,1-1.5-1.17A4.73,4.73,0,0,0,269.33,441.68Zm0-1.11a5.66,5.66,0,0,1,3.54,1.73,13.86,13.86,0,0,0,1.33,1.13,2.77,2.77,0,0,1,1.26,1.67,4.23,4.23,0,0,1,.07,2,2.94,2.94,0,0,1-1.06,1.76,2.33,2.33,0,0,1-1,.38l-.93.12a10,10,0,0,1-1.89,0,7.38,7.38,0,0,1-3.61-1.22,7.51,7.51,0,0,1-2.52-2.9,3.26,3.26,0,0,1-.33-2.07,2.7,2.7,0,0,1,1.35-1.69A8.24,8.24,0,0,1,269.33,440.57Z"/><path class="cls-11" d="M144.55,230.77a5.57,5.57,0,0,0-2,.86,9.45,9.45,0,0,0-1.68,1.57,6.85,6.85,0,0,0-1.91,3.94,4.47,4.47,0,0,0,2,3.57,9.7,9.7,0,0,0,4.23,1.92c3.13.56,6.44-.35,9.44-1.69a31.71,31.71,0,0,0,8.27-5.47,4.65,4.65,0,0,0,.38-.42,2.88,2.88,0,0,1,.56-.54,7,7,0,0,1,1.19-.69,13.7,13.7,0,0,0,2.15-1.17,3.72,3.72,0,0,0,1.46-4,12.56,12.56,0,0,0-1.85-4.45,3.86,3.86,0,0,0-1.69-1.39,2.5,2.5,0,0,0-2,.23,6.76,6.76,0,0,0-1.79,1.48c-.27.3-.5.62-.75,1a4.28,4.28,0,0,1-1.16,1,23.42,23.42,0,0,1-4.87,1.91C151.21,229.35,147.88,230.08,144.55,230.77Zm-.32-1.66c3.33-.59,6.65-1.22,9.89-2.08a22,22,0,0,0,4.62-1.65,5.4,5.4,0,0,0,.47-.3c.15-.1.21-.21.34-.31.28-.35.55-.7.86-1a7.82,7.82,0,0,1,2.15-1.69,3.71,3.71,0,0,1,2.89-.23,4.91,4.91,0,0,1,2.17,1.78,13.25,13.25,0,0,1,2,4.89,5.53,5.53,0,0,1-.14,2.76,4.56,4.56,0,0,1-1.69,2.23,14.34,14.34,0,0,1-2.3,1.29,5.86,5.86,0,0,0-1,.59c-.18.11-.2.19-.35.34a6.3,6.3,0,0,1-.47.53,33.4,33.4,0,0,1-8.49,5.9,23.33,23.33,0,0,1-4.93,1.76,14,14,0,0,1-5.33.26,11.2,11.2,0,0,1-5-2.12,7.88,7.88,0,0,1-2-2.06,5.36,5.36,0,0,1-.83-2.89,8.48,8.48,0,0,1,2.37-5.07c.3-.34.61-.65.94-1a8.6,8.6,0,0,1,1.12-.87A7.45,7.45,0,0,1,144.23,229.11Z"/><path class="cls-13" d="M258.12,449.15c-2-.55-3.46,2.54-2.27,4.75.77,1.46,1.94,2.38,3.62.83,3.7-3.4,0-5.1,0-5.1A9.43,9.43,0,0,0,258.12,449.15Z"/><path class="cls-11" d="M258,449.63a1.44,1.44,0,0,0-1.55.61,3.26,3.26,0,0,0-.68,2,3.4,3.4,0,0,0,.67,2,1.66,1.66,0,0,0,1.59.92,3.41,3.41,0,0,0,1.65-1.21,3.62,3.62,0,0,0,.94-1.8,1.78,1.78,0,0,0-.72-1.61A2.42,2.42,0,0,0,259,450Zm.27-1,1.17.4a2,2,0,0,1,.61.28,4.11,4.11,0,0,1,.54.39,2.77,2.77,0,0,1,1,2.53,4.5,4.5,0,0,1-1.28,2.25,4,4,0,0,1-2.17,1.36,1.9,1.9,0,0,1-1.36-.34,3.59,3.59,0,0,1-.88-1,4.34,4.34,0,0,1-.77-2.37,4.39,4.39,0,0,1,.66-2.45,2.49,2.49,0,0,1,1-.94A2.19,2.19,0,0,1,258.25,448.67Z"/><path class="cls-14" d="M363.77,287.51c-1.87-.47-3.22,2.35-2.17,4.55.77,1.61,2,2.74,3.77,1.1,3.69-3.4,0-5.1,0-5.1A9.42,9.42,0,0,0,363.77,287.51Z"/><path class="cls-11" d="M363.71,287.75a1.58,1.58,0,0,0-1.65.9,3.45,3.45,0,0,0-.37,2.05,4.42,4.42,0,0,0,.82,1.94c.41.58.91,1,1.47.82a4.14,4.14,0,0,0,1.7-1.19,3.46,3.46,0,0,0,1-1.85,2.15,2.15,0,0,0-.89-1.82A5,5,0,0,0,363.71,287.75Zm.12-.47a12,12,0,0,1,1.15.39,4.33,4.33,0,0,1,1.11.57,2.7,2.7,0,0,1,1.22,2.22,4,4,0,0,1-1,2.34,4.45,4.45,0,0,1-2.08,1.58,2.06,2.06,0,0,1-1.5-.21,3.07,3.07,0,0,1-1-1,5.69,5.69,0,0,1-.61-1.14,3.65,3.65,0,0,1-.28-1.3,4.06,4.06,0,0,1,.67-2.49,2.6,2.6,0,0,1,1-.89A1.92,1.92,0,0,1,363.83,287.28Z"/><path class="cls-11" d="M238.21,441.9a.68.68,0,0,0-.77.28,1.74,1.74,0,0,0-.43,1.11,2,2,0,0,0,.4,1.17c.24.37.57.57.85.49a1.94,1.94,0,0,0,.9-.72,2.09,2.09,0,0,0,.52-1,.93.93,0,0,0-.38-.81,1.52,1.52,0,0,0-.48-.28Zm.27-1,.74.25a2,2,0,0,1,.76.45,1.9,1.9,0,0,1,.67,1.73,2.76,2.76,0,0,1-.85,1.46,2.65,2.65,0,0,1-1.43.87,1.3,1.3,0,0,1-.93-.25,2.08,2.08,0,0,1-.57-.62,2.8,2.8,0,0,1-.49-1.52,3,3,0,0,1,.4-1.6A1.58,1.58,0,0,1,238.48,440.93Z"/><path class="cls-11" d="M231.2,438.14l-.84-.14a2.92,2.92,0,0,0-.72,0c-.23.05-.27.09-.27.13s0,.32.15.53a3,3,0,0,0,2.45,1.68,4.48,4.48,0,0,0,.82,0,2.42,2.42,0,0,0,.7-.13,1.12,1.12,0,0,0,.31-1.17.84.84,0,0,0-.31-.49,2.26,2.26,0,0,0-.65-.25,5,5,0,0,0-.77-.13c-.13,0-.27,0-.4,0Zm.13-1.1a6.29,6.29,0,0,1,1.81.32,3.37,3.37,0,0,1,.92.5,1.72,1.72,0,0,1,.53,1,2.49,2.49,0,0,1-.07,1.05,1.49,1.49,0,0,1-.68.9,2.79,2.79,0,0,1-1,.22,5.78,5.78,0,0,1-.93,0,3.85,3.85,0,0,1-3.17-2,1.76,1.76,0,0,1-.3-1.12,1,1,0,0,1,.4-.67,1.41,1.41,0,0,1,.58-.26,3.61,3.61,0,0,1,1-.1A5.4,5.4,0,0,1,231.33,437Z"/><path class="cls-16" d="M558,408.08a1.7,1.7,0,0,0-2.55,1.06,2.8,2.8,0,0,0,1.49,3c1.11.55.61-.5.9-1.63S559.14,408.63,558,408.08Z"/><path class="cls-11" d="M557.94,408.26a1.72,1.72,0,0,0-1.31-.1,1.38,1.38,0,0,0-.86.9,2.47,2.47,0,0,0,.7,2.52,2.56,2.56,0,0,0,.56.42c.2.11.47.18.47.12a1.82,1.82,0,0,0,.1-.63,5,5,0,0,1,.08-.77,6.6,6.6,0,0,1,.55-1.45,1.07,1.07,0,0,0,.13-.62A.66.66,0,0,0,557.94,408.26Zm.17-.35a1,1,0,0,1,.59.66,1.37,1.37,0,0,1-.18.83,5.57,5.57,0,0,0-.54,1.37,5.83,5.83,0,0,0-.06.73,1.58,1.58,0,0,1-.14.84.48.48,0,0,1-.53.14,2.26,2.26,0,0,1-.39-.15,2.72,2.72,0,0,1-.67-.45,2.93,2.93,0,0,1-.89-3,1.87,1.87,0,0,1,1.19-1.17A2.16,2.16,0,0,1,558.11,407.91Z"/><path class="cls-14" d="M497.61,378.11s-2.54,1-1.06,2.19a1.69,1.69,0,0,0,1.55.35c.74-.2,1.33-2.1.8-2.61C498.64,377.79,498.24,377.73,497.61,378.11Z"/><path class="cls-11" d="M497.75,378.4a5.31,5.31,0,0,0-1,.44c-.3.18-.58.48-.5.78a1.57,1.57,0,0,0,1.63.8c.29-.05.44-.28.6-.59a2.45,2.45,0,0,0,.25-1,1.16,1.16,0,0,0,0-.43.27.27,0,0,0-.15-.18A1,1,0,0,0,497.75,378.4Zm-.29-.59a1.54,1.54,0,0,1,1.38-.25,1,1,0,0,1,.57.65,1.58,1.58,0,0,1,0,.71,3.34,3.34,0,0,1-.4,1.2,2,2,0,0,1-.41.53,1.19,1.19,0,0,1-.66.31,1.93,1.93,0,0,1-1.27-.27,1.45,1.45,0,0,1-.77-1,1.57,1.57,0,0,1,.56-1.14A4.09,4.09,0,0,1,497.46,377.81Z"/><path class="cls-14" d="M503.7,377.59s4.13-2,2.23-3.88a2,2,0,0,0-2.24-.48c-1.19.42-2.62,3.75-2,4.59C502,378.22,502.63,378.29,503.7,377.59Z"/><path class="cls-11" d="M503.54,377.3a8.5,8.5,0,0,0,1.62-.9,2.49,2.49,0,0,0,1.08-1.39,1.47,1.47,0,0,0-.77-1.38,1.77,1.77,0,0,0-1.6-.17,2.55,2.55,0,0,0-1.14,1.21,6.35,6.35,0,0,0-.67,1.67c-.15.55-.21,1.24.07,1.35S503,377.64,503.54,377.3Zm.32.57a4.39,4.39,0,0,1-.89.49,1.41,1.41,0,0,1-1.23,0,1.05,1.05,0,0,1-.45-.54,1.46,1.46,0,0,1-.1-.6,3.76,3.76,0,0,1,.17-1,6.92,6.92,0,0,1,.83-1.81,3,3,0,0,1,1.52-1.4,2.26,2.26,0,0,1,2,.3,2.62,2.62,0,0,1,.7.78,1.51,1.51,0,0,1,.11,1.06,4,4,0,0,1-1.13,1.62A8.71,8.71,0,0,1,503.86,377.87Z"/><path class="cls-13" d="M502.78,448.86s-2.33,0-1.16,1.61a2.42,2.42,0,0,0,2.51.82c.61-.11.71-1.26.13-1.58C503.92,449.52,503.45,448.86,502.78,448.86Z"/><path class="cls-11" d="M502.78,449a2.52,2.52,0,0,0-1.06.22.58.58,0,0,0-.23.85,2,2,0,0,0,1.72,1.2,2.25,2.25,0,0,0,1.08-.11.92.92,0,0,0,.21-1,.63.63,0,0,0-.3-.38,3.66,3.66,0,0,1-.47-.37A1.57,1.57,0,0,0,502.78,449Zm0-.25a1.77,1.77,0,0,1,1.09.53,4.56,4.56,0,0,0,.43.36.83.83,0,0,1,.38.5,1.08,1.08,0,0,1-.3,1.15,2.31,2.31,0,0,1-1.18.16,2.28,2.28,0,0,1-1.9-1.29,1,1,0,0,1-.1-.63.8.8,0,0,1,.41-.5A2.55,2.55,0,0,1,502.78,448.73Z"/><path class="cls-13" d="M429.4,510.86s-7.39,0-3.7,5.1c2.14,2.95,5.51,3.06,8,2.63,1.94-.35,2.25-4,.43-5C433,513,431.52,510.86,429.4,510.86Z"/><path class="cls-11" d="M429.4,511.42a7.66,7.66,0,0,0-3.29.67,1.74,1.74,0,0,0-.93,1,2.38,2.38,0,0,0,.23,1.47,6.29,6.29,0,0,0,5.38,3.76,10.34,10.34,0,0,0,1.76,0c.29,0,.59-.06.88-.11a1.36,1.36,0,0,0,.7-.25,2.79,2.79,0,0,0,.64-2.94,1.92,1.92,0,0,0-.94-1.14,12.19,12.19,0,0,1-1.51-1.17A4.69,4.69,0,0,0,429.4,511.42Zm0-1.12a5.64,5.64,0,0,1,3.54,1.73,13.9,13.9,0,0,0,1.34,1.13,2.81,2.81,0,0,1,1.26,1.67,4.23,4.23,0,0,1,.06,2,2.85,2.85,0,0,1-1.06,1.76,2.33,2.33,0,0,1-1,.38c-.3,0-.62.09-.93.12a10.84,10.84,0,0,1-1.89,0,7.5,7.5,0,0,1-3.61-1.23,7.34,7.34,0,0,1-2.51-2.9,3.2,3.2,0,0,1-.34-2.07,2.71,2.71,0,0,1,1.36-1.69A8.2,8.2,0,0,1,429.4,510.3Z"/><path class="cls-13" d="M435.06,506.68s-2.33,0-1.17,1.61a2.42,2.42,0,0,0,2.51.83c.62-.11.71-1.26.14-1.58C436.2,507.35,435.72,506.68,435.06,506.68Z"/><path class="cls-11" d="M435.06,506.93a2.56,2.56,0,0,0-1,.2c-.28.14-.34.38-.19.71A1.93,1.93,0,0,0,435.5,509a2.53,2.53,0,0,0,.55,0,1.13,1.13,0,0,0,.47-.1.82.82,0,0,0,.17-.87.53.53,0,0,0-.27-.33,4,4,0,0,1-.48-.37A1.46,1.46,0,0,0,435.06,506.93Zm0-.5a1.89,1.89,0,0,1,1.16.57,3.2,3.2,0,0,0,.41.36,1,1,0,0,1,.42.56,1.18,1.18,0,0,1-.34,1.24,1.43,1.43,0,0,1-.64.17,3,3,0,0,1-.6,0,2.37,2.37,0,0,1-2-1.32,1,1,0,0,1-.11-.7.9.9,0,0,1,.45-.57A2.58,2.58,0,0,1,435.06,506.43Z"/><path class="cls-13" d="M464.61,498.18s-2.33,0-1.17,1.61a2.42,2.42,0,0,0,2.52.82c.61-.1.71-1.26.13-1.57C465.75,498.85,465.28,498.18,464.61,498.18Z"/><path class="cls-11" d="M464.61,498.43a2.56,2.56,0,0,0-1,.19.48.48,0,0,0-.19.71,1.92,1.92,0,0,0,1.64,1.16,3.35,3.35,0,0,0,.55,0,1.13,1.13,0,0,0,.47-.1.82.82,0,0,0,.17-.87.5.5,0,0,0-.27-.33,5.4,5.4,0,0,1-.48-.37A1.4,1.4,0,0,0,464.61,498.43Zm0-.5a1.86,1.86,0,0,1,1.16.57,3.07,3.07,0,0,0,.41.35,1,1,0,0,1,.42.56,1.19,1.19,0,0,1-.34,1.25,1.33,1.33,0,0,1-.63.16,3.11,3.11,0,0,1-.61,0,2.38,2.38,0,0,1-2-1.33,1.05,1.05,0,0,1-.11-.69.93.93,0,0,1,.45-.58A2.72,2.72,0,0,1,464.61,497.93Z"/><path class="cls-13" d="M463.17,456a6,6,0,0,0-.48,6.63c1.19,2.07,3.33,2.46,4.79.87s-.19-1.92-1.38-4S464.62,454.42,463.17,456Z"/><path class="cls-11" d="M463.38,456.21a5.67,5.67,0,0,0-.83,5.17,4.5,4.5,0,0,0,1.4,2.24,2.3,2.3,0,0,0,2.39.37,3,3,0,0,0,1-.79c.3-.35.5-.71.36-1a4.65,4.65,0,0,0-.8-1.09,8.82,8.82,0,0,1-.88-1.2,16.76,16.76,0,0,1-1.23-2.66,4.2,4.2,0,0,0-.64-1.19c-.14-.17-.24-.19-.36-.15A1.24,1.24,0,0,0,463.38,456.21Zm-.43-.39a1.84,1.84,0,0,1,.72-.49.86.86,0,0,1,.91.34,5,5,0,0,1,.69,1.36,14.28,14.28,0,0,0,1.16,2.61,9,9,0,0,0,.87,1.11,4.76,4.76,0,0,1,.92,1.22,1.24,1.24,0,0,1,0,.89,2.33,2.33,0,0,1-.42.7,3.55,3.55,0,0,1-1.22,1,3,3,0,0,1-3.06-.38,5.12,5.12,0,0,1-1.69-2.56A6.13,6.13,0,0,1,463,455.82Z"/><path class="cls-16" d="M387.72,268.4c.38,1.12,2,1.19,3.58.15s2.58-2.8,2.19-3.93-1.15.22-2.74,1.27S387.33,267.28,387.72,268.4Z"/><path class="cls-11" d="M388,268.3a1.2,1.2,0,0,0,1.4.63,4.23,4.23,0,0,0,1.75-.72,4.44,4.44,0,0,0,2.13-3,1.5,1.5,0,0,0,0-.42.92.92,0,0,0-.13-.27s-.08,0-.21.08a2.37,2.37,0,0,0-.39.28,16.79,16.79,0,0,1-1.68,1.27c-.6.38-1.24.69-1.84,1S387.76,267.85,388,268.3Zm-.55.19a1.16,1.16,0,0,1,0-.69,1.32,1.32,0,0,1,.38-.53,4.68,4.68,0,0,1,.94-.58c.62-.32,1.25-.59,1.82-1a15.77,15.77,0,0,0,1.58-1.3,4.07,4.07,0,0,1,.45-.34.75.75,0,0,1,.76-.11,1,1,0,0,1,.42.6,2.08,2.08,0,0,1,.09.6,3.82,3.82,0,0,1-.77,2.11,6,6,0,0,1-1.56,1.54,4.65,4.65,0,0,1-2.09.78,2.36,2.36,0,0,1-1.19-.18A1.58,1.58,0,0,1,387.44,268.49Z"/><path class="cls-14" d="M366.83,287a2,2,0,0,0-.7-2c-.64-.58-1.36-.64-1.61-.12s.31.57.94,1.15S366.58,287.51,366.83,287Z"/><path class="cls-11" d="M366.65,286.91a1.68,1.68,0,0,0-.49-1.51,2.14,2.14,0,0,0-.65-.55.67.67,0,0,0-.68,0,.48.48,0,0,0-.18.26c0,.07,0,.13.15.23a9.45,9.45,0,0,1,.76.6c.24.23.45.47.66.71a2.24,2.24,0,0,0,.33.3s.11.06.09,0S366.63,287,366.65,286.91Zm.35.17a.41.41,0,0,1-.32.25.43.43,0,0,1-.34-.13,3.1,3.1,0,0,1-.36-.37,8.47,8.47,0,0,0-.63-.7c-.23-.2-.49-.34-.77-.54a.6.6,0,0,1-.3-.56.87.87,0,0,1,.3-.53,1.1,1.1,0,0,1,1.13-.06,2.29,2.29,0,0,1,.83.64A2,2,0,0,1,367,287.08Z"/><path class="cls-15" d="M386.59,261.21c1.55-4.55-1.47-7.38-4.53-4.25-5.26,5.39-5.88,8.14-2.53,8.93,4.19,1,5.94-1.43,7.06-4.68Z"/><path class="cls-17" d="M297.15,498.18s-2.33,0-1.17,1.61a2.41,2.41,0,0,0,2.51.82c.62-.1.71-1.26.14-1.57C298.29,498.85,297.82,498.18,297.15,498.18Z"/><path class="cls-11" d="M297.15,498.43a2.56,2.56,0,0,0-1,.19.48.48,0,0,0-.19.71,1.92,1.92,0,0,0,1.64,1.16,3.35,3.35,0,0,0,.55,0,1.13,1.13,0,0,0,.47-.1.82.82,0,0,0,.17-.87.5.5,0,0,0-.27-.33,5.4,5.4,0,0,1-.48-.37A1.4,1.4,0,0,0,297.15,498.43Zm0-.5a1.86,1.86,0,0,1,1.16.57,3.07,3.07,0,0,0,.41.35,1,1,0,0,1,.42.56,1.19,1.19,0,0,1-.34,1.25,1.37,1.37,0,0,1-.64.16,3,3,0,0,1-.6,0,2.38,2.38,0,0,1-2-1.33,1.05,1.05,0,0,1-.11-.69.93.93,0,0,1,.45-.58A2.69,2.69,0,0,1,297.15,497.93Z"/><path class="cls-18" d="M315.62,401.23s-2.33,0-1.17,1.61a2.42,2.42,0,0,0,2.51.83c.62-.11.71-1.26.14-1.58C316.76,401.9,316.29,401.23,315.62,401.23Z"/><path class="cls-11" d="M315.62,401.48a2.56,2.56,0,0,0-1,.2c-.28.14-.34.38-.19.71a1.93,1.93,0,0,0,1.64,1.16,2.53,2.53,0,0,0,.55,0,1,1,0,0,0,.47-.1.82.82,0,0,0,.17-.87.53.53,0,0,0-.27-.33,4,4,0,0,1-.48-.37A1.46,1.46,0,0,0,315.62,401.48Zm0-.5a1.86,1.86,0,0,1,1.16.57,3.2,3.2,0,0,0,.41.36.91.91,0,0,1,.42.56,1.17,1.17,0,0,1-.34,1.24,1.39,1.39,0,0,1-.64.17,4,4,0,0,1-.6,0,2.38,2.38,0,0,1-2-1.33,1.05,1.05,0,0,1-.11-.69.93.93,0,0,1,.45-.58A2.58,2.58,0,0,1,315.62,401Z"/><path class="cls-19" d="M436.37,457.37a1.19,1.19,0,0,0,1-1c.09-.56-.14-1.2-1.59-1.32-2.64-.21-9.38.42-10.1.94s-1,1.92.83,1.75C428.08,457.57,434.37,457.65,436.37,457.37Z"/><path class="cls-11" d="M436.3,456.85a.72.72,0,0,0,.54-.69.37.37,0,0,0-.14-.36,1.22,1.22,0,0,0-.56-.25,18.13,18.13,0,0,0-3.25-.15c-1.12,0-2.24.07-3.35.16a21.14,21.14,0,0,0-3.3.45c-.27.08-.47.11-.62.3a1,1,0,0,0-.31.6c-.07.44.43.61.95.57,1.11-.09,2.25-.12,3.37-.18C431.86,457.18,434.16,457.14,436.3,456.85Zm.14,1c-2.33.17-4.54.06-6.8.05-1.13,0-2.23,0-3.36,0a1.86,1.86,0,0,1-.94-.18.92.92,0,0,1-.49-.93,1.58,1.58,0,0,1,.42-.89,1.28,1.28,0,0,1,.41-.3,4.59,4.59,0,0,1,.44-.15,51.36,51.36,0,0,1,6.74-.87,19.12,19.12,0,0,1,3.47,0,2.28,2.28,0,0,1,1,.4,1.38,1.38,0,0,1,.54,1.12A1.69,1.69,0,0,1,436.44,457.89Z"/><path class="cls-14" d="M385.76,348s7.36,2.42,3.16-3.39a11.67,11.67,0,0,0-4.46-4c-2.17-1-3.94,2.62-2.42,5A5.27,5.27,0,0,0,385.76,348Z"/><path class="cls-11" d="M386,347.26a15.35,15.35,0,0,0,1.49.5,5.46,5.46,0,0,0,1.46.25c.47,0,.87-.11,1-.45a1.81,1.81,0,0,0-.35-1.32,15.39,15.39,0,0,0-4.27-4.42c-.21-.13-.43-.25-.65-.36a2.35,2.35,0,0,0-.6-.23,1,1,0,0,0-.89.25,2.89,2.89,0,0,0-.77,2.29,2.75,2.75,0,0,0,.35,1.18,4.12,4.12,0,0,0,.8,1.05A5.05,5.05,0,0,0,386,347.26Zm-.37,1.48c-2.24-.23-4.87-2.08-4.95-4.89a4.45,4.45,0,0,1,1.54-3.53,2.42,2.42,0,0,1,2.15-.44,3.83,3.83,0,0,1,.88.4,7,7,0,0,1,.74.46,12.16,12.16,0,0,1,2.46,2.34,10.74,10.74,0,0,1,1.76,2.84,3.88,3.88,0,0,1,.36,1.78,1.31,1.31,0,0,1-.61.9,2.46,2.46,0,0,1-.92.34A8.75,8.75,0,0,1,385.58,348.74Z"/><path class="cls-14" d="M342.34,347.51s4.56-3.45.14-2.73a9.76,9.76,0,0,0-3.78,1.39,1.46,1.46,0,0,0,.86,2.76A5,5,0,0,0,342.34,347.51Z"/><path class="cls-11" d="M342.13,347.26a12,12,0,0,0,1.6-1.29,1.76,1.76,0,0,0,.53-.78c.07-.25-.29-.36-.62-.35a11.09,11.09,0,0,0-3.91,1.06q-.45.24-.87.51a1.66,1.66,0,0,0-.55.66,1,1,0,0,0,.45,1.36,2.17,2.17,0,0,0,1.71-.12A6,6,0,0,0,342.13,347.26Zm.42.5a6,6,0,0,1-1.8,1.23,4.14,4.14,0,0,1-1.11.3,2.07,2.07,0,0,1-1.23-.22,1.75,1.75,0,0,1-.68-2.26,2.18,2.18,0,0,1,.81-.89,8.82,8.82,0,0,1,1-.51,10.53,10.53,0,0,1,2-.68,7.18,7.18,0,0,1,2.13-.2,2,2,0,0,1,.56.13.55.55,0,0,1,.33.56,2.36,2.36,0,0,1-.51,1A11.37,11.37,0,0,1,342.55,347.76Z"/><path class="cls-14" d="M336.3,350.89s-2.53,1-1.06,2.2a1.72,1.72,0,0,0,1.55.35c.75-.2,1.34-2.1.81-2.62C337.34,350.58,336.94,350.52,336.3,350.89Z"/><path class="cls-11" d="M336.45,351.19a5,5,0,0,0-1,.44c-.3.18-.58.48-.5.78a1.56,1.56,0,0,0,1.63.79c.28,0,.44-.27.6-.59a2.78,2.78,0,0,0,.25-1,1.4,1.4,0,0,0,0-.43.29.29,0,0,0-.15-.19A1,1,0,0,0,336.45,351.19Zm-.29-.59a1.48,1.48,0,0,1,1.38-.25,1,1,0,0,1,.57.65,1.88,1.88,0,0,1,0,.7,3.34,3.34,0,0,1-.41,1.21,2,2,0,0,1-.4.53,1.19,1.19,0,0,1-.67.31,1.9,1.9,0,0,1-1.26-.27,1.45,1.45,0,0,1-.77-1,1.56,1.56,0,0,1,.55-1.14A4.36,4.36,0,0,1,336.16,350.6Z"/><path class="cls-16" d="M584.27,221.4s-22.83-19.76-9.61,6.13c5,9.87,9.89,16.18,14,20.21,6.72,6.66,12.07-2.34,7.29-12.5A34.69,34.69,0,0,0,584.27,221.4Z"/><path class="cls-11" d="M583.81,222c-1.51-1.34-3-2.54-4.58-3.73a29,29,0,0,0-4.9-3.09,4.45,4.45,0,0,0-2.58-.53c-.74.16-.92,1.17-.83,2.09a11.61,11.61,0,0,0,.62,2.81,24.45,24.45,0,0,0,1.06,2.73,103,103,0,0,0,12.14,20.13,57.76,57.76,0,0,0,3.89,4.37,11.06,11.06,0,0,0,2.14,1.78,4.43,4.43,0,0,0,2.39.72c1.62,0,2.83-1.56,3.33-3.27a12.08,12.08,0,0,0,.19-5.49,19.06,19.06,0,0,0-1.79-5.35,35.58,35.58,0,0,0-2.94-5A35,35,0,0,0,583.81,222Zm.93-1.2a34.86,34.86,0,0,1,8.62,8.39,36.51,36.51,0,0,1,3.1,5.21,20.14,20.14,0,0,1,1.89,5.85,13.63,13.63,0,0,1-.36,6.24,7.3,7.3,0,0,1-1.63,2.85,4.54,4.54,0,0,1-3.15,1.43,5.84,5.84,0,0,1-3.19-1,12.8,12.8,0,0,1-2.38-2,58.11,58.11,0,0,1-3.91-4.54,92.71,92.71,0,0,1-11.8-20.64,26.14,26.14,0,0,1-1.71-5.77,4.22,4.22,0,0,1,.09-1.61,2.09,2.09,0,0,1,.42-.79,1.92,1.92,0,0,1,.79-.51,5.25,5.25,0,0,1,3.17.43,30,30,0,0,1,5.27,2.92C581.61,218.35,583.24,219.58,584.74,220.8Z"/><path class="cls-13" d="M360,544.1s-2.33,0-1.17,1.61a2.43,2.43,0,0,0,2.51.83c.62-.11.71-1.27.14-1.58C361.09,544.77,360.61,544.1,360,544.1Z"/><path class="cls-11" d="M360,544.35a2.56,2.56,0,0,0-1,.19.49.49,0,0,0-.2.71,1.94,1.94,0,0,0,1.65,1.16,3.25,3.25,0,0,0,.54,0,1.15,1.15,0,0,0,.48-.1.82.82,0,0,0,.17-.87.53.53,0,0,0-.27-.33,5.66,5.66,0,0,1-.49-.37A1.38,1.38,0,0,0,360,544.35Zm0-.5a1.89,1.89,0,0,1,1.16.57,3.84,3.84,0,0,0,.4.35,1,1,0,0,1,.43.56,1.18,1.18,0,0,1-.35,1.25,1.33,1.33,0,0,1-.63.16,3,3,0,0,1-.6,0,2.38,2.38,0,0,1-2-1.33,1.05,1.05,0,0,1-.12-.69.94.94,0,0,1,.46-.58A2.69,2.69,0,0,1,360,543.85Z"/><path class="cls-13" d="M390.27,534s-3.65,8.87,1.38,7c2.91-1.11,4.65-5.1,5.59-8.27.75-2.5-1.4-4.68-2.94-3C393.4,530.67,391.31,531.44,390.27,534Z"/><path class="cls-11" d="M390.78,534.19a22.62,22.62,0,0,0-1.15,3.67,6.35,6.35,0,0,0-.14,1.82c.06.6.27,1,.72,1.06a3.16,3.16,0,0,0,1.65-.36,6.07,6.07,0,0,0,1.5-1,11.72,11.72,0,0,0,2.15-3.15,23.19,23.19,0,0,0,1.4-3.64,3.12,3.12,0,0,0,0-1.74,1.92,1.92,0,0,0-1-1.23,1.09,1.09,0,0,0-1.29.44,14.78,14.78,0,0,1-1.58,1.31A6.69,6.69,0,0,0,390.78,534.19Zm-1-.42a7.67,7.67,0,0,1,2.68-3.21A15.81,15.81,0,0,0,394,529.4a2.4,2.4,0,0,1,1-.66,1.79,1.79,0,0,1,1.25.09,2.77,2.77,0,0,1,1.41,1.75,3.78,3.78,0,0,1,0,2.16,25.53,25.53,0,0,1-1.41,3.77,12.58,12.58,0,0,1-2.26,3.38,6.84,6.84,0,0,1-1.69,1.26,3.94,3.94,0,0,1-2.17.48,1.62,1.62,0,0,1-1.12-.7,2.55,2.55,0,0,1-.39-1.13,7.43,7.43,0,0,1,.1-2.12A19.4,19.4,0,0,1,389.75,533.77Z"/><path class="cls-14" d="M376.8,339.22s-1.35,0-.68,1.22a1.24,1.24,0,0,0,1.47.63c.35-.08.41-1,.08-1.2S377.19,339.22,376.8,339.22Z"/><path class="cls-11" d="M376.8,339.47a1,1,0,0,0-.55.15c-.11.09-.13.26-.06.47a1.1,1.1,0,0,0,.89.85c.19,0,.52,0,.55-.09a.87.87,0,0,0,.05-.6.5.5,0,0,0-.12-.21,2.8,2.8,0,0,1-.3-.28C377.1,339.58,376.91,339.45,376.8,339.47Zm0-.5a1.14,1.14,0,0,1,.78.5,2.1,2.1,0,0,0,.23.26.79.79,0,0,1,.23.44,1.15,1.15,0,0,1-.15.86.47.47,0,0,1-.21.18.74.74,0,0,1-.22.05,1.48,1.48,0,0,1-.42,0,1.53,1.53,0,0,1-1.24-1,.84.84,0,0,1,.15-.93A1.29,1.29,0,0,1,376.8,339Z"/><path class="cls-20" d="M200.83,449.23c-4.21,17.45,13.55,13.61,22.17,8.5s14.48-3.4,17.24-3.4c2.46,0,8.62-5.1,1.23-11.9s-22.17-8.51-27.09-5.11S202.06,444.13,200.83,449.23Z"/><polygon class="cls-6" points="392.5 533.5 653.5 511.5 574.5 584.5 320.5 613.5 392.5 533.5"/><path class="cls-11" d="M203.18,449.56a15.7,15.7,0,0,0-.43,6.45,5.77,5.77,0,0,0,1.17,2.61,5.41,5.41,0,0,0,2.35,1.61,13.71,13.71,0,0,0,6.45.45,32.59,32.59,0,0,0,9.82-3.12c1-.51,2.09-1.14,3.19-1.64a25.84,25.84,0,0,1,7-2.17,27,27,0,0,1,7.24,0l.87.07h.42l.34,0a4.12,4.12,0,0,0,1.43-.63,5.47,5.47,0,0,0,2.09-2.45,4.72,4.72,0,0,0,.18-3.17,7.81,7.81,0,0,0-1.56-2.92,17.84,17.84,0,0,0-5.32-4.31,31.66,31.66,0,0,0-13.31-3.62,21.38,21.38,0,0,0-6.72.6,10.91,10.91,0,0,0-1.49.54c-.43.27-.82.46-1.35.85-1,.7-2,1.37-3,2a61.21,61.21,0,0,0-5.7,4A10.09,10.09,0,0,0,203.18,449.56Zm-2.69-.65a9.54,9.54,0,0,1,1.9-3.66,17.45,17.45,0,0,1,2.74-2.7,55.6,55.6,0,0,1,6.07-4c1-.62,2-1.21,3-1.83a18,18,0,0,1,1.71-1,13.58,13.58,0,0,1,1.88-.59,23.31,23.31,0,0,1,7.43-.34A33.87,33.87,0,0,1,239,439.19a19.84,19.84,0,0,1,5.55,4.74,9.11,9.11,0,0,1,1.72,3.33,5.81,5.81,0,0,1-.27,3.81,6.54,6.54,0,0,1-2.43,2.92,5.46,5.46,0,0,1-1.8.81l-.55.06h-.47l-.91-.06a24.84,24.84,0,0,0-7,.19,23.55,23.55,0,0,0-6.49,2.33c-1,.54-2,1.15-3.06,1.77a34.67,34.67,0,0,1-10.3,3.79,15.65,15.65,0,0,1-7.64-.26,7.75,7.75,0,0,1-5.31-6.05A18.11,18.11,0,0,1,200.49,448.91Z"/><path class="cls-13" d="M211.12,451.05c-1.23.32-2.17-1.51-1.43-2.82.49-.86,1.22-1.41,2.28-.49,2.32,2,0,3,0,3A7,7,0,0,1,211.12,451.05Z"/><path class="cls-11" d="M211.24,451.53a1.6,1.6,0,0,1-1.69-.72,2.61,2.61,0,0,1-.43-1.58,2.7,2.7,0,0,1,.52-1.52,2.25,2.25,0,0,1,.6-.59,1.36,1.36,0,0,1,.91-.21,2.8,2.8,0,0,1,1.44.82,2.76,2.76,0,0,1,.88,1.45,1.86,1.86,0,0,1-.73,1.71,2.25,2.25,0,0,1-.36.24l-.21.11-.19.06Zm-.25-1,.61-.22.16,0,.1-.06.23-.15a.88.88,0,0,0,.41-.77,2,2,0,0,0-.54-1,2.06,2.06,0,0,0-.92-.7.88.88,0,0,0-.88.46,1.8,1.8,0,0,0-.42,1.13,1.63,1.63,0,0,0,.44,1.08A.76.76,0,0,0,211,450.56Z"/><path class="cls-13" d="M237.3,446.88c-.14,0-.26.48-.29,1.15s0,1.48.43,1.78c.75.56,2.68.56,2.89,0s.32-2.23-.21-2.23S237.87,446.77,237.3,446.88Z"/><path class="cls-11" d="M237.4,447.4a.45.45,0,0,0,.25-.15h0a.22.22,0,0,0,0,.08,2,2,0,0,0-.08.29c0,.21-.07.43-.09.65a2.46,2.46,0,0,0,.13,1.17,1.63,1.63,0,0,0,1,.48,2.54,2.54,0,0,0,1.29-.05c.32,0,.31-.62.35-1.05a2.85,2.85,0,0,0-.06-.66.6.6,0,0,0-.1-.24l0,0h0s0,0,0,0a14,14,0,0,1-1.5-.31c-.23-.06-.45-.12-.67-.16A1.53,1.53,0,0,0,237.4,447.4Zm-.21-1a2.29,2.29,0,0,1,.93.13c.25.08.48.17.71.26a11,11,0,0,0,1.27.5l.13,0a.37.37,0,0,1,.19.08.63.63,0,0,1,.2.25,1.32,1.32,0,0,1,.12.44,4.07,4.07,0,0,1,0,.78,6.42,6.42,0,0,1-.1.75,1.13,1.13,0,0,1-.15.42,1,1,0,0,1-.39.3,3.78,3.78,0,0,1-1.55.17,3.56,3.56,0,0,1-.78-.14,1.58,1.58,0,0,1-.79-.47,2.92,2.92,0,0,1-.44-1.62,5.11,5.11,0,0,1,0-.78,3.27,3.27,0,0,1,.06-.42,1.44,1.44,0,0,1,.08-.25.85.85,0,0,1,.1-.18A.68.68,0,0,1,237.19,446.37Z"/><path class="cls-21" d="M761.21,697.07c-.87.46-2.53-1-3.71-3.16s-1.42-4.38-.54-4.84"/><rect class="cls-22" x="734.78" y="688.5" width="13.82" height="26.9" rx="3.97" transform="translate(470.43 1686.46) rotate(-118.02)"/><rect class="cls-22" x="755.19" y="681.03" width="7.37" height="23.83" rx="3.05" transform="translate(503.62 1688.39) rotate(-118.02)"/><path class="cls-21" d="M759.9,697.59c-.88.47-2.54-1-3.72-3.15s-1.42-4.38-.54-4.85"/><path class="cls-21" d="M761.86,696.79c-.87.47-2.53-.95-3.71-3.15s-1.42-4.38-.54-4.85"/><path class="cls-21" d="M764.48,695.72c-.88.46-2.54-1-3.72-3.16s-1.41-4.38-.54-4.84"/><path class="cls-16" d="M750,697.56a3.83,3.83,0,0,1,.68-4.36,2.53,2.53,0,0,0-.7.16c-1.53.63-2.11,2.75-1.29,4.74s2.72,3.08,4.26,2.45a2.35,2.35,0,0,0,.6-.38A3.8,3.8,0,0,1,750,697.56Z"/><path class="cls-16" d="M748.62,690.87a4.72,4.72,0,0,0-2.3,3.63,8.21,8.21,0,0,0,.63,4.32,8.3,8.3,0,0,0,2.61,3.49,4.66,4.66,0,0,0,4.15.92.07.07,0,0,1,.08,0,.05.05,0,0,1,0,.07,4,4,0,0,1-2.33.36,5.94,5.94,0,0,1-2.23-.89,8.42,8.42,0,0,1-3.43-8.42,5.58,5.58,0,0,1,1-2.17A3.82,3.82,0,0,1,748.62,690.87Z"/><path class="cls-23" d="M523.52,857.05a40.68,40.68,0,0,0,7.58-23.58c0-23.92-21-43.31-46.94-43.31s-46.94,19.39-46.94,43.31c0,1.11.06,2.21.15,3.3a38,38,0,0,0-18.84,6.66c-12.34,8.22-18.42,21-14.21,29.3-3.39,6-5.74,12.61-5.26,19.49C400.88,918,431.2,944,470.83,944c15.6,0,30.59-3.63,41.81-9.69C529.83,925,542,909.86,542,892.52,542,878.94,535.36,866.29,523.52,857.05Z"/><path class="cls-24" d="M489,857.53l8-3.73,15.93-12.16,10.6,1.52L534,849.23l4.66,4.14s1.59,5.1-6.39,10.08c-8.56,5.34-27.25,10.37-43.61,3-2.14-1-2.26-4.55-1.21-6.67C488.16,858.46,487.49,858,489,857.53Z"/><path class="cls-25" d="M486,863s2.52,5.79,11,7,29-2,32-4.43c.77-.62,1.83-1.36,3-2.18C535.21,861,538,860.12,538,856"/><ellipse class="cls-26" cx="481.59" cy="835.17" rx="8.63" ry="7.99"/><path class="cls-26" d="M531.7,830.74c-4,0-7.26-3.88-7.26-8.67a9.46,9.46,0,0,1,2.43-6.47"/><ellipse class="cls-27" cx="484.01" cy="832.86" rx="1.97" ry="1.82"/><ellipse class="cls-27" cx="526.83" cy="821.7" rx="0.99" ry="1.43" transform="translate(-77.5 55.2) rotate(-5.59)"/><path class="cls-25" d="M486.58,863.75c-.3-2.86.45-7,9-9.34a6.55,6.55,0,0,0,2.43-1.29c3.34-2.85,12-11.12,15-11.12,7,0,9.32.55,11.74,1.76l6.06,3c.83.42,4.86,3.73,7.26,5.74"/><path class="cls-28" d="M539.5,855.5C532.29,855,519.82,871,487,863"/><path class="cls-25" d="M538.06,852.53c1.08.9.94,3.47-.06,3.47"/><path class="cls-29" d="M418,851c7.34-6.06,15.69-9.26,21-8-.07-1.67-.7-5.22-2-6-5-3-13.53.92-23.11,8.84S400.87,866,405,871a17.26,17.26,0,0,0,6,4C405,867,410.66,857.06,418,851Z"/><path class="cls-30" d="M529.12,846a40.11,40.11,0,0,0,2-12.48c0-23.92-21-43.31-46.94-43.31s-46.94,19.39-46.94,43.31"/><path class="cls-30" d="M437.22,836.45a36.91,36.91,0,0,0-18.78,6.3c-12.35,8-18.42,20.76-13.94,28.88A41.6,41.6,0,0,0,400,890.4c0,29.43,31.73,53.3,70.86,53.3s70.72-23.87,70.87-53.3c0-9.88-3.4-19-9.75-27"/><path class="cls-26" d="M414.51,875.86a10.65,10.65,0,0,1-4.2-.68,14.91,14.91,0,0,1-3.8-2.06,13.41,13.41,0,0,1-3.08-3.16,7.23,7.23,0,0,1-1.42-4.53l2,.28a5.55,5.55,0,0,0,.72,3.47,12.21,12.21,0,0,0,2.45,3.17,13.91,13.91,0,0,0,3.35,2.37A10.42,10.42,0,0,0,414.51,875.86Z"/><path class="cls-26" d="M438.22,833.47a39.25,39.25,0,0,0,3.53,16.84,43,43,0,0,0,10.25,14,47.15,47.15,0,0,0,14.89,9.14,50.8,50.8,0,0,0,17.27,3.33,50.81,50.81,0,0,1-17.44-2.86,48.24,48.24,0,0,1-15.39-8.86,44.38,44.38,0,0,1-10.94-14.11,40.92,40.92,0,0,1-4.17-17.47Z"/><path class="cls-31" d="M166,772c-28,2-31.82-.71-55.5,1.5-22.53,2.1-42,11.88-34,28,30.8,62.28,512.09-148.91,579-82C674,738,621.2,826.52,610,845"/><path class="cls-16" d="M378.38,118s-39.13,10,.17,10.35c15,.13,25.73-1.09,33.28-2.65,12.5-2.58,6-10.71-9.17-11.18A70.06,70.06,0,0,0,378.38,118Z"/><path class="cls-11" d="M378.59,118.7c-2.5.61-4.92,1.29-7.35,2a52.29,52.29,0,0,0-7.1,2.6,12.56,12.56,0,0,0-1.61.9c-.49.32-1,.76-1.08,1.14s.35.71.89,1a9.34,9.34,0,0,0,1.74.57,27.1,27.1,0,0,0,3.73.6c1.26.13,2.53.21,3.8.25a214.93,214.93,0,0,0,30.45-1.19c2.52-.31,5-.69,7.52-1.16,1.24-.24,2.49-.48,3.66-.82a10.74,10.74,0,0,0,3.24-1.46,3.22,3.22,0,0,0,1-1.14,1.65,1.65,0,0,0,.06-1.29,5.25,5.25,0,0,0-2.24-2.33,20,20,0,0,0-6.9-2.4,41,41,0,0,0-7.45-.62,71.8,71.8,0,0,0-22.36,3.36Zm-.42-1.46A67.47,67.47,0,0,1,393.23,114a71.3,71.3,0,0,1,7.73-.36,41.48,41.48,0,0,1,7.76.7,21.83,21.83,0,0,1,7.42,2.73A6.6,6.6,0,0,1,419,120.2a3.2,3.2,0,0,1-.14,2.43,4.75,4.75,0,0,1-1.5,1.69c-2.36,1.59-5,2-7.52,2.44s-5.07.8-7.62,1.08c-5.09.56-10.2.84-15.31.95s-10.23.07-15.33-.31a64,64,0,0,1-7.65-.89A10.4,10.4,0,0,1,362,127a3.2,3.2,0,0,1-.91-.57,1.3,1.3,0,0,1-.44-1.21,2,2,0,0,1,.58-1,6.12,6.12,0,0,1,.78-.68,14,14,0,0,1,1.68-1A81.35,81.35,0,0,1,378.17,117.24Z"/><path class="cls-15" d="M353.59,138.21c1.55-4.55-1.47-7.38-4.53-4.25-5.26,5.39-5.88,8.14-2.53,8.93,4.19,1,5.94-1.43,7.06-4.68Z"/><path class="cls-16" d="M358.72,139.4c.38,1.12,2,1.19,3.58.15s2.58-2.8,2.19-3.93-1.15.22-2.74,1.27S358.33,138.28,358.72,139.4Z"/><path class="cls-11" d="M359,139.3a1.2,1.2,0,0,0,1.4.63,4.23,4.23,0,0,0,1.75-.72,4.44,4.44,0,0,0,2.13-3,1.5,1.5,0,0,0,0-.42.92.92,0,0,0-.13-.27s-.08,0-.21.08a2.37,2.37,0,0,0-.39.28,16.79,16.79,0,0,1-1.68,1.27c-.6.38-1.24.69-1.84,1S358.76,138.85,359,139.3Zm-.55.19a1.16,1.16,0,0,1,0-.69,1.32,1.32,0,0,1,.38-.53,4.68,4.68,0,0,1,.94-.58c.62-.32,1.25-.59,1.82-1a15.77,15.77,0,0,0,1.58-1.3,4.07,4.07,0,0,1,.45-.34.75.75,0,0,1,.76-.11,1,1,0,0,1,.42.6,2.08,2.08,0,0,1,.09.6,3.82,3.82,0,0,1-.77,2.11,6,6,0,0,1-1.56,1.54,4.65,4.65,0,0,1-2.09.78,2.36,2.36,0,0,1-1.19-.18A1.58,1.58,0,0,1,358.44,139.49Z"/><path class="cls-32" d="M167.5,767.94c-27,0-18.35-54.41-35.5-59-12.25-3.25-28.37,2.28-34,15.55-12.85,30.3,24.27,112.24,74,139.94,80.82,45,199.65-50.58,264-129.57,65.85-80.83,84.25-156,139-160.68,35.06-3,65.42,24.65,86,49.24"/><path class="cls-33" d="M166.5,765.35c-24,2.59-19.35-47.93-36.5-52.48-12.25-3.25-28.37,2.28-34,15.55-12.85,30.3,24.27,112.24,74,139.94,80.82,45,199.65-50.59,264-129.58,65.85-80.82,84.25-156,139-160.67,35.06-3,65.42,24.65,86,49.24"/><path class="cls-21" d="M665.45,640.4c-.64-.76.39-2.68,2.3-4.3s4-2.31,4.62-1.56"/><rect class="cls-22" x="649.64" y="608.91" width="13.82" height="26.9" rx="3.97" transform="translate(-246.67 571.54) rotate(-40.25)"/><rect class="cls-22" x="665.3" y="625.33" width="7.37" height="23.83" rx="3.05" transform="translate(-253.34 583.1) rotate(-40.25)"/><path class="cls-21" d="M664.66,639.22c-.64-.75.39-2.68,2.3-4.29s4-2.32,4.62-1.56"/><path class="cls-21" d="M665.86,641c-.64-.76.39-2.68,2.3-4.3s4-2.31,4.62-1.56"/><path class="cls-21" d="M667.47,643.3c-.64-.75.39-2.68,2.3-4.29s4-2.32,4.61-1.56"/><path class="cls-16" d="M662.6,629.56a3.82,3.82,0,0,1,4.41-.25,2.29,2.29,0,0,0-.31-.65c-.94-1.36-3.13-1.48-4.9-.26s-2.44,3.31-1.5,4.68a2.42,2.42,0,0,0,.5.51A3.84,3.84,0,0,1,662.6,629.56Z"/><path class="cls-16" d="M668.84,626.78a4.72,4.72,0,0,0-4-1.48,8.22,8.22,0,0,0-4.08,1.53,8.3,8.3,0,0,0-2.85,3.29,4.65,4.65,0,0,0,0,4.25.06.06,0,0,1,0,.09.06.06,0,0,1-.08,0,4,4,0,0,1-.84-2.21,6,6,0,0,1,.4-2.36,8.43,8.43,0,0,1,7.49-5.14,5.87,5.87,0,0,1,2.34.48A3.89,3.89,0,0,1,668.84,626.78Z"/><path class="cls-34" d="M618.78,207c-6.48-5.21-11.92-2-8.17,4.78,6.46,11.74,10.48,14.38,12.88,9.43,3-6.19-.1-10.44-4.71-14.21Z"/><path class="cls-35" d="M560.26,196.3s10.8,3.55,4.63-5a16.92,16.92,0,0,0-6.55-5.81c-3.18-1.43-5.78,3.84-3.56,7.28A7.83,7.83,0,0,0,560.26,196.3Z"/><path class="cls-11" d="M560.44,195.56a22.35,22.35,0,0,0,2.23.68,8.52,8.52,0,0,0,2.21.3c.72,0,1.39-.25,1.53-.85a3,3,0,0,0-.51-2,21.71,21.71,0,0,0-6.26-6.67,9.52,9.52,0,0,0-1-.56,4.57,4.57,0,0,0-.95-.38,1.79,1.79,0,0,0-1.59.42,4.58,4.58,0,0,0-1.31,3.65,4.4,4.4,0,0,0,.54,1.9,6.23,6.23,0,0,0,1.27,1.65A7.56,7.56,0,0,0,560.44,195.56Zm-.36,1.48c-3.22-.37-6.83-3-7-6.85a6.14,6.14,0,0,1,2.07-4.88,3.19,3.19,0,0,1,2.86-.61,5.31,5.31,0,0,1,1.24.54,11.68,11.68,0,0,1,1.06.66,17.51,17.51,0,0,1,3.58,3.34,17,17,0,0,1,2.63,4.09,5.12,5.12,0,0,1,.53,2.51,1.73,1.73,0,0,1-.83,1.19,3.83,3.83,0,0,1-1.28.44A13,13,0,0,1,560.08,197Z"/><path class="cls-36" d="M284.46,213.73c-4.11-3.32-7.57-1.29-5.19,3,4.11,7.46,6.66,9.13,8.19,6,1.9-3.94-.06-6.64-3-9Z"/><path class="cls-37" d="M209.59,122.21c1.55-4.55-1.47-7.38-4.53-4.25-5.26,5.39-5.88,8.14-2.53,8.93,4.19,1,5.94-1.43,7.06-4.68Z"/><path class="cls-4" d="M240.85,299.06a6.1,6.1,0,0,0-3,.28c-2.27.82-5.56,2.74-1.39,6.33,5.88,5.06,17.39,1.87,18.66,1.14s6.12.72,5.39-3.91-3.94-4.49-6.49-3C252.55,300.71,244.69,299.62,240.85,299.06Z"/><path class="cls-38" d="M320.59,146.21c1.55-4.55-1.47-7.38-4.53-4.25-5.26,5.39-5.88,8.14-2.53,8.93,4.19,1,5.94-1.43,7.06-4.68Z"/><path class="cls-14" d="M422.61,349.75s-9,7.65-.69,7.65a12.31,12.31,0,0,0,7.24-2.18c2.83-2,2-8-1.16-8.21C426.48,346.9,424.66,347.55,422.61,349.75Z"/><path class="cls-11" d="M423.14,350.3c-.63.48-1.14.93-1.69,1.43a17.1,17.1,0,0,0-1.53,1.54,5.63,5.63,0,0,0-1.09,1.78,1.11,1.11,0,0,0,.54,1.52,5.19,5.19,0,0,0,2,.31,14.09,14.09,0,0,0,2.15-.12,11.78,11.78,0,0,0,4-1.31,7.26,7.26,0,0,0,1.63-1.17,3.68,3.68,0,0,0,.81-1.67,5.06,5.06,0,0,0-.56-3.7,2,2,0,0,0-1.2-1,2.59,2.59,0,0,0-.82-.07,3.56,3.56,0,0,0-.91.17A8.34,8.34,0,0,0,423.14,350.3Zm-1.06-1.1a9.18,9.18,0,0,1,3.91-2.8,5.56,5.56,0,0,1,1.29-.25,4,4,0,0,1,1.4.11,3.67,3.67,0,0,1,2.19,1.77,6.61,6.61,0,0,1,.55,5,5,5,0,0,1-1.23,2.25,8,8,0,0,1-2.05,1.36,12.94,12.94,0,0,1-4.5,1.26,13.82,13.82,0,0,1-2.32,0,5.39,5.39,0,0,1-2.32-.66,2.07,2.07,0,0,1-.83-1,2.61,2.61,0,0,1,0-1.3,7.82,7.82,0,0,1,1-2.14A19.61,19.61,0,0,1,422.08,349.2Z"/><path class="cls-21" d="M601.51,858.09c.47-.87,2.64-.61,4.84.57s3.61,2.86,3.14,3.73"/><rect class="cls-22" x="608.14" y="829.76" width="13.82" height="26.9" rx="3.97" transform="translate(473.64 -190.86) rotate(28.32)"/><rect class="cls-22" x="602.06" y="848.32" width="7.37" height="23.83" rx="3.05" transform="translate(480.6 -184.4) rotate(28.32)"/><path class="cls-21" d="M602.32,856.93c.47-.87,2.63-.62,4.84.57s3.6,2.85,3.13,3.73"/><path class="cls-21" d="M601.12,858.68c.48-.87,2.64-.61,4.84.57s3.61,2.86,3.14,3.73"/><path class="cls-21" d="M599.55,861c.47-.87,2.63-.62,4.83.57s3.61,2.86,3.14,3.73"/><path class="cls-16" d="M610.56,851.48a3.81,3.81,0,0,1,1.84,4,2.47,2.47,0,0,0,.5-.52c.92-1.38.23-3.46-1.55-4.66s-4-1.06-4.9.31a2.45,2.45,0,0,0-.3.66A3.82,3.82,0,0,1,610.56,851.48Z"/><path class="cls-16" d="M615.43,856.27a4.69,4.69,0,0,0-.1-4.3,8.21,8.21,0,0,0-2.92-3.24,8.12,8.12,0,0,0-4.1-1.45,4.66,4.66,0,0,0-4,1.52.06.06,0,0,1-.09,0,.06.06,0,0,1,0-.08,4,4,0,0,1,1.75-1.58,5.72,5.72,0,0,1,2.34-.5,8.42,8.42,0,0,1,7.52,5.1,5.75,5.75,0,0,1,.41,2.35A3.84,3.84,0,0,1,615.43,856.27Z"/><path class="cls-11" d="M554,205.72a15.34,15.34,0,0,0-.93,2.11,11.15,11.15,0,0,0-.56,2.26,6.89,6.89,0,0,0,0,2.31,4.69,4.69,0,0,0,1,2.1,4.87,4.87,0,0,1-1.26-2,7.08,7.08,0,0,1-.28-2.42,11.57,11.57,0,0,1,.34-2.42,15.64,15.64,0,0,1,.75-2.35Z"/><path class="cls-14" d="M456.31,511.54c-1.31-1.11-2.82-.91-3.37.45a4.29,4.29,0,0,0,1.37,4.48c1.31,1.11.85-.43,1.41-1.79S457.62,512.65,456.31,511.54Z"/><path class="cls-11" d="M455.88,512.05a2,2,0,0,0-1.33-.44,1,1,0,0,0-.79.65,3.45,3.45,0,0,0,.38,3,3.65,3.65,0,0,0,.5.67,2.44,2.44,0,0,0,.3.27c.08.1.19,0-.06.1s-.16.13-.15.12a.2.2,0,0,0,0-.11,3.45,3.45,0,0,0,.1-.43,7.07,7.07,0,0,1,.26-1,9,9,0,0,1,1-1.86c.15-.27.19-.48.15-.54A1.08,1.08,0,0,0,455.88,512.05Zm.86-1a2.17,2.17,0,0,1,.71,1.22,1.89,1.89,0,0,1-.42,1.3,4.9,4.9,0,0,0-.93,1.58,5.92,5.92,0,0,0-.16.91c0,.17,0,.33-.09.54a1.91,1.91,0,0,1-.11.35.9.9,0,0,1-.5.45.63.63,0,0,1-.37,0,.77.77,0,0,1-.26-.06,1.45,1.45,0,0,1-.33-.16,3.11,3.11,0,0,1-.48-.34,4.77,4.77,0,0,1-.8-.82,5.24,5.24,0,0,1-1-2.06,3.92,3.92,0,0,1,.19-2.44,2.79,2.79,0,0,1,.89-1.09,2.61,2.61,0,0,1,1.38-.41A3.41,3.41,0,0,1,456.74,511Z"/><path class="cls-14" d="M511.15,465c4.22-2.91,6.27-5.6,4.58-6s-3.51-1.86-7.73,1-3.52,4.84-1.83,5.26S506.94,467.88,511.15,465Z"/><path class="cls-11" d="M510.78,464.43a27.12,27.12,0,0,0,2.78-2.32,13,13,0,0,0,1.2-1.28,3.61,3.61,0,0,0,.71-1.19c0-.05,0,0,0,.07s.11.11.08.1l-.11,0-.25-.07-.47-.16a7.53,7.53,0,0,0-1.63-.47,5.74,5.74,0,0,0-3.17.58,14.61,14.61,0,0,0-3,1.89,6.82,6.82,0,0,0-1.17,1.24,1.69,1.69,0,0,0-.38,1.31.9.9,0,0,0,.37.46,1.48,1.48,0,0,0,.31.15c.11.05.22.06.43.13.8.25,1.28,1.08,1.49,1.05a2.43,2.43,0,0,0,1.3-.45C509.79,465.13,510.29,464.79,510.78,464.43Zm.75,1.09a17,17,0,0,1-1.67,1,7.52,7.52,0,0,1-.95.39,2.15,2.15,0,0,1-1.27,0,2.37,2.37,0,0,1-.92-.73,1.44,1.44,0,0,0-.55-.41,2.29,2.29,0,0,1-1.73-1.39,2.64,2.64,0,0,1,.43-2.2,8.44,8.44,0,0,1,1.31-1.52,15.93,15.93,0,0,1,3.15-2.28,6.82,6.82,0,0,1,4-.93,9.17,9.17,0,0,1,2,.48l.41.13.2.05a2.19,2.19,0,0,1,.34.1,1.48,1.48,0,0,1,.91,1.67,3.17,3.17,0,0,1-.49,1.17,6,6,0,0,1-.63.83,15.22,15.22,0,0,1-1.42,1.37A28.84,28.84,0,0,1,511.53,465.52Z"/></g></svg>