<svg id="line" height="512" viewBox="0 0 64 64" width="512" xmlns="http://www.w3.org/2000/svg"><path d="m36 27h-8a1 1 0 0 0 -1 1v8a1 1 0 0 0 1 1h8a1 1 0 0 0 1-1v-8a1 1 0 0 0 -1-1zm-1 8h-6v-6h6z"/><path d="m54 11a1 1 0 0 0 -1-1h-2v-8h-2v8h-2v-8h-2v8h-2v-8h-2v8h-2v-8h-2v8h-2v-8h-2v8h-2v-8h-2v8h-2v-8h-2v8h-2v-8h-2v8h-2v-8h-2v8h-2v-8h-2v8h-2a1 1 0 0 0 -1 1v2h-8v2h8v2h-8v2h8v2h-8v2h8v2h-8v2h8v2h-8v2h8v2h-8v2h8v2h-8v2h8v2h-8v2h8v2h-8v2h8v2h-8v2h8v2a1 1 0 0 0 1 1h2v8h2v-8h2v8h2v-8h2v8h2v-8h2v8h2v-8h2v8h2v-8h2v8h2v-8h2v8h2v-8h2v8h2v-8h2v8h2v-8h2v8h2v-8h2a1 1 0 0 0 1-1v-2h8v-2h-8v-2h8v-2h-8v-2h8v-2h-8v-2h8v-2h-8v-2h8v-2h-8v-2h8v-2h-8v-2h8v-2h-8v-2h8v-2h-8v-2h8v-2h-8v-2h8v-2h-8zm-2 6v35h-40v-40h40z"/><path d="m23 23h2v2h-2z"/><path d="m27 23h2v2h-2z"/><path d="m15 23h2v2h-2z"/><path d="m19 23h2v2h-2z"/><path d="m31 23h2v2h-2z"/><path d="m35 23h2v2h-2z"/><path d="m39 23h2v2h-2z"/><path d="m43 23h2v2h-2z"/><path d="m47 23h2v2h-2z"/><path d="m23 19h2v2h-2z"/><path d="m27 19h2v2h-2z"/><path d="m15 19h2v2h-2z"/><path d="m19 19h2v2h-2z"/><path d="m31 19h2v2h-2z"/><path d="m35 19h2v2h-2z"/><path d="m39 19h2v2h-2z"/><path d="m43 19h2v2h-2z"/><path d="m47 19h2v2h-2z"/><path d="m23 15h2v2h-2z"/><path d="m27 15h2v2h-2z"/><path d="m15 15h2v2h-2z"/><path d="m19 15h2v2h-2z"/><path d="m31 15h2v2h-2z"/><path d="m35 15h2v2h-2z"/><path d="m39 15h2v2h-2z"/><path d="m43 15h2v2h-2z"/><path d="m47 15h2v2h-2z"/><path d="m23 47h2v2h-2z"/><path d="m27 47h2v2h-2z"/><path d="m15 47h2v2h-2z"/><path d="m19 47h2v2h-2z"/><path d="m31 47h2v2h-2z"/><path d="m35 47h2v2h-2z"/><path d="m39 47h2v2h-2z"/><path d="m43 47h2v2h-2z"/><path d="m47 47h2v2h-2z"/><path d="m23 43h2v2h-2z"/><path d="m27 43h2v2h-2z"/><path d="m15 43h2v2h-2z"/><path d="m19 43h2v2h-2z"/><path d="m31 43h2v2h-2z"/><path d="m35 43h2v2h-2z"/><path d="m39 43h2v2h-2z"/><path d="m43 43h2v2h-2z"/><path d="m47 43h2v2h-2z"/><path d="m23 39h2v2h-2z"/><path d="m27 39h2v2h-2z"/><path d="m15 39h2v2h-2z"/><path d="m19 39h2v2h-2z"/><path d="m23 35h2v2h-2z"/><path d="m15 35h2v2h-2z"/><path d="m19 35h2v2h-2z"/><path d="m23 31h2v2h-2z"/><path d="m15 31h2v2h-2z"/><path d="m19 31h2v2h-2z"/><path d="m23 27h2v2h-2z"/><path d="m15 27h2v2h-2z"/><path d="m19 27h2v2h-2z"/><path d="m31 39h2v2h-2z"/><path d="m35 39h2v2h-2z"/><path d="m39 39h2v2h-2z"/><path d="m43 39h2v2h-2z"/><path d="m47 39h2v2h-2z"/><path d="m39 35h2v2h-2z"/><path d="m43 35h2v2h-2z"/><path d="m47 35h2v2h-2z"/><path d="m39 31h2v2h-2z"/><path d="m43 31h2v2h-2z"/><path d="m47 31h2v2h-2z"/><path d="m39 27h2v2h-2z"/><path d="m43 27h2v2h-2z"/><path d="m47 27h2v2h-2z"/></svg>