<svg xmlns="http://www.w3.org/2000/svg" viewBox="0 0 348.22 121.5"><defs><style>.cls-1{fill:none;stroke:#272a39;stroke-linecap:round;stroke-linejoin:round;stroke-width:7px;}.cls-2{fill:#272a39;}</style></defs><title>Recurso 13tituloPRO</title><g id="Capa_2" data-name="Capa 2"><g id="Capa_1-2" data-name="Capa 1"><polyline class="cls-1" points="249.22 118 3.5 116.5 3.5 86.5"/><polyline class="cls-1" points="122.5 3.5 344.72 4 344.72 52.5"/><polyline class="cls-1" points="88.22 3.5 3.5 4 3.5 52.5"/><polyline class="cls-1" points="286.69 118 344.72 117 344.72 87"/><path class="cls-2" d="M68.61,38.89a11.73,11.73,0,0,1,5.18,4.32,11.85,11.85,0,0,1,1.83,6.6,11.35,11.35,0,0,1-7,10.88,19.29,19.29,0,0,1-7.92,1.51H54.83V71h-9.5V37.38H60.69A19.29,19.29,0,0,1,68.61,38.89ZM64.53,53.44A4.53,4.53,0,0,0,66,49.81a4.58,4.58,0,0,0-1.49-3.64,6.52,6.52,0,0,0-4.42-1.3H54.83v9.84h5.28A6.62,6.62,0,0,0,64.53,53.44Z"/><path class="cls-2" d="M92.35,45.42a13.78,13.78,0,0,1,5.11-.89v8.21a20,20,0,0,0-2.06-.14A5.68,5.68,0,0,0,89.15,59V71H80V45h8.68v3.12A8.45,8.45,0,0,1,92.35,45.42Z"/><path class="cls-2" d="M106.48,69.69a13.11,13.11,0,0,1-5.25-4.8,13.11,13.11,0,0,1,5.23-18.65A16.31,16.31,0,0,1,114,44.53a16.48,16.48,0,0,1,7.58,1.71A12.68,12.68,0,0,1,126.83,51a13,13,0,0,1,1.88,6.94,13.1,13.1,0,0,1-1.88,7,12.93,12.93,0,0,1-5.23,4.8,17.47,17.47,0,0,1-15.12,0ZM118,62.51a6.44,6.44,0,0,0,1.54-4.58A6.32,6.32,0,0,0,118,53.41a5.56,5.56,0,0,0-7.87,0,6.36,6.36,0,0,0-1.53,4.52,6.48,6.48,0,0,0,1.53,4.58,5.49,5.49,0,0,0,7.87,0Z"/><path class="cls-2" d="M160.58,35.37V71h-8.69V68.39c-1.7,2-4.24,3-7.63,3a13,13,0,0,1-6.48-1.65A12,12,0,0,1,133.15,65a14.37,14.37,0,0,1-1.71-7.1,14.22,14.22,0,0,1,1.71-7.08,11.72,11.72,0,0,1,4.63-4.68,13.06,13.06,0,0,1,6.48-1.64,9.46,9.46,0,0,1,7.2,2.69V35.37ZM150.07,62.51a6.48,6.48,0,0,0,1.53-4.58,6.4,6.4,0,0,0-1.51-4.52,5.11,5.11,0,0,0-3.91-1.63,5.21,5.21,0,0,0-3.94,1.63,6.36,6.36,0,0,0-1.53,4.52,6.48,6.48,0,0,0,1.53,4.58,5.16,5.16,0,0,0,3.94,1.66A5.1,5.1,0,0,0,150.07,62.51Z"/><path class="cls-2" d="M193.79,45V71h-8.68V68.2a9.54,9.54,0,0,1-3.46,2.4,11.34,11.34,0,0,1-4.27.81,10.93,10.93,0,0,1-8-3c-2-2-3-5-3-8.93V45h9.12V58a6.72,6.72,0,0,0,1.1,4.27,3.92,3.92,0,0,0,3.22,1.35,4.58,4.58,0,0,0,3.53-1.51,6.77,6.77,0,0,0,1.36-4.64V45Z"/><path class="cls-2" d="M205.22,69.69A12.76,12.76,0,0,1,198,57.93a12.62,12.62,0,0,1,7.2-11.69A17,17,0,0,1,213,44.53a14.82,14.82,0,0,1,7.63,1.9,10.53,10.53,0,0,1,4.56,5.26l-7.06,3.6q-1.77-3.51-5.18-3.51a5.49,5.49,0,0,0-4.06,1.63,6.18,6.18,0,0,0-1.61,4.52,6.3,6.3,0,0,0,1.61,4.58,5.44,5.44,0,0,0,4.06,1.66q3.4,0,5.18-3.51l7.06,3.6a10.57,10.57,0,0,1-4.56,5.26A14.81,14.81,0,0,1,213,71.41,16.87,16.87,0,0,1,205.22,69.69Z"/><path class="cls-2" d="M247,69.93a9.37,9.37,0,0,1-2.81,1.1,15.35,15.35,0,0,1-3.53.38q-5.08,0-7.82-2.49t-2.74-7.44V52.74h-3.79V45.93h3.79V39.16h9.12v6.77h6v6.81h-6v8.64a3.1,3.1,0,0,0,.74,2.19,2.64,2.64,0,0,0,2,.79,4.79,4.79,0,0,0,2.78-.82Z"/><path class="cls-2" d="M255.23,69.69a13.11,13.11,0,0,1-5.25-4.8,13.11,13.11,0,0,1,5.23-18.65,16.31,16.31,0,0,1,7.56-1.71,16.48,16.48,0,0,1,7.58,1.71A12.68,12.68,0,0,1,275.58,51a13,13,0,0,1,1.88,6.94,13.1,13.1,0,0,1-1.88,7,12.93,12.93,0,0,1-5.23,4.8,17.47,17.47,0,0,1-15.12,0Zm11.47-7.18a6.44,6.44,0,0,0,1.54-4.58,6.32,6.32,0,0,0-1.54-4.52,5.56,5.56,0,0,0-7.87,0,6.36,6.36,0,0,0-1.53,4.52,6.48,6.48,0,0,0,1.53,4.58,5.49,5.49,0,0,0,7.87,0Z"/><path class="cls-2" d="M284.7,70.67a17.07,17.07,0,0,1-5.08-1.94l2.73-6.24a15.6,15.6,0,0,0,4.23,1.75,18.91,18.91,0,0,0,4.84.65,7.85,7.85,0,0,0,3.15-.46,1.42,1.42,0,0,0,.93-1.32c0-.58-.37-1-1.12-1.22a23.08,23.08,0,0,0-3.58-.7,35.09,35.09,0,0,1-5.3-1,8.09,8.09,0,0,1-3.77-2.3,6.58,6.58,0,0,1-1.59-4.71,7.14,7.14,0,0,1,1.49-4.44A9.87,9.87,0,0,1,286,45.66a18.62,18.62,0,0,1,6.84-1.13,27.9,27.9,0,0,1,5.61.58,16.15,16.15,0,0,1,4.66,1.63l-2.74,6.19A15.16,15.16,0,0,0,292.86,51a7.34,7.34,0,0,0-3.16.51,1.5,1.5,0,0,0-1,1.32c0,.61.37,1,1.1,1.27a24.67,24.67,0,0,0,3.65.74A39.73,39.73,0,0,1,298.77,56a8,8,0,0,1,3.67,2.28A6.49,6.49,0,0,1,304,62.87a7,7,0,0,1-1.49,4.39,9.66,9.66,0,0,1-4.39,3,19.59,19.59,0,0,1-7,1.1A27.91,27.91,0,0,1,284.7,70.67Z"/></g></g></svg>