<svg xmlns="http://www.w3.org/2000/svg" xmlns:xlink="http://www.w3.org/1999/xlink" viewBox="0 0 735.05 900.72"><defs><style>.cls-1{fill:url(#Degradado_sin_nombre_14);}.cls-2{fill:#503063;}.cls-3{fill:url(#Degradado_sin_nombre_23);}.cls-4{fill:#181a20;}.cls-13,.cls-5{fill:#c5c5ff;}.cls-5,.cls-6{stroke:#484866;}.cls-12,.cls-15,.cls-21,.cls-30,.cls-31,.cls-32,.cls-33,.cls-37,.cls-38,.cls-5,.cls-6,.cls-8,.cls-9{stroke-miterlimit:10;}.cls-25,.cls-30,.cls-31,.cls-5,.cls-6{stroke-width:2px;}.cls-17,.cls-6{fill:#a6a6ed;}.cls-7{fill:#272a39;}.cls-12,.cls-21,.cls-25,.cls-28,.cls-30,.cls-31,.cls-32,.cls-33,.cls-8,.cls-9{fill:none;}.cls-8,.cls-9{stroke:#c867f0;}.cls-8{stroke-width:8px;}.cls-9{stroke-width:6px;}.cls-10{fill:url(#Degradado_sin_nombre_33);}.cls-11{fill:#ffcafb;}.cls-12,.cls-15,.cls-37,.cls-38{stroke:#ffcafb;}.cls-14,.cls-38{fill:#793b9e;}.cls-15,.cls-16{fill:#d1d1d1;}.cls-18{fill:#a6a8d3;}.cls-19{fill:#8788ae;}.cls-20{fill:#3c2744;}.cls-21{stroke:#d1d1d1;stroke-linecap:round;stroke-width:0.5px;}.cls-22{fill:#7474b2;}.cls-23{fill:#df8ae2;}.cls-24{fill:#ff63d6;}.cls-25,.cls-28,.cls-30{stroke:#4a056b;}.cls-25,.cls-28{stroke-linejoin:bevel;}.cls-26{fill:#4a056b;}.cls-27{fill:#fff;}.cls-29{fill:#85579b;}.cls-31{stroke:#e1b8f4;}.cls-32{stroke:#ff63d6;stroke-width:7px;}.cls-33{stroke:#c98dbe;stroke-width:3px;}.cls-34{fill:url(#Degradado_sin_nombre_33-2);}.cls-35{fill:#ac52ba;}.cls-36{fill:url(#Degradado_sin_nombre_42);}.cls-37{fill:#211c27;}</style><linearGradient id="Degradado_sin_nombre_14" y1="785.22" x2="651.5" y2="785.22" gradientUnits="userSpaceOnUse"><stop offset="0" stop-color="#272a39"/><stop offset="0.46" stop-color="#666892"/><stop offset="0.83" stop-color="#9494d4"/><stop offset="1" stop-color="#a6a6ed"/></linearGradient><linearGradient id="Degradado_sin_nombre_23" x1="24.25" y1="381.64" x2="589.31" y2="381.64" gradientUnits="userSpaceOnUse"><stop offset="0" stop-color="#272a39"/><stop offset="0.19" stop-color="#666885"/><stop offset="0.39" stop-color="#a6a6d1"/><stop offset="0.49" stop-color="#bfbfef"/><stop offset="0.73" stop-color="#737494"/><stop offset="0.91" stop-color="#3c3f52"/><stop offset="1" stop-color="#272a39"/></linearGradient><linearGradient id="Degradado_sin_nombre_33" x1="170.88" y1="247.63" x2="635.75" y2="247.63" gradientUnits="userSpaceOnUse"><stop offset="0" stop-color="#1e1f23"/><stop offset="0.5" stop-color="#794591"/><stop offset="0.84" stop-color="#b25ed5"/><stop offset="1" stop-color="#c867f0"/></linearGradient><linearGradient id="Degradado_sin_nombre_33-2" x1="574.38" y1="109.24" x2="589.68" y2="109.24" xlink:href="#Degradado_sin_nombre_33"/><linearGradient id="Degradado_sin_nombre_42" x1="243.49" y1="113.39" x2="253.22" y2="113.39" gradientUnits="userSpaceOnUse"><stop offset="0" stop-color="#1e1f23"/><stop offset="1" stop-color="#17191e"/></linearGradient></defs><title>Recurso 10final trans</title><g id="Capa_2" data-name="Capa 2"><g id="Capa_2-2" data-name="Capa 2"><ellipse class="cls-1" cx="325.75" cy="785.22" rx="325.75" ry="115.5"/><ellipse class="cls-2" cx="441.35" cy="836.72" rx="92.16" ry="19" transform="translate(-79.37 46.95) rotate(-5.59)"/><path class="cls-3" d="M124.94,416.39c10.21,19-27.88,41.67-22.44,74.79,5.37,32.68,51,62.45,88.92,58.17,37.73-4.25,44.21-39.48,74-39.05,34.79.5,42.19,48.92,87.25,84.76,54.16,43.07,151,58.66,200.28,15,42.62-37.82,42-113.31,27.42-161.22C558.51,377.25,499.42,347.56,513,309.19c9.09-25.66,38.53-20.88,51.52-49.86,16.44-36.66-7.07-97-47.37-120.49-72.27-42.11-183.34,43.25-192.79,50.69C257,242.53,263,286.75,213.85,300.88c-72.23,20.77-128.67-62.16-167-36.56-32.15,21.46-29.73,104.6,5.82,131.3C78.88,415.32,115.22,398.31,124.94,416.39Z"/><path class="cls-4" d="M109.39,125.16A6.61,6.61,0,0,0,106,127c-2.36,2.3-5.54,6.77.58,10.39,8.61,5.1,20.93-5.1,22.16-6.81s7.39-1.7,4.92-8.5-6.15-5.1-8.61-1.7C123.61,122.34,114.07,124.27,109.39,125.16Z"/><polygon class="cls-5" points="561.5 411.72 378.5 426.72 414.5 327.72 582.5 347.72 561.5 411.72"/><polygon class="cls-5" points="367.5 444.72 130.5 464.72 109.5 336.72 341.5 322.72 367.5 444.72"/><polygon class="cls-6" points="285 824.22 131.5 736.72 131 464.22 285.5 508.72 285 824.22"/><polygon class="cls-6" points="539.5 762.72 284.5 824.72 285.5 508.72 539.5 479.72 539.5 762.72"/><polygon class="cls-6" points="285.5 508.72 130.5 463.72 50.5 365.72 188.5 397.72 285.5 508.72"/><polygon class="cls-7" points="238.5 455.61 341.1 446.95 285.5 508.72 238.5 455.61"/><path class="cls-8" d="M131,667.22c-28,2-28.81-.71-52.5,1.5-22.53,2.1-42,11.88-34,28,30.81,62.28,512.09-148.91,579-82,18.5,18.5-34.29,107-45.5,125.5"/><path class="cls-9" d="M131,672.22c-29.63-13.58-57.14-11.34-68,3-.74,1-6.23,8.46-5,18,3.58,27.78,60,41,64,42,82.17,19.34,133.6-91.73,288-152,85-33.17,175.73-41,189-15,10.4,20.4-29.42,56.45-18,71,8.47,10.78,83.94-22.05,117-36"/><path class="cls-10" d="M585.33,158.78s-7.28-72.35-63.71-58.44c-1.59.39-3.19-.55-4.11-2.35-2.37-4.68-8.07-13.48-18.9-18h0s5.22-18-24.87-14.58-61.44-13.58-63.95-39c-2.46-24.93-80.57-46.67-111,11.43a19.59,19.59,0,0,1-5.89,7A52.61,52.61,0,0,1,281.43,51a41.83,41.83,0,0,1-9.68,2.43c-53.83-74.5-69.55-45-83.9-30.41-5,5.1-27.59-3.39-47.65,27.16-18,27.35-12.81,52-11.53,56.84a4.08,4.08,0,0,0,.75,1.55c2.43,3,12.93,13.52,19.56-19.35,7.52-37.34,17.55-23.76,22.57-25.46s-23.83,35.64-16.3,69.59c6.57,29.64,27.47,37.28,32.67,38.74a2.83,2.83,0,0,1,1.69,1.52c2.54,5,16.33,23.28,78.49,5.57,0,0,27.58-8.49,52.66,10.18s21.32-18.67-2.51-22.06,6.59-21.69,17.56-8.49c11.28,13.58,21.31,8.49,21.31,8.49s22.57-13.58,26.34-10.19c2.46,2.23,7.08,2.27,10,2,2.05-.17,3.32-3.28,2.22-5.64-1.24-2.66-4.57-5.51-12.85-6.42l1.35-.6c7.18-.55,20-3.79,20.62-2.95,1.65,2.25,5.89,5.59,9.77,7.64,6.47,3.42,13.83,3.34,13.86,3.4a95.2,95.2,0,0,0,17.32,1.69,25.11,25.11,0,0,1,22.51,13.58c7.86,15.15-2.54,41.4-8.66,50.92-5,7.73-17.81,16.92-32.91,25.46-23.55,13.33-52.77,22.09-67.54-1.69,0,0,6.93-6.79,0-15.28H340.07c-13.86-3.4-41.57-1.7-43.13,16.12-1.38,15.66,5.75,3.08,15.29,2.12C314.9,253,299,269,281.89,265.71c-17.55-3.39-51.41-8.48-40.12,8.49,8.26,12.43,31.33,10.29,43.08,8.26,5.57-1,11,3.32,12.84,10.49a17.39,17.39,0,0,1,.5,6.71c-1.25,8.49-12.54,6.79-12.54-1.7s-16.3-5.09-23.82-1.7-5,18.67,2.51,15.28,20.06-3.39,21.31,1.7-8.78,3.39-12.54,8.48c-3,4.13-27.46,6-36.65,6.6a21.45,21.45,0,0,0-7.78,2c-8.22,3.84-24.18,13.24-10.74,23.63,5.18,4,11.78,6.69,18.52,8.47,4.86,1.29,4.74,10.74-.15,11.74l-.81.16c-25.08,5.09-22.57,0-25.08,15.28s45.14,8.48,56.42,8.48-1.25,8.49-3.76,18.67c-1.82,7.38,12.17,5,20,3.07a24.39,24.39,0,0,0,8.62-4.07c8.31-6.06,28.58-19.22,31.56-5.78,3.58,16.17-13.33,29.26,5.69,37.8a19.86,19.86,0,0,0,4.78,1.48c4.28.73,14.89,3.43,10.85,11.64-5,10.18-12.54-3.4-13.8,10.18s5.39,17.47,6.27,18.67,8.85,3.69,12.23,4.65c-2-.86-5.93-3.48-11-11.44-7.53-11.88,12.53-11.88,16.3-17s-6.45-9-5-18.67c1.25-8.49,2.51-5.1,10-6.79s3.76-6.79,11.29-23.77c5.37-12.12,12.66-6.92,16.39-3a13.35,13.35,0,0,0,6.67,4.07c5.11,1.14,13.28,2.31,15.81-1.11,3.76-5.09-2.51-8.08-2.51-11.88,0-5.09,17.56-8.48,21.32-5.09,2.95,2.66,12.54-3.39,7.52-8.49s-13.23-1.11-13.79-3.39c-1.25-5.08,26.69-16.51-26.26-13.72a15.14,15.14,0,0,1-5.53-.76c-8.67-2.86-30.65-11.89,16.31-17.57a12.29,12.29,0,0,0,3.66-1c5.42-2.46,17.76-9.65-19.53-11-45.14-1.7,5-30.55,26.33-27.16s22.4,2.68,23.83,8.49c1.25,5.09-12.25,14.47-15.05,22.06-2.51,6.79-7.48,25.38,33.55,13.67a2.66,2.66,0,0,1,.49-.1c.78-.07,3.82-.63,4.74-4.93.62-2.92,2.26-5.26,4.46-5.81,3.35-.84,7.15-2.89,5.66-7.92-2.51-8.48-7.52-11.88-13.79-13.58-5.74-1.55-4.13-22.75,35.59-22.7,3.85,0,5.58,2.05,8.29,5.73a7.37,7.37,0,0,0,6.27,3.39c10,0,17.56-3.39,18.81-8.48s0-16.74-43.81-12a3.57,3.57,0,0,1-3.44-1.85c-1.87-3.1-1.34-10,22.17-21.77,0,0,13.44-5-6.7-19.77a5.06,5.06,0,0,1-1.53-1.93c-2.62-5.6-9.19-27.4,40.84-37.7C595.37,199.52,585.33,158.78,585.33,158.78ZM386.24,124.72c-25.77,10-22.8-8-32.71-10a30,30,0,0,0-17.85,2c-4.41-7.69-16.3-3.8-18.53-2.78a5.53,5.53,0,0,1-.86.31c-73.08,18.63-74.3,10.12-74.3,10.12-14.71-13.66-6.13-20.49-2.45-29S261,87.65,265.9,91.07c4.08,2.84,19.22,4.5,24.17,5a12.33,12.33,0,0,1,3,.68,66.51,66.51,0,0,0,45.81-1.39c25.74-10.25,1.23-34.16,19.61-30.75s28.2,59.78,28.2,59.78Z"/><path class="cls-11" d="M171,64.38a49.29,49.29,0,0,1,5.62-7,32,32,0,0,1,7-5.59,14.15,14.15,0,0,1,8.62-2,11.89,11.89,0,0,1,4.2,1.47A16.28,16.28,0,0,1,199.85,54a16.73,16.73,0,0,0-3.54-2.62,11.79,11.79,0,0,0-4.16-1.29,13.68,13.68,0,0,0-8.26,2.25,31.25,31.25,0,0,0-6.61,5.7,48.41,48.41,0,0,0-5.22,7Z"/><path class="cls-11" d="M188.14,173.07a21.51,21.51,0,0,1-3.71-6.69,29,29,0,0,1-1.54-7.41,35.53,35.53,0,0,1,.36-7.53c.15-1.24.5-2.45.75-3.68s.72-2.4,1.07-3.6c-.31,1.21-.66,2.41-.95,3.63s-.51,2.45-.62,3.69a31,31,0,0,0-.26,3.72,35.67,35.67,0,0,0,.14,3.73,29.07,29.07,0,0,0,1.75,7.19,20.72,20.72,0,0,0,3.73,6.25Z"/><path class="cls-11" d="M231.87,74.43a13.78,13.78,0,0,0-7.79,2.85,10.53,10.53,0,0,0-3.81,7.14,22.94,22.94,0,0,0,.78,8.27,54,54,0,0,0,2.81,7.92,64.79,64.79,0,0,0,8.78,14.32,68.09,68.09,0,0,0,5.62,6.23,19.9,19.9,0,0,0,3.43,2.33,17.28,17.28,0,0,0,3.79,1.63l-.14.67a17.66,17.66,0,0,1-4-1.63,20.68,20.68,0,0,1-3.62-2.37A65.76,65.76,0,0,1,223.07,101a54.16,54.16,0,0,1-2.72-8.09,22.49,22.49,0,0,1-.64-8.53A11,11,0,0,1,223.87,77,14,14,0,0,1,231.87,74.43Z"/><path class="cls-11" d="M239.25,86.33A29.13,29.13,0,0,0,231,94a12.25,12.25,0,0,0-2.15,5.12,11.05,11.05,0,0,0,.76,5.43,46.4,46.4,0,0,0,5.39,9.9,102.47,102.47,0,0,0,6.93,9l-.75.66a103.15,103.15,0,0,1-6.87-9.16,46.75,46.75,0,0,1-5.32-10.15,15.87,15.87,0,0,1-.72-2.81,9,9,0,0,1,.06-2.93,12.66,12.66,0,0,1,2.38-5.23A29.29,29.29,0,0,1,239.25,86.33Z"/><path class="cls-11" d="M185.15,24.76a48.54,48.54,0,0,1,7.36-2.27,19.77,19.77,0,0,1,3.84-.47,7.18,7.18,0,0,1,2,.23A2.9,2.9,0,0,1,200,23.32a.15.15,0,0,1,0,.21.16.16,0,0,1-.2,0,2.57,2.57,0,0,0-1.52-.87,6.71,6.71,0,0,0-1.85-.13,18.86,18.86,0,0,0-3.7.64,47,47,0,0,0-7.11,2.55h0a.5.5,0,1,1-.4-.91Z"/><path class="cls-11" d="M334.57,116.47a7.31,7.31,0,0,0-4.36-3.34,14.61,14.61,0,0,0-5.75-.32,29.13,29.13,0,0,0-5.74,1.32c-.47.16-.93.32-1.39.5s-.52.14-.78.22l-.73.18-2.91.73c-7.76,1.93-15.55,3.77-23.38,5.45s-15.7,3.19-23.64,4.32c-4,.56-8,1-12,1.2a49.92,49.92,0,0,1-6.11-.07,17,17,0,0,1-3.11-.49,6.88,6.88,0,0,1-1.59-.6,3.57,3.57,0,0,1-.82-.55,3.61,3.61,0,0,1-.39-.45,2.55,2.55,0,0,1-.17-.33,1.68,1.68,0,0,1-.11-.55l.3.71h0a45.33,45.33,0,0,1-5.26-5.88,16.8,16.8,0,0,1-3.28-7.29,13.45,13.45,0,0,1,1.48-7.84c1.14-2.38,2.58-4.53,3.72-6.81.28-.57.53-1.13.86-1.76.16-.3.37-.58.55-.87l.65-.79a12.42,12.42,0,0,1,3.21-2.43,22.87,22.87,0,0,1,7.53-2.32,34.86,34.86,0,0,1,7.84-.2,26,26,0,0,1,3.9.63,11.83,11.83,0,0,1,3.73,1.5,16.21,16.21,0,0,0,3.41,1.52c1.21.42,2.44.78,3.68,1.12,2.48.68,5,1.25,7.51,1.78s5.06,1,7.6,1.41c1.27.2,2.54.39,3.81.54a15.13,15.13,0,0,1,3.89.8,48.48,48.48,0,0,0,15.1,2.29,70.73,70.73,0,0,0,15.27-1.74,82.6,82.6,0,0,0,14.61-4.76A21.18,21.18,0,0,0,347.9,89a13.31,13.31,0,0,0,3.47-6.54,22.62,22.62,0,0,0,.06-7.57l-.56-3.83a14,14,0,0,1-.13-4,3.61,3.61,0,0,1,.92-1.95,3.83,3.83,0,0,1,1.91-1,11.93,11.93,0,0,1,4,0,12.05,12.05,0,0,1,3.83,1.08,15.38,15.38,0,0,1,3.33,2.17,29.24,29.24,0,0,1,5.15,5.91,58.87,58.87,0,0,1,3.89,6.76,114.28,114.28,0,0,1,5.78,14.43A224.43,224.43,0,0,1,387,124.64l-1,.16a221.54,221.54,0,0,0-7.32-30A112.09,112.09,0,0,0,373,80.45c-2.28-4.57-4.95-9.11-8.81-12.42a12.55,12.55,0,0,0-6.74-3,11,11,0,0,0-3.71,0,2.92,2.92,0,0,0-1.48.76,2.76,2.76,0,0,0-.7,1.51,13.4,13.4,0,0,0,.14,3.72l.57,3.84a23.52,23.52,0,0,1-.07,7.85,14.1,14.1,0,0,1-3.68,7,22,22,0,0,1-6.46,4.49,82.36,82.36,0,0,1-14.8,4.84,71.12,71.12,0,0,1-15.46,1.79,49.5,49.5,0,0,1-15.41-2.33,13.76,13.76,0,0,0-3.68-.75c-1.3-.15-2.58-.34-3.86-.54q-3.84-.63-7.64-1.41c-2.54-.53-5.07-1.1-7.57-1.78-1.26-.35-2.5-.71-3.74-1.14a17.3,17.3,0,0,1-3.64-1.63,11.24,11.24,0,0,0-3.43-1.36,24.63,24.63,0,0,0-3.75-.6,34,34,0,0,0-7.61.2,22.27,22.27,0,0,0-7.2,2.22,11.36,11.36,0,0,0-2.94,2.23c-.2.23-.39.47-.58.71s-.34.5-.49.77c-.28.51-.54,1.13-.83,1.72-1.14,2.36-2.56,4.54-3.62,6.83a11.82,11.82,0,0,0-1.26,7.17,15.36,15.36,0,0,0,3.24,6.6,39.4,39.4,0,0,0,5.32,5.41h0l.3.7c0-.22,0-.15,0-.18s0,0,0,0a.74.74,0,0,0,.1.11,1.9,1.9,0,0,0,.42.28,5.65,5.65,0,0,0,1.2.46,15.74,15.74,0,0,0,2.8.47,46,46,0,0,0,5.88.13c3.95-.14,7.92-.54,11.87-1,7.9-1,15.76-2.46,23.58-4s15.63-3.34,23.4-5.19l2.92-.69c.46-.12,1-.23,1.4-.35s.95-.35,1.43-.51a30.54,30.54,0,0,1,5.93-1.35,15.54,15.54,0,0,1,6.14.37,8.38,8.38,0,0,1,4.95,3.76Z"/><path class="cls-11" d="M271.45,54.31c-8.55-11.62-17.54-23-28-32.91-1.32-1.23-2.62-2.47-4-3.6-.69-.58-1.36-1.17-2.06-1.74l-2.13-1.63-1.07-.81-1.11-.75c-.75-.5-1.48-1-2.23-1.49a48.26,48.26,0,0,0-4.68-2.55A27.85,27.85,0,0,0,216.06,6a20.08,20.08,0,0,0-5.19.35A21.42,21.42,0,0,0,206,8.11a33.74,33.74,0,0,0-8.47,6.29c-2.57,2.48-4.93,5.21-7.4,7.87l-.94,1-.48.49-.24.25-.31.27a7.29,7.29,0,0,1-2.75,1.33,41.6,41.6,0,0,1-5.47.91,68.09,68.09,0,0,0-10.53,1.92,43.29,43.29,0,0,0-9.78,4.1,47.87,47.87,0,0,0-8.5,6.37,72.08,72.08,0,0,0-13,16.94,78.94,78.94,0,0,0-8,19.82A72.36,72.36,0,0,0,128,96.91a55,55,0,0,0,1.54,10.52,3.12,3.12,0,0,0,.44,1,12.69,12.69,0,0,0,2.67,2.58,5.55,5.55,0,0,0,4.39,1.12,7.12,7.12,0,0,0,3.83-2.75,22.11,22.11,0,0,0,2.64-4.47,58.94,58.94,0,0,0,3.38-10.12c.43-1.74.81-3.49,1.18-5.25s.74-3.56,1.18-5.33a84.87,84.87,0,0,1,3.17-10.49,36.46,36.46,0,0,1,2.36-5,16.36,16.36,0,0,1,3.59-4.45A9,9,0,0,1,161,62.72a7.86,7.86,0,0,1,3-.42,30.81,30.81,0,0,1,5.44,1.08,6.1,6.1,0,0,0,1.16.12,2.52,2.52,0,0,0,.49-.07l.11,0,.21-.06a1.34,1.34,0,0,1,.91.06,1,1,0,0,1,.52.48,1.16,1.16,0,0,1,.15.48,1.68,1.68,0,0,1,0,.32.93.93,0,0,1,0,.26,4.74,4.74,0,0,1-.21.79c-.16.48-.34.91-.53,1.34-.75,1.69-1.58,3.3-2.38,4.92-1.63,3.23-3.22,6.46-4.71,9.74A130.6,130.6,0,0,0,157.7,102a76.51,76.51,0,0,0-2.85,21.19,53.9,53.9,0,0,0,1.21,10.6l1.35,5.19c.58,1.68,1.16,3.37,1.77,5a51.39,51.39,0,0,0,11.67,17.68,43,43,0,0,0,8.45,6.45,44.89,44.89,0,0,0,4.74,2.41c.82.33,1.64.68,2.48,1,.41.15.83.28,1.25.4l.32.1.41.14a3,3,0,0,1,.77.47,3.89,3.89,0,0,1,1,1.32c.22.38.42.74.64,1.11l.74,1c.25.35.56.66.84,1a18.71,18.71,0,0,0,1.85,1.82c.64.59,1.4,1,2.09,1.58a34.72,34.72,0,0,0,9.65,4.23c6.86,1.91,14.13,2.18,21.28,1.82.9,0,1.8,0,2.69-.11l2.69-.27c1.78-.19,3.57-.35,5.36-.56l5.33-.86c1.78-.28,3.56-.54,5.32-1l5.28-1.12,2.64-.57,2.62-.68c3.51-.91,6.91-1.84,10.52-2.74a65.37,65.37,0,0,1,21.83-.93,60.68,60.68,0,0,1,20.89,6.41l2.4,1.33a21.49,21.49,0,0,1,2.35,1.41c1.51,1,3.06,2.06,4.52,3.08a34.09,34.09,0,0,0,4.5,2.81,15.58,15.58,0,0,0,4.86,1.7,5.14,5.14,0,0,0,4.43-1.12,6.57,6.57,0,0,0,1.54-4.49,15.65,15.65,0,0,0-.89-5.07,22,22,0,0,0-2.28-4.71,23.29,23.29,0,0,0-7.42-7.33,20.6,20.6,0,0,0-2.31-1.25,24.31,24.31,0,0,0-2.45-.95,22,22,0,0,0-2.54-.65l-2.67-.48a17.75,17.75,0,0,1-5.35-1.78l-.62-.41-.3-.21-.29-.27c-.18-.19-.37-.35-.54-.56l-.44-.69a3.68,3.68,0,0,1,0-3.19,7.1,7.1,0,0,1,1.77-2.38,14.23,14.23,0,0,1,2.29-1.69,21.3,21.3,0,0,1,5.13-2.2,20.8,20.8,0,0,1,11.07-.34,13.87,13.87,0,0,1,5.05,2.52,15.28,15.28,0,0,1,2,2l1.77,2a24.17,24.17,0,0,0,8.59,6,14.59,14.59,0,0,0,5.07,1.09,11.67,11.67,0,0,0,5-.85l0,0a147.14,147.14,0,0,1,16-8.3c1.39-.59,2.8-1.15,4.25-1.61a15,15,0,0,1,4.58-.87,2.7,2.7,0,0,1,.63,0,2.57,2.57,0,0,1,.64.15,3.25,3.25,0,0,1,1.13.67,6.48,6.48,0,0,0,1.8,1,13.83,13.83,0,0,0,4.23.77c.73,0,1.46,0,2.2,0l1.1-.07a2.14,2.14,0,0,0,.79-.28,3.76,3.76,0,0,0,1.3-3.48A6.1,6.1,0,0,0,393.4,152a11.84,11.84,0,0,0-3.67-2.2,29.12,29.12,0,0,0-8.62-1.75,71.57,71.57,0,0,0-8.91,0l-.06-1a73.86,73.86,0,0,1,9.05,0,30.57,30.57,0,0,1,8.93,1.8,13.09,13.09,0,0,1,4,2.39,7.17,7.17,0,0,1,2.43,4.1,5.32,5.32,0,0,1-.26,2.47,4.08,4.08,0,0,1-1.51,2.06,2.94,2.94,0,0,1-1.3.46c-.38,0-.77.06-1.15.07-.76,0-1.53,0-2.29,0a15.22,15.22,0,0,1-4.58-.84,7.76,7.76,0,0,1-2.1-1.17l-.24-.2c-.08-.06-.12-.07-.18-.11a.93.93,0,0,0-.36-.17,1.56,1.56,0,0,0-.45-.1,2,2,0,0,0-.49,0,14.1,14.1,0,0,0-4.21.83c-1.4.45-2.78,1-4.14,1.58a144.62,144.62,0,0,0-15.85,8.28l0,0h0a12.88,12.88,0,0,1-5.6,1,16.08,16.08,0,0,1-5.48-1.15,25.39,25.39,0,0,1-9.05-6.3L335.42,160a14.29,14.29,0,0,0-1.85-1.8,12.72,12.72,0,0,0-4.59-2.26,19.48,19.48,0,0,0-10.35.36,20.14,20.14,0,0,0-4.81,2.07,8.67,8.67,0,0,0-3.51,3.46,2.37,2.37,0,0,0,0,2,4.45,4.45,0,0,0,1.67,1.57,16.26,16.26,0,0,0,4.91,1.59c.87.15,1.74.3,2.68.48a21,21,0,0,1,2.7.69,24.2,24.2,0,0,1,2.61,1,22.33,22.33,0,0,1,2.46,1.32,24.53,24.53,0,0,1,7.9,7.77,22.67,22.67,0,0,1,2.43,5,16.51,16.51,0,0,1,1,5.56,8,8,0,0,1-2,5.5,5.57,5.57,0,0,1-2.71,1.45c-.25.05-.5.12-.75.16l-.74,0a6.09,6.09,0,0,1-.74,0l-.73-.09a16.7,16.7,0,0,1-5.33-1.85,35.45,35.45,0,0,1-4.7-2.92c-1.5-1-3-2-4.45-3a20.45,20.45,0,0,0-2.29-1.38l-2.35-1.29a58.85,58.85,0,0,0-20.38-6.23,63.81,63.81,0,0,0-21.31.92c-1.71.39-3.45.91-5.22,1.35l-5.26,1.39-2.64.69-2.66.57-5.32,1.14c-1.77.42-3.57.68-5.36,1l-5.38.87c-1.81.22-3.62.38-5.43.57l-2.71.28c-.91.06-1.82.08-2.73.12-7.26.37-14.66.11-21.78-1.86a36,36,0,0,1-10.13-4.44c-.74-.56-1.54-1-2.24-1.68a19.77,19.77,0,0,1-2-2c-.31-.36-.64-.69-.92-1.08l-.82-1.16c-.25-.41-.48-.84-.71-1.25a2.59,2.59,0,0,0-.62-.79,2.65,2.65,0,0,0-.39-.23l-.23-.08-.33-.1c-.44-.13-.89-.26-1.32-.43-.88-.29-1.73-.64-2.59-1a45.59,45.59,0,0,1-4.93-2.5,44.77,44.77,0,0,1-8.76-6.67,52.93,52.93,0,0,1-12.07-18.25c-.64-1.72-1.23-3.46-1.83-5.19l-1.39-5.31a55.82,55.82,0,0,1-1.26-10.92,78.47,78.47,0,0,1,2.89-21.68A132.45,132.45,0,0,1,163.56,81c1.5-3.31,3.11-6.57,4.73-9.8.8-1.62,1.63-3.24,2.34-4.85a11.13,11.13,0,0,0,.47-1.18,2.73,2.73,0,0,0,.14-.52.12.12,0,0,0,0-.08s0-.06,0,0a.59.59,0,0,0,.34.42c.25.09.28,0,.24,0l-.11,0-.22,0a3.63,3.63,0,0,1-.85.12,6.88,6.88,0,0,1-1.54-.15,32.5,32.5,0,0,0-5.17-1,6.45,6.45,0,0,0-4.43,1.52,14.8,14.8,0,0,0-3.17,4,36,36,0,0,0-2.24,4.78A83.26,83.26,0,0,0,151,84.59c-.43,1.74-.79,3.51-1.16,5.26s-.76,3.57-1.2,5.34a59.78,59.78,0,0,1-3.48,10.44,24.05,24.05,0,0,1-2.86,4.84,8.93,8.93,0,0,1-4.85,3.4,6.33,6.33,0,0,1-3.12-.09,9.08,9.08,0,0,1-2.71-1.31,13.33,13.33,0,0,1-2.18-1.91,10.44,10.44,0,0,1-1-1.14,4.91,4.91,0,0,1-.69-1.49A56.69,56.69,0,0,1,126.21,97a74,74,0,0,1,2.09-21.79,80.58,80.58,0,0,1,8.18-20.3l2.85-4.69c1-1.52,2-3,3.17-4.48a63.26,63.26,0,0,1,7.34-8.19A49.67,49.67,0,0,1,158.7,31a44.83,44.83,0,0,1,10.2-4.23,69.22,69.22,0,0,1,10.79-1.94,38.84,38.84,0,0,0,5.23-.84A5.65,5.65,0,0,0,187,23l.2-.17.24-.23.46-.49.93-1c2.46-2.63,4.84-5.37,7.49-7.91a35.17,35.17,0,0,1,8.9-6.54,22.39,22.39,0,0,1,5.3-1.86,21.5,21.5,0,0,1,5.6-.36,29.32,29.32,0,0,1,10.66,3,51.36,51.36,0,0,1,4.83,2.65c.77.5,1.52,1,2.28,1.54l1.13.77,1.09.83,2.17,1.67c.7.58,1.39,1.18,2.08,1.77,1.41,1.16,2.73,2.42,4.05,3.66C254.92,30.45,263.8,42,272.26,53.73Z"/><path class="cls-11" d="M316.51,126.15a103.2,103.2,0,0,1,12.35-7,62.43,62.43,0,0,1,13.4-4.81,28.17,28.17,0,0,1,7.17-.72,16.05,16.05,0,0,1,3.63.57,18.8,18.8,0,0,1,3.39,1.42,22,22,0,0,1,5.69,4.53,66.06,66.06,0,0,0,4.72,5.15,8.77,8.77,0,0,0,2.8,1.65,8.87,8.87,0,0,0,3.22.43,22.36,22.36,0,0,0,6.65-1.49c2.18-.79,4.36-1.72,6.49-2.68s4.24-2,6.3-3.1,4.09-2.27,6-3.57a49.71,49.71,0,0,0,5.58-4.21,26.5,26.5,0,0,0,4.66-5.15,10.46,10.46,0,0,0,2-6.57,10.32,10.32,0,0,1-1.41,6.9,24.88,24.88,0,0,1-4.46,5.63,56.3,56.3,0,0,1-11.61,8.34,90.61,90.61,0,0,1-13,5.89,24.08,24.08,0,0,1-7.14,1.53,10.53,10.53,0,0,1-3.75-.54,10.14,10.14,0,0,1-3.26-1.95,66.61,66.61,0,0,1-4.81-5.3,21.07,21.07,0,0,0-5.29-4.32c-3.93-2.46-8.81-2.33-13.35-1.45a68.58,68.58,0,0,0-13.35,4.37A117.41,117.41,0,0,0,316.51,126.15Z"/><path class="cls-11" d="M377.92,146.93c3.09,0,6.31-.37,9.46-.66s6.32-.68,9.46-1.13c1.57-.23,3.13-.48,4.67-.8.77-.16,1.53-.33,2.25-.55a17.59,17.59,0,0,0,2.09-.92,51.74,51.74,0,0,0,8.07-4.83,32.32,32.32,0,0,0,6.64-6.52,23.47,23.47,0,0,0,4-8.28c1.5-6,.39-12.44-2.17-18.09a33.57,33.57,0,0,0-4.91-7.89,11.85,11.85,0,0,0-1.59-1.58c-.23-.18-.65-.46-1-.71s-.64-.54-.94-.81c-1.21-1.09-2.33-2.23-3.46-3.35a77.36,77.36,0,0,0-6.95-6.41,13.11,13.11,0,0,0-3.87-2.23,2.8,2.8,0,0,0-1.83,0,2.55,2.55,0,0,0-1.25,1.31,7.53,7.53,0,0,0-.71,4.21A14.92,14.92,0,0,0,397.12,92a33.92,33.92,0,0,0,5.1,7.82c.5.61,1,1.2,1.55,1.77.27.29.54.57.82.85s.55.52.88.9a3.8,3.8,0,0,1,.68,2.58,8.13,8.13,0,0,1-.62,2.42,20.42,20.42,0,0,1-2.44,4.18,33,33,0,0,1-3.09,3.67,30.38,30.38,0,0,0,4.84-8.11c.5-1.42.74-3.1-.13-4.13-.21-.22-.53-.49-.83-.77s-.59-.55-.88-.83c-.58-.57-1.13-1.15-1.68-1.75a34.07,34.07,0,0,1-5.47-8,16.47,16.47,0,0,1-1.45-4.78,8.65,8.65,0,0,1,.83-5.08,4,4,0,0,1,2-2,4.23,4.23,0,0,1,2.85,0,14.25,14.25,0,0,1,4.39,2.47,79.1,79.1,0,0,1,7.12,6.52c1.13,1.12,2.25,2.25,3.4,3.29.29.26.59.51.88.75s.55.4.95.7a14.54,14.54,0,0,1,1.81,1.78,35.15,35.15,0,0,1,5.19,8.27,33.82,33.82,0,0,1,2.76,9.37,26.06,26.06,0,0,1-.52,9.79,25.12,25.12,0,0,1-4.28,8.82,33.81,33.81,0,0,1-7,6.79,51.87,51.87,0,0,1-8.34,4.92,19.64,19.64,0,0,1-2.3,1c-.81.24-1.6.4-2.39.56-1.59.3-3.18.53-4.76.73-3.18.42-6.36.73-9.54,1s-6.33.53-9.61.51Z"/><path class="cls-11" d="M312.41,246.92a4,4,0,0,1,.63,3,9.62,9.62,0,0,1-.89,2.78,21.06,21.06,0,0,1-3.26,4.64,33.17,33.17,0,0,1-8.88,6.86,30.51,30.51,0,0,1-10.78,3.38,26.13,26.13,0,0,1-5.73,0c-1.94-.25-3.66-.63-5.48-.92A189.37,189.37,0,0,0,256.4,264a48.08,48.08,0,0,0-10.63.43,10.19,10.19,0,0,0-4.43,1.72,3.13,3.13,0,0,0-1,3.53,13.57,13.57,0,0,0,2.26,4.36,16.34,16.34,0,0,0,3.6,3.54,27.5,27.5,0,0,0,9.5,4.19A68,68,0,0,0,277.09,283c1.8-.15,3.59-.36,5.38-.62l2.75-.42a10.39,10.39,0,0,1,3.15.12,11.78,11.78,0,0,1,5.49,2.73,15.65,15.65,0,0,1,3.65,4.75,20.36,20.36,0,0,1,2,11.47,7.46,7.46,0,0,1-1.13,3.13,6.33,6.33,0,0,1-2.61,2.25,7.84,7.84,0,0,1-6.45-.09,8.39,8.39,0,0,1-4.41-4.6,8.56,8.56,0,0,1-.45-1.55,7.56,7.56,0,0,1-.12-.79l-.07-.67a5.33,5.33,0,0,0-.65-2.1A5.84,5.84,0,0,0,280.1,294a15.14,15.14,0,0,0-5-.5A27.9,27.9,0,0,0,265,296.08a19.63,19.63,0,0,0-2.26,1.23,7,7,0,0,0-1.73,1.54,9.93,9.93,0,0,0-2,4.35,9.83,9.83,0,0,0,.15,4.77,4.44,4.44,0,0,0,1,1.81,2.11,2.11,0,0,0,1.55.64,3.49,3.49,0,0,0,1-.15,10.08,10.08,0,0,0,1.13-.44,23.46,23.46,0,0,1,2.74-1,31.9,31.9,0,0,1,5.63-1.05,31.2,31.2,0,0,1,5.72-.06,17.41,17.41,0,0,1,5.76,1.37,7.23,7.23,0,0,1,2.67,2,5.05,5.05,0,0,1,.84,1.69,4.62,4.62,0,0,1,.1,1.94,3.92,3.92,0,0,1-.91,1.82,6,6,0,0,1-1.34,1.13,16.1,16.1,0,0,1-2.7,1.29c-1.75.68-3.46,1.24-5,2a11.55,11.55,0,0,0-2.09,1.31,7,7,0,0,0-.84.79l-.38.46a4,4,0,0,1-.71.71,9.75,9.75,0,0,1-2.83,1.42,26.77,26.77,0,0,1-2.77.78c-1.84.43-3.68.73-5.52,1-7.34,1-14.68,1.4-22,1.8l-2.74.14c-.92.06-1.81.09-2.65.2a21.59,21.59,0,0,0-5,1.21,37.06,37.06,0,0,0-4.73,2.34,41.64,41.64,0,0,0-4.43,3,25.87,25.87,0,0,0-3.83,3.55,12.93,12.93,0,0,0-2.58,4.24,7.08,7.08,0,0,0,0,4.59,10.8,10.8,0,0,0,2.7,4,18,18,0,0,0,1.95,1.66,13.18,13.18,0,0,0,2.17,1.28,38.15,38.15,0,0,0,4.94,1.95c1.71.57,3.45,1.07,5.21,1.57a27.81,27.81,0,0,1,5.43,1.87,14.14,14.14,0,0,1,2.48,1.7,5.87,5.87,0,0,1,2,2.78,5.52,5.52,0,0,1,.18,1.76l0,.7,0,.65a7.07,7.07,0,0,1-.81,3.17,6.88,6.88,0,0,1-2.19,2.44,8.6,8.6,0,0,1-2.92,1.32c-1.85.37-3.62.71-5.44,1-3.6.68-7.25,1.24-10.79,1.93a12.32,12.32,0,0,0-4.64,1.61c-1.07.76-1.48,2.41-1.8,4.16s-.55,3.58-.84,5.4l-.22,1.37a7.62,7.62,0,0,0-.09,1.15,4.1,4.1,0,0,0,.58,2.06,7.84,7.84,0,0,0,3.71,2.9,24.23,24.23,0,0,0,5,1.5,67.18,67.18,0,0,0,10.74,1.1c3.62.12,7.26.08,10.9,0,7.3-.23,14.56-.88,21.92-1.27a19,19,0,0,1,5.81.31,3.69,3.69,0,0,1,1.64.92,2.67,2.67,0,0,1,.73,2,7.33,7.33,0,0,1-1.05,3c-.94,1.68-2,3.17-3,4.7a46.33,46.33,0,0,0-2.74,4.62,24.56,24.56,0,0,0-1.07,2.41c-.15.41-.29.82-.41,1.23a9.71,9.71,0,0,0-.29,1.19,2.27,2.27,0,0,0,.4,1.82,3.67,3.67,0,0,0,1.83,1,16.62,16.62,0,0,0,5.13.39,48.74,48.74,0,0,0,5.34-.6c1.78-.29,3.56-.66,5.32-1.07a23.08,23.08,0,0,0,5-1.65,25.86,25.86,0,0,0,4.54-2.74q2.23-1.62,4.56-3.13a79,79,0,0,1,9.67-5.46,38.13,38.13,0,0,1,5.24-2,17.72,17.72,0,0,1,5.7-.83,8.64,8.64,0,0,1,3,.63,6.64,6.64,0,0,1,2.53,1.83,10.63,10.63,0,0,1,2.15,5.48,29.32,29.32,0,0,1-.73,11.21c-.83,3.62-2.07,7.09-2.75,10.59a15.25,15.25,0,0,0-.22,5.2,8.85,8.85,0,0,0,2.12,4.53,15.65,15.65,0,0,0,4.08,3.24,24.4,24.4,0,0,0,4.86,2.15,21.57,21.57,0,0,0,2.61.59c.91.18,1.83.39,2.73.64a20.26,20.26,0,0,1,5.23,2.2,10.05,10.05,0,0,1,2.26,1.87,6.51,6.51,0,0,1,1.43,2.68,8,8,0,0,1-1.1,5.74,9.39,9.39,0,0,1-1.75,2.36,5.58,5.58,0,0,1-2.69,1.45c-2.06.44-4-.3-5.6-.35a2.27,2.27,0,0,0-2,.77,5.78,5.78,0,0,0-1,2.23,27.34,27.34,0,0,0-.63,5.31,22.86,22.86,0,0,0,1.91,10.43,15.34,15.34,0,0,0,3.09,4.28l1,1,.28.31a1,1,0,0,0,.15.15,3.94,3.94,0,0,0,.5.33,17.84,17.84,0,0,0,2.42,1.11c3.38,1.3,6.89,2.35,10.4,3.35h0l-.14,1a7.44,7.44,0,0,1-3-1.13,18.6,18.6,0,0,1-2.48-1.82,32.26,32.26,0,0,1-4.14-4.45,56.9,56.9,0,0,1-3.46-4.95,11.62,11.62,0,0,1-1.32-2.83,6.26,6.26,0,0,1-.17-3.22,5.88,5.88,0,0,1,1.6-2.83,11.93,11.93,0,0,1,2.51-1.88,37.74,37.74,0,0,1,5.55-2.44c1.87-.71,3.76-1.35,5.5-2.21a9,9,0,0,0,2.35-1.53,3.69,3.69,0,0,0,1.11-2.27,4.92,4.92,0,0,0-.71-2.54,29.09,29.09,0,0,0-1.57-2.47,24,24,0,0,1-2.95-5.36,12.83,12.83,0,0,1-.64-6.17c.14-1,.3-2,.54-3a10.24,10.24,0,0,1,.48-1.52,3.88,3.88,0,0,1,1-1.45,3.37,3.37,0,0,1,1.66-.71,12.45,12.45,0,0,1,1.57-.13c1,0,2-.08,2.93-.21,1.9-.27,3.94-.59,5.3-1.69s1.84-3.08,2.33-5,.9-3.89,1.44-5.83a80.3,80.3,0,0,1,4.06-11.35,19.31,19.31,0,0,1,3.24-5.26,9.09,9.09,0,0,1,2.52-2,6.74,6.74,0,0,1,3.21-.75,10.25,10.25,0,0,1,5.86,2.35,22.57,22.57,0,0,1,2.32,2,17.82,17.82,0,0,0,2.11,2,11.39,11.39,0,0,0,5.08,2.38,48.2,48.2,0,0,0,5.82.91,19.61,19.61,0,0,0,5.74-.21,5.81,5.81,0,0,0,2.41-1.06A5.13,5.13,0,0,0,410,416a3.89,3.89,0,0,0,0-2.48,10.54,10.54,0,0,0-1.28-2.46,25,25,0,0,1-1.63-2.62,4.45,4.45,0,0,1-.42-3.48,5.76,5.76,0,0,1,2.26-2.54,15.44,15.44,0,0,1,2.79-1.45,30.08,30.08,0,0,1,5.91-1.67,29.11,29.11,0,0,1,6.13-.47,13.65,13.65,0,0,1,3.13.44,6.48,6.48,0,0,1,1.58.66,4.28,4.28,0,0,1,.38.26l.29.24a1.44,1.44,0,0,0,.41.21,3.71,3.71,0,0,0,2.37-.31,8.89,8.89,0,0,0,2.29-1.48,6.16,6.16,0,0,0,2.36-4.52c0-1.63-1.43-3.07-3-3.86a9.51,9.51,0,0,0-5.4-.66c-1,.1-1.9.29-2.9.47-.5.08-1,.17-1.58.21a3.81,3.81,0,0,1-1-.06,1.63,1.63,0,0,1-1.15-.89,2.63,2.63,0,0,1,.17-2.15,8.21,8.21,0,0,1,.9-1.42,30.54,30.54,0,0,1,2.07-2.28,22.4,22.4,0,0,0,3.66-4.38,2.76,2.76,0,0,0,.33-1.08,1.3,1.3,0,0,0-.26-.85,4.69,4.69,0,0,0-2.12-1.25,26.62,26.62,0,0,0-5.66-1.08c-2-.19-3.93-.28-5.91-.33-4-.09-7.94,0-11.92.15l-3,.13-1.49.08a11.49,11.49,0,0,0-1.43.12c-1,.12-2,.26-3,.36a12.26,12.26,0,0,1-3.25,0l-.46-.12-.36-.12-.72-.24-1.43-.52c-.95-.35-1.89-.72-2.82-1.13a27.46,27.46,0,0,1-5.42-3,7.71,7.71,0,0,1-2.27-2.51,3.46,3.46,0,0,1-.36-2,3.67,3.67,0,0,1,.76-1.8,8.59,8.59,0,0,1,2.62-2.08,23.34,23.34,0,0,1,2.85-1.29,72,72,0,0,1,11.74-3c4-.72,7.93-1.27,11.9-1.76a11.82,11.82,0,0,0,2.68-.67,25.3,25.3,0,0,0,2.59-1.23,18.67,18.67,0,0,0,2.39-1.52,4.07,4.07,0,0,0,1.48-1.8.79.79,0,0,0-.14-.68,2.85,2.85,0,0,0-.82-.73,10.56,10.56,0,0,0-2.51-1.08,37.82,37.82,0,0,0-5.71-1.23c-3.89-.59-7.86-.88-11.82-1.1a112.16,112.16,0,0,1-12-.9,29.32,29.32,0,0,1-6-1.51A11.74,11.74,0,0,1,374,342a5.68,5.68,0,0,1-2.09-2.87,5.38,5.38,0,0,1,.3-3.56,10.84,10.84,0,0,1,1.72-2.78,25.84,25.84,0,0,1,4.58-4.19,59.81,59.81,0,0,1,10.54-6.06,79.06,79.06,0,0,1,11.38-4.17,52.11,52.11,0,0,1,12-2,29.2,29.2,0,0,1,3.1.05c1,.07,2.09.25,3.05.4l5.91.91,5.92.92a59.07,59.07,0,0,1,6,1.19,10.16,10.16,0,0,1,3.05,1.3,5.74,5.74,0,0,1,2.11,2.87c.19.52.33,1,.46,1.53l.09.38a4.8,4.8,0,0,1,.09.5,4.46,4.46,0,0,1,0,1,8.36,8.36,0,0,1-1.21,3.17,35.74,35.74,0,0,1-3.76,4.89l-4,4.45c-1.32,1.48-2.61,3-3.75,4.53a22.33,22.33,0,0,0-1.56,2.4,13.78,13.78,0,0,0-1.12,2.57,22,22,0,0,0-1.23,5.57,9.22,9.22,0,0,0,.95,5.21,7.65,7.65,0,0,0,4,3.3,17.84,17.84,0,0,0,5.51,1.13,50.48,50.48,0,0,0,11.65-.92c3.88-.69,7.72-1.66,11.54-2.74a5.26,5.26,0,0,1,.9-.19,3.54,3.54,0,0,0,1.62-.61,4.38,4.38,0,0,0,1.54-1.82,14.27,14.27,0,0,0,.83-2.68,10.48,10.48,0,0,1,1.42-3,6.75,6.75,0,0,1,2.67-2.3,5.2,5.2,0,0,1,.89-.31l.67-.19a11.68,11.68,0,0,0,1.29-.47,4.69,4.69,0,0,0,3.16-3.44,5.78,5.78,0,0,0-.23-2.48l-.45-1.37-.52-1.33a17.66,17.66,0,0,0-2.91-4.81,15.07,15.07,0,0,0-4.34-3.47,19.38,19.38,0,0,0-2.58-1.17c-.45-.15-.9-.32-1.36-.45l-.69-.21-.42-.13a2.68,2.68,0,0,1-.49-.21,4.77,4.77,0,0,1-2.26-3,8.59,8.59,0,0,1-.17-3.41,13.39,13.39,0,0,1,2.52-5.94,24.75,24.75,0,0,1,9.83-7.56,49.09,49.09,0,0,1,11.71-3.48,80.42,80.42,0,0,1,12.07-1.14c1,0,2,0,3,0a8.94,8.94,0,0,1,3.33.66,9.25,9.25,0,0,1,2.77,1.94,24.87,24.87,0,0,1,2,2.39l.9,1.21a12.93,12.93,0,0,0,.87,1,6.26,6.26,0,0,0,2.08,1.45,6.42,6.42,0,0,0,2.5.45c1,0,1.95,0,2.91-.11a25.24,25.24,0,0,0,10.95-3,8.47,8.47,0,0,0,3.58-3.79,7.59,7.59,0,0,0,.49-2.53,6.38,6.38,0,0,0-.45-2.5,8.2,8.2,0,0,0-3.54-3.8A20.78,20.78,0,0,0,520.1,297a54.55,54.55,0,0,0-11.6-1.54c-3.94-.15-7.9-.06-11.86.16-2,.11-4,.27-5.94.43l-3,.29-1.56.15a4.57,4.57,0,0,1-1.93-.36,5.6,5.6,0,0,1-3-6.23,12.46,12.46,0,0,1,3.19-5.65,46.62,46.62,0,0,1,9.59-7.6c3.41-2.16,7-4.07,10.54-5.88h0l.09,0a6.29,6.29,0,0,0,3.3-3,5.38,5.38,0,0,0-.19-4.36,16.45,16.45,0,0,0-2.79-4.17,39.12,39.12,0,0,0-3.75-3.64c-.68-.57-1.36-1.13-2-1.67l-1.06-.81-.56-.42a5.49,5.49,0,0,1-.61-.57,6.19,6.19,0,0,1-.94-1.31,13.65,13.65,0,0,1-.6-1.34,21.28,21.28,0,0,1-.88-2.7,19.21,19.21,0,0,1,.53-11.23,24,24,0,0,1,6.35-9.19,43.41,43.41,0,0,1,9.08-6.25A91.32,91.32,0,0,1,531,212.64c3.51-.91,7.08-1.56,10.51-2.4a99.86,99.86,0,0,0,10.21-3.05A63.08,63.08,0,0,0,570.16,197a40.23,40.23,0,0,0,12.26-16.74,38.71,38.71,0,0,0,2.35-10.19,36.24,36.24,0,0,0-.46-10.37l0-.09v-.06a104.58,104.58,0,0,0-3.92-18,87.58,87.58,0,0,0-7.13-17A55.52,55.52,0,0,0,562,110.23a39.22,39.22,0,0,0-15.79-8.68,46.17,46.17,0,0,0-18.11-1c-.76.1-1.52.21-2.27.35s-1.51.26-2.26.44l-1.12.24-.56.12a3.86,3.86,0,0,1-.72.12,4.09,4.09,0,0,1-2.77-.87,6,6,0,0,1-1.68-2.11c-.33-.68-.7-1.36-1.07-2A39.87,39.87,0,0,0,513.19,93a38.74,38.74,0,0,0-6.2-6.72,34.79,34.79,0,0,0-16.47-7.79,45.49,45.49,0,0,0-9.26-.69,38.26,38.26,0,0,1,18.41,2.68A36.51,36.51,0,0,1,514.4,92.12a45.26,45.26,0,0,1,2.67,3.93c.4.69.8,1.38,1.16,2.08a4.11,4.11,0,0,0,1.23,1.48,2.34,2.34,0,0,0,1.59.49,4.23,4.23,0,0,0,.43-.07l.58-.14,1.15-.27c.76-.19,1.54-.33,2.31-.48s1.56-.28,2.34-.39a46.59,46.59,0,0,1,18.91.81,41,41,0,0,1,8.87,3.56,43.44,43.44,0,0,1,7.78,5.54,57.4,57.4,0,0,1,11.65,14.91,89.94,89.94,0,0,1,7.31,17.37,106.46,106.46,0,0,1,4,18.42l0-.15a37.61,37.61,0,0,1,.52,11.08A40.89,40.89,0,0,1,584.41,181a42.34,42.34,0,0,1-12.9,17.63,64.93,64.93,0,0,1-19.1,10.53A99.77,99.77,0,0,1,542,212.31c-3.55.86-7,1.51-10.49,2.4a89.21,89.21,0,0,0-20,7.26,41.62,41.62,0,0,0-8.62,5.93,21.79,21.79,0,0,0-5.79,8.35,17,17,0,0,0-.47,10,19,19,0,0,0,.79,2.42,5.9,5.9,0,0,0,1.12,2,3.92,3.92,0,0,0,.37.34l.52.4,1.08.82c.72.56,1.43,1.14,2.13,1.73a40.14,40.14,0,0,1,4,3.86,18.53,18.53,0,0,1,3.16,4.76,9.54,9.54,0,0,1,.73,2.95,6.54,6.54,0,0,1-.57,3.13,7.32,7.32,0,0,1-1.89,2.49,9.23,9.23,0,0,1-2.61,1.61l.11-.05c-3.54,1.79-7,3.67-10.36,5.78a44.37,44.37,0,0,0-9.13,7.22,10.32,10.32,0,0,0-2.68,4.61,3.85,3.85,0,0,0,.23,2.29,3,3,0,0,0,1.48,1.56,2.37,2.37,0,0,0,1,.18l1.43-.14,3-.29c2-.17,4-.33,6-.44,4-.22,8-.32,12.07-.16a56,56,0,0,1,12.08,1.61,23.39,23.39,0,0,1,5.81,2.35,10.37,10.37,0,0,1,4.43,4.85,8.22,8.22,0,0,1,.6,3.35,9.58,9.58,0,0,1-.64,3.31,10.61,10.61,0,0,1-4.46,4.82,27.35,27.35,0,0,1-11.92,3.33c-1,.07-2,.11-3.06.11a8.57,8.57,0,0,1-3.35-.62,8.14,8.14,0,0,1-2.8-1.94,11.13,11.13,0,0,1-1-1.26l-.89-1.18a10.93,10.93,0,0,0-3.94-3.65,6.63,6.63,0,0,0-2.5-.48c-1,0-2,0-2.95,0A80.73,80.73,0,0,0,482.2,309,46.53,46.53,0,0,0,471,312.36a22.48,22.48,0,0,0-9,6.85,11.44,11.44,0,0,0-2.13,5,6.22,6.22,0,0,0,.12,2.52,2.65,2.65,0,0,0,1.15,1.69l.2.08.11,0,.18.06.75.22c.49.14,1,.32,1.48.49a22.24,22.24,0,0,1,2.86,1.3,17.27,17.27,0,0,1,5,4,20.3,20.3,0,0,1,3.27,5.39c.18.48.38,1,.56,1.46l.48,1.47a8,8,0,0,1,.29,3.44,5.88,5.88,0,0,1-1.62,3.21,9,9,0,0,1-2.83,1.88,12.14,12.14,0,0,1-1.53.55l-.76.21a3.35,3.35,0,0,0-.53.19,4.54,4.54,0,0,0-1.79,1.58,8,8,0,0,0-1.13,2.38,16.74,16.74,0,0,1-.95,3,6.59,6.59,0,0,1-2.31,2.67,6.12,6.12,0,0,1-1.64.76,6.52,6.52,0,0,1-.9.18,2.78,2.78,0,0,0-.57.12c-3.86,1.09-7.77,2.07-11.75,2.78a52.39,52.39,0,0,1-12.16.92,20,20,0,0,1-6.17-1.28,9.8,9.8,0,0,1-5-4.22,11.45,11.45,0,0,1-1.21-6.39,24.7,24.7,0,0,1,1.35-6.09,15.85,15.85,0,0,1,1.27-2.91,26.07,26.07,0,0,1,1.71-2.61c1.22-1.66,2.54-3.19,3.88-4.68l4-4.44a32.68,32.68,0,0,0,3.54-4.58,6.51,6.51,0,0,0,.95-2.36,1.83,1.83,0,0,0,0-.52,1.75,1.75,0,0,0,0-.24l-.09-.34a11.75,11.75,0,0,0-.4-1.34,3.57,3.57,0,0,0-1.35-1.89,8.55,8.55,0,0,0-2.43-1c-1.84-.5-3.81-.82-5.76-1.15l-5.91-.92-5.92-.93c-1-.16-1.92-.32-2.88-.38a27.63,27.63,0,0,0-2.88-.05A49.75,49.75,0,0,0,401,320.32a77,77,0,0,0-11.09,4,58.61,58.61,0,0,0-10.19,5.84,23.73,23.73,0,0,0-4.24,3.86c-1.18,1.41-2.09,3.15-1.66,4.57s2.07,2.48,3.79,3.15a26.93,26.93,0,0,0,5.59,1.41c1.93.31,3.89.49,5.86.61l6,.28c4,.23,8,.53,12,1.14a39.83,39.83,0,0,1,6,1.3,12.54,12.54,0,0,1,3,1.3,4.52,4.52,0,0,1,1.37,1.27,2.72,2.72,0,0,1,.4,2.16,4.22,4.22,0,0,1-.93,1.69,8.71,8.71,0,0,1-1.23,1.14,18.78,18.78,0,0,1-2.65,1.69,27.07,27.07,0,0,1-2.82,1.33,13.38,13.38,0,0,1-3.11.78c-4,.48-7.89,1-11.79,1.73a70.43,70.43,0,0,0-11.44,2.88,21.21,21.21,0,0,0-2.6,1.18,6.64,6.64,0,0,0-2.06,1.59,1.58,1.58,0,0,0-.22,1.84,6,6,0,0,0,1.74,1.87,25.85,25.85,0,0,0,5,2.79c.9.39,1.81.75,2.73,1.1l1.39.5.7.24.35.11.26.07a10.28,10.28,0,0,0,2.72,0c1-.09,1.94-.23,2.95-.35.48-.06,1.06-.12,1.55-.13l1.5-.08,3-.12c4-.15,8-.23,12-.13,2,.06,4,.16,6,.36a27.82,27.82,0,0,1,6.07,1.18,9.45,9.45,0,0,1,1.5.67,4.56,4.56,0,0,1,1.41,1.18,3,3,0,0,1,.6,2,4.33,4.33,0,0,1-.52,1.76,23.12,23.12,0,0,1-4,4.79,27.46,27.46,0,0,0-2,2.15,6,6,0,0,0-.72,1.09,1.33,1.33,0,0,0-.16.74c0-.06-.13-.08,0,0a2.66,2.66,0,0,0,.52,0,12.47,12.47,0,0,0,1.38-.18c1-.17,2-.36,3-.48a11.27,11.27,0,0,1,6.31.84,8.35,8.35,0,0,1,2.6,2.05,5.3,5.3,0,0,1,1.28,3.21,6.2,6.2,0,0,1-.85,3.28,9.67,9.67,0,0,1-2.06,2.51,10.23,10.23,0,0,1-2.73,1.74,5.12,5.12,0,0,1-3.47.36,3,3,0,0,1-.9-.47l-.29-.24-.24-.16a4.36,4.36,0,0,0-1.18-.49,11.87,11.87,0,0,0-2.77-.4,27.56,27.56,0,0,0-5.79.43,28,28,0,0,0-5.6,1.56,14.23,14.23,0,0,0-2.52,1.29,4.4,4.4,0,0,0-1.69,1.82,3,3,0,0,0,.35,2.29,25,25,0,0,0,1.52,2.47,11.33,11.33,0,0,1,1.45,2.84,5.35,5.35,0,0,1-.05,3.4,7.43,7.43,0,0,1-.75,1.49,5.32,5.32,0,0,1-1.14,1.29,7.31,7.31,0,0,1-3,1.34,20.77,20.77,0,0,1-6.18.22,50,50,0,0,1-6-1,12.85,12.85,0,0,1-5.65-2.67,20.55,20.55,0,0,1-2.24-2.11,19.42,19.42,0,0,0-2.15-1.92,9,9,0,0,0-5.06-2.09,5.59,5.59,0,0,0-2.56.59,7.76,7.76,0,0,0-2.15,1.7,18.42,18.42,0,0,0-3,4.88,79.89,79.89,0,0,0-4,11.16c-.54,1.91-1,3.84-1.46,5.79a23.7,23.7,0,0,1-.9,2.95,6.64,6.64,0,0,1-1.86,2.69,7.78,7.78,0,0,1-2.92,1.39,24.43,24.43,0,0,1-3,.56c-1,.13-2,.17-3,.21a4.21,4.21,0,0,0-2.49.54,4.52,4.52,0,0,0-1.08,2.33c-.23.93-.4,1.91-.54,2.88a11.75,11.75,0,0,0,.57,5.61,22.87,22.87,0,0,0,2.81,5.11,29.76,29.76,0,0,1,1.62,2.58,5.88,5.88,0,0,1,.83,3.16,4.08,4.08,0,0,1-.47,1.65,5.22,5.22,0,0,1-1,1.35,10.32,10.32,0,0,1-2.64,1.74c-1.85.89-3.75,1.53-5.61,2.23a36.25,36.25,0,0,0-5.4,2.35c-1.65.95-3.21,2.24-3.61,4s.35,3.64,1.35,5.26a54,54,0,0,0,3.38,4.86,30.88,30.88,0,0,0,4,4.32,16.09,16.09,0,0,0,2.33,1.72,8.94,8.94,0,0,0,1.27.65,4.9,4.9,0,0,0,1.24.35l-.13,1h0c-3.55-1-7.07-2-10.53-3.32a20.14,20.14,0,0,1-2.57-1.16,4.86,4.86,0,0,1-.65-.43,2.56,2.56,0,0,1-.33-.33l-.18-.21-1-.94a16.47,16.47,0,0,1-3.33-4.56,24,24,0,0,1-2.09-11,28.76,28.76,0,0,1,.64-5.58,6.85,6.85,0,0,1,1.24-2.73,3.32,3.32,0,0,1,1.35-1,4.46,4.46,0,0,1,1.58-.25,24.79,24.79,0,0,1,2.8.36,7.05,7.05,0,0,0,2.51,0,5.67,5.67,0,0,0,3.56-3.19,6.76,6.76,0,0,0,.94-4.79,6.39,6.39,0,0,0-3.11-3.7,18.93,18.93,0,0,0-4.88-2c-.86-.24-1.73-.43-2.62-.6a21.6,21.6,0,0,1-2.75-.61,25.94,25.94,0,0,1-5.18-2.25,17.3,17.3,0,0,1-4.49-3.53,10.51,10.51,0,0,1-2.5-5.27,16.89,16.89,0,0,1,.2-5.73c.7-3.7,1.92-7.15,2.71-10.68a28.05,28.05,0,0,0,.64-10.58,8.93,8.93,0,0,0-1.79-4.61,5.71,5.71,0,0,0-4.27-1.84,16,16,0,0,0-5.11.8,37.49,37.49,0,0,0-5,2,77.75,77.75,0,0,0-9.41,5.39q-2.26,1.5-4.47,3.11a28,28,0,0,1-4.85,2.94,25.67,25.67,0,0,1-5.39,1.8c-1.8.42-3.61.8-5.44,1.1a48.76,48.76,0,0,1-5.56.65,18.44,18.44,0,0,1-5.78-.45,5.63,5.63,0,0,1-2.83-1.7,4.25,4.25,0,0,1-.84-3.36,11,11,0,0,1,.34-1.49c.14-.46.29-.92.46-1.37a25.41,25.41,0,0,1,1.14-2.61c1.67-3.39,4-6.37,5.74-9.4a5.84,5.84,0,0,0,.79-2.11.56.56,0,0,0-.15-.49,1.78,1.78,0,0,0-.75-.38,18.48,18.48,0,0,0-5.11-.2c-7.26.41-14.59,1.09-21.94,1.34-3.68.14-7.36.19-11.06.08a69.71,69.71,0,0,1-11.1-1.11,25.88,25.88,0,0,1-5.49-1.63,10,10,0,0,1-4.76-3.81,6.56,6.56,0,0,1-.9-3.16,9,9,0,0,1,.12-1.58l.21-1.35c.28-1.8.51-3.61.83-5.46a16.87,16.87,0,0,1,.72-2.86,5.89,5.89,0,0,1,1.92-2.73,8.61,8.61,0,0,1,2.83-1.38c.94-.3,1.86-.49,2.78-.69,3.65-.73,7.24-1.29,10.83-2l5.35-1a6.22,6.22,0,0,0,2-.94,4.7,4.7,0,0,0,1.44-1.61,4.59,4.59,0,0,0,.52-2.1c0-.15,0-.5,0-.72l0-.67a3.11,3.11,0,0,0-.09-1c-.28-1-1.87-2.22-3.26-3a26,26,0,0,0-4.94-1.66c-1.77-.5-3.54-1-5.32-1.58a40.79,40.79,0,0,1-5.27-2.07,16.33,16.33,0,0,1-2.55-1.5,21.3,21.3,0,0,1-2.23-1.9,13,13,0,0,1-3.32-5,9.54,9.54,0,0,1,0-6.2A15.25,15.25,0,0,1,215,338a28.68,28.68,0,0,1,4.2-3.91,42.72,42.72,0,0,1,4.7-3.14,37.38,37.38,0,0,1,5.11-2.53,24.29,24.29,0,0,1,5.62-1.37c1-.12,1.91-.15,2.82-.21l2.74-.15c7.31-.4,14.61-.8,21.78-1.79,1.79-.26,3.57-.56,5.29-1a24.32,24.32,0,0,0,2.51-.71,7.39,7.39,0,0,0,2.07-1,1.26,1.26,0,0,0,.26-.26l.49-.6a10.7,10.7,0,0,1,1.15-1.09,15,15,0,0,1,2.56-1.61c1.76-.87,3.54-1.46,5.2-2.1a14.73,14.73,0,0,0,2.25-1.07,2.07,2.07,0,0,0,1.07-1.23,2,2,0,0,0,0-.78,2.42,2.42,0,0,0-.38-.75,4.76,4.76,0,0,0-1.71-1.24,15,15,0,0,0-4.87-1.13,28.68,28.68,0,0,0-5.24.06,29.74,29.74,0,0,0-5.16,1,22,22,0,0,0-2.44.85,10.34,10.34,0,0,1-1.42.55,6.08,6.08,0,0,1-1.73.26,4.82,4.82,0,0,1-3.39-1.4,6.82,6.82,0,0,1-1.7-2.9,12.37,12.37,0,0,1-.24-6.09,12.61,12.61,0,0,1,2.55-5.53,10.19,10.19,0,0,1,2.35-2.09,22.1,22.1,0,0,1,2.57-1.4,30.34,30.34,0,0,1,11.09-2.8,17.77,17.77,0,0,1,5.89.61,10.24,10.24,0,0,1,2.85,1.37,7.67,7.67,0,0,1,2.23,2.44,8.12,8.12,0,0,1,1,3.11l.08.7a5,5,0,0,0,.08.56,6.14,6.14,0,0,0,.31,1.08,5.66,5.66,0,0,0,3,3.12,5.14,5.14,0,0,0,4.2.1,4,4,0,0,0,2.19-3.29,17.61,17.61,0,0,0-1.73-9.86c-1.5-3-4.12-5.45-7.22-6a7.91,7.91,0,0,0-2.33-.08l-2.67.41q-2.76.4-5.53.64a70.68,70.68,0,0,1-22.3-1.27,30.17,30.17,0,0,1-10.47-4.63,19.12,19.12,0,0,1-4.2-4.13,16,16,0,0,1-2.72-5.34,6.84,6.84,0,0,1,0-3.43,5.73,5.73,0,0,1,2-2.95,12.77,12.77,0,0,1,5.68-2.27,49.84,49.84,0,0,1,11.28-.43,171.85,171.85,0,0,1,21.91,3c1.79.33,3.65.77,5.33,1a24.15,24.15,0,0,0,5.24.11,28.42,28.42,0,0,0,10.13-2.93,31.53,31.53,0,0,0,8.66-6.19,19.3,19.3,0,0,0,3.2-4.2,8.66,8.66,0,0,0,.91-2.38,2.94,2.94,0,0,0-.32-2.24Z"/><path class="cls-11" d="M312,266.62a32.41,32.41,0,0,0,7-6.71,11.1,11.1,0,0,0,2-4.26,5.25,5.25,0,0,0-1-4.35,9.82,9.82,0,0,0-3.71-2.78,8.88,8.88,0,0,0-4.56-.63c-3.14.36-6,2-8.81,3.55-.71.4-1.42.8-2.17,1.17a5.44,5.44,0,0,1-2.57.7,1.78,1.78,0,0,1-1.36-.83,3.4,3.4,0,0,1-.46-1.34,12,12,0,0,1-.05-2.54,44.06,44.06,0,0,1,.68-4.88A18.67,18.67,0,0,1,298.5,239a17.08,17.08,0,0,1,6.74-7.27,28.71,28.71,0,0,1,9.29-3.39,68.81,68.81,0,0,1,19.59-.46l2.43.25c.79.08,1.58.12,2.38.14,1.59,0,3.2,0,4.81-.11a93.81,93.81,0,0,1,9.82-.3,14.38,14.38,0,0,1,5,1.09,6.94,6.94,0,0,1,3.73,3.83,12.38,12.38,0,0,1,.65,5.14,14.22,14.22,0,0,1-1.14,5,18.5,18.5,0,0,1-2.75,4.24c-1.06,1.26-2.14,2.45-3.07,3.71a13.76,13.76,0,0,0-2.63,9,14.75,14.75,0,0,1-.12-4.92,13.59,13.59,0,0,1,1.83-4.66c1.77-2.85,4.17-5.1,5.3-8a12.35,12.35,0,0,0,1-4.46,11.05,11.05,0,0,0-.57-4.45,5.39,5.39,0,0,0-2.87-3,13.17,13.17,0,0,0-4.45-1,91.58,91.58,0,0,0-9.64.14c-1.63.06-3.27.09-4.92,0-.83,0-1.66-.1-2.48-.2l-2.41-.26a67.72,67.72,0,0,0-19.24.38,27.52,27.52,0,0,0-8.94,3.22,16.07,16.07,0,0,0-6.36,6.76,17.51,17.51,0,0,0-1.47,4.49,45.72,45.72,0,0,0-.7,4.75,11.93,11.93,0,0,0,0,2.32,2.46,2.46,0,0,0,.31,1,.79.79,0,0,0,.63.39,4.6,4.6,0,0,0,2.07-.6c.72-.33,1.42-.73,2.13-1.12,2.82-1.56,5.78-3.22,9.17-3.6a9.72,9.72,0,0,1,5,.78,10.63,10.63,0,0,1,4,3.08,6.07,6.07,0,0,1,1,2.33,5.92,5.92,0,0,1,0,2.55,11.48,11.48,0,0,1-2.26,4.39A30.78,30.78,0,0,1,312,266.62Z"/><path class="cls-11" d="M359.42,244.94a36.79,36.79,0,0,0,15.86,11.49,38.12,38.12,0,0,0,19.43,1.79,60.85,60.85,0,0,0,18.68-6.48c5.95-3.19,12-6.13,17.84-9.46a102.63,102.63,0,0,0,16.41-11.39,72,72,0,0,0,13.09-15,74.33,74.33,0,0,0,8.59-18.06,106.79,106.79,0,0,0,4.42-19.66,97.4,97.4,0,0,1-3.38,20,75.74,75.74,0,0,1-8.14,18.67,64.41,64.41,0,0,1-6,8.29,71.92,71.92,0,0,1-7.15,7.35,96.4,96.4,0,0,1-16.65,11.84c-5.91,3.38-12,6.3-17.94,9.48a71.74,71.74,0,0,1-9.41,4.13,52.79,52.79,0,0,1-10,2.43,39.7,39.7,0,0,1-20.38-2.29,38.24,38.24,0,0,1-8.91-5.17,33.88,33.88,0,0,1-7.14-7.4Z"/><path class="cls-11" d="M498.13,80.4a10.82,10.82,0,0,0-1.79-9c-2-2.5-5.09-3.84-8.25-4.5a37.66,37.66,0,0,0-9.79-.58c-1.65.08-3.28.27-4.95.43l-2.52.24-2.53.14a69.25,69.25,0,0,1-38.81-9.91,48.61,48.61,0,0,1-14.8-13.94A36.89,36.89,0,0,1,410.16,34c-.23-.83-.49-1.66-.7-2.49s-.38-1.69-.51-2.54l-.35-2.51a8.5,8.5,0,0,0-.21-1.12,8.31,8.31,0,0,0-.32-1.11,19.94,19.94,0,0,0-5.28-7.75,39.3,39.3,0,0,0-7.87-5.67,65.78,65.78,0,0,0-18.41-6.71,77.41,77.41,0,0,0-19.62-1.58,71,71,0,0,0-19.33,3.53A63.79,63.79,0,0,0,320.12,15a64.6,64.6,0,0,0-13.92,13.8,74.8,74.8,0,0,0-5.33,8.28l-1.19,2.2a22.55,22.55,0,0,1-1.39,2.24,19.38,19.38,0,0,1-3.58,3.94c-.34.29-.7.56-1.07.82l-1.06.72c-.71.48-1.43.93-2.16,1.37q-2.21,1.32-4.51,2.43a45.73,45.73,0,0,1-9.68,3.38A37.24,37.24,0,0,1,266,55.1a34.55,34.55,0,0,1-10-1.92,37.57,37.57,0,0,1-9.05-4.58,48.24,48.24,0,0,1-7.68-6.49,56.12,56.12,0,0,0,8.1,5.83,40.63,40.63,0,0,0,9.05,3.9,36.65,36.65,0,0,0,19.33.25,47.11,47.11,0,0,0,9.15-3.41q2.19-1.08,4.29-2.37c.69-.42,1.38-.87,2.05-1.32l1-.7c.31-.23.62-.46.91-.71a18.48,18.48,0,0,0,3.13-3.47,23.25,23.25,0,0,0,1.24-2l1.2-2.21a77.88,77.88,0,0,1,5.51-8.56A67.2,67.2,0,0,1,318.68,13a66.42,66.42,0,0,1,18.11-9.26,73.6,73.6,0,0,1,20-3.65A79.89,79.89,0,0,1,377,1.72a66.61,66.61,0,0,1,19.1,7,42.69,42.69,0,0,1,8.3,6.09,22.16,22.16,0,0,1,5.81,8.71,8.5,8.5,0,0,1,.37,1.31,9.75,9.75,0,0,1,.25,1.33l.32,2.46c.12.8.32,1.59.47,2.38s.42,1.56.63,2.34a34.76,34.76,0,0,0,4.21,8.72,46.53,46.53,0,0,0,14.09,13.42,68.38,68.38,0,0,0,37.69,10l2.47-.11,2.47-.2c1.66-.14,3.35-.32,5-.38a39.4,39.4,0,0,1,10.15.74,20,20,0,0,1,4.87,1.74,12.24,12.24,0,0,1,4,3.35,10.73,10.73,0,0,1,2.05,4.82,13,13,0,0,1-.23,5.2Z"/><path class="cls-11" d="M406.27,143.85a.2.2,0,0,0,0,0l0,.07s0,.09.06.15l.21.37c.19.24.37.5.59.75l.71.74.83.67c.54.47,1.21.83,1.8,1.25s1.32.72,2,1.08,1.39.62,2.08.94a21.09,21.09,0,0,0,2.14.83l2.18.77,2.23.64a125.93,125.93,0,0,0,18.42,3.43c1.56.19,3.13.3,4.69.46s3.13.33,4.7.4c3.15.2,6.26.35,9.45.59l4.76.34c1.58.16,3.16.4,4.74.6.79.11,1.58.19,2.36.33l2.35.47a46.47,46.47,0,0,1,4.67,1.08,41.86,41.86,0,0,1,4.58,1.44l2.24.86c.75.29,1.45.7,2.18,1.05a25,25,0,0,1,7.77,5.7,16.91,16.91,0,0,1,4.25,8.65,18.23,18.23,0,0,1,0,4.84,26.91,26.91,0,0,0-.09,4.67c.23,6.32.28,12.65,0,19a87.72,87.72,0,0,1-1,9.44,34.49,34.49,0,0,1-1,4.63,9.05,9.05,0,0,1-2.3,4.09A8.84,8.84,0,0,0,496,220a33.28,33.28,0,0,0,1-4.62,90.3,90.3,0,0,0,.75-9.43c.2-6.31,0-12.63-.33-18.92a28.49,28.49,0,0,1,0-4.8,16.84,16.84,0,0,0-.07-4.6,15.86,15.86,0,0,0-4.15-8,24,24,0,0,0-7.52-5.27c-.7-.32-1.38-.71-2.11-1l-2.2-.79a40.38,40.38,0,0,0-4.48-1.31c-12.15-3.09-24.91-2.12-37.57-3.47a126.9,126.9,0,0,1-18.88-3.13l-2.34-.61-2.3-.76a21.79,21.79,0,0,1-2.29-.85c-.75-.32-1.52-.59-2.26-1s-1.48-.74-2.21-1.15-1.44-.86-2.12-1.41l-1-.8-.95-.95a10.87,10.87,0,0,1-.88-1.1,4.88,4.88,0,0,1-.75-1.57Z"/><path class="cls-12" d="M453.25,157.65s20.45,3.18,18,35.66"/><path class="cls-11" d="M463.54,360.34a25.92,25.92,0,0,0,1.42-4.45,23.58,23.58,0,0,0,.58-4.66,16.23,16.23,0,0,0-.63-4.64,12.38,12.38,0,0,0-2.25-4.14,12.56,12.56,0,0,1,2.49,4.06,16.78,16.78,0,0,1,.89,4.72,24.23,24.23,0,0,1-.34,4.81,26.18,26.18,0,0,1-1.24,4.69Z"/><path class="cls-11" d="M474.7,159.14a9.67,9.67,0,0,1,9,9.31c0,.29.07.57.08.86l0,.86a12.23,12.23,0,0,1-.1,1.72c-.15,1.14-.32,2.27-.49,3.35a29.34,29.34,0,0,0-.07,6.69c.39,4.47,1.61,8.83,2.2,13.31a19.19,19.19,0,0,1-.14,6.76,11.63,11.63,0,0,1-3.32,5.79A11.62,11.62,0,0,0,485,202a18.8,18.8,0,0,0,0-6.69c-.68-4.44-2-8.79-2.46-13.3a31,31,0,0,1-.06-6.81c.16-1.14.31-2.25.43-3.35a11.33,11.33,0,0,0,.07-1.65v-.83c0-.27-.07-.54-.1-.81a8.78,8.78,0,0,0-8.29-8.39Z"/><path class="cls-11" d="M482.42,288c.9-1.06,1.8-1.86,2.69-2.78s1.75-1.81,2.59-2.75a34.14,34.14,0,0,0,4.47-6.05,13.82,13.82,0,0,0,1.38-3.47,10.91,10.91,0,0,0,.12-3.74,11.48,11.48,0,0,0-1-3.62,6.56,6.56,0,0,0-2.46-2.81,6.68,6.68,0,0,1,2.56,2.76,13,13,0,0,1,1.11,7.48,13.55,13.55,0,0,1-1.3,3.61,34.13,34.13,0,0,1-4.32,6.32c-.82,1-1.67,1.93-2.53,2.87s-1.79,1.87-2.5,2.77Z"/><path class="cls-11" d="M440.49,329.41A6.15,6.15,0,0,0,442,328c.24-.26.42-.59.64-.88s.38-.63.54-1a14.48,14.48,0,0,0,1.33-4.26c.15-.74.18-1.49.26-2.25s0-1.51,0-2.27-.08-1.52-.14-2.28l-.28-2.26.4,2.25c.11.76.18,1.52.27,2.28s.08,1.53.08,2.3A22.18,22.18,0,0,1,445,322a14.89,14.89,0,0,1-1.14,4.51c-.15.36-.35.71-.52,1.06s-.4.69-.65,1a6.89,6.89,0,0,1-1.75,1.74Z"/><path class="cls-11" d="M357,248.61a23,23,0,0,0,1,3.38,19.78,19.78,0,0,0,1.55,3.21,13.5,13.5,0,0,0,2.22,2.78,8.73,8.73,0,0,0,3.06,1.83,9,9,0,0,1-3.23-1.64,14.09,14.09,0,0,1-2.47-2.7,20.42,20.42,0,0,1-1.82-3.18,22.83,22.83,0,0,1-1.31-3.46Z"/><path class="cls-11" d="M286,297.68a5.29,5.29,0,0,1-.8,2.87,4.43,4.43,0,0,1-2.26,1.8,7,7,0,0,1-2.78.39c-.47-.05-.93-.07-1.38-.14l-1.36-.27,1.37.15c.46,0,.91,0,1.37,0a6.63,6.63,0,0,0,2.58-.6,3.83,3.83,0,0,0,1.81-1.72,4.52,4.52,0,0,0,.45-2.41Z"/><path class="cls-13" d="M221.55,385.23c-1.53.08-2.93,1.45-3.31,3.49s.27,4.52,5,5.45c8.62,1.7,30.78,1.7,33.24,0s3.7-6.8-2.46-6.8C248.76,387.37,228.14,384.88,221.55,385.23Z"/><path class="cls-11" d="M221.57,385.75a2.76,2.76,0,0,0-2,1.15,4.58,4.58,0,0,0-.91,2.32,3.36,3.36,0,0,0,.53,2.35,4.76,4.76,0,0,0,2,1.53,11.78,11.78,0,0,0,2.6.74c.91.17,1.84.31,2.76.42,1.85.24,3.72.4,5.58.53q5.61.38,11.23.35a80,80,0,0,0,11.18-.64,10.77,10.77,0,0,0,1.33-.32,2.57,2.57,0,0,0,1-.73,4.69,4.69,0,0,0,1.26-2.32,2.68,2.68,0,0,0-.62-2.4,4.06,4.06,0,0,0-2.39-1c-3.7-.1-7.5-.4-11.22-.71s-7.48-.61-11.22-.87S225.25,385.61,221.57,385.75Zm0-1.05a111.47,111.47,0,0,1,11.3.59L244,386.35c3.75.35,7.44.68,11.24.84a4.56,4.56,0,0,1,2.67,1.19,3.15,3.15,0,0,1,.72,2.84,5.23,5.23,0,0,1-1.36,2.57,3.06,3.06,0,0,1-1.23.85,9.12,9.12,0,0,1-1.41.36,81.85,81.85,0,0,1-11.27.75c-3.76,0-7.51,0-11.27-.23-1.88-.1-3.76-.23-5.64-.44-.93-.1-1.87-.23-2.81-.39a13,13,0,0,1-2.81-.75,5.72,5.72,0,0,1-2.43-1.81,4.39,4.39,0,0,1-.75-3,5.62,5.62,0,0,1,1.08-2.86A3.84,3.84,0,0,1,221.52,384.7Z"/><path class="cls-14" d="M492.58,327.1c.67,1.95,3.45,2.06,6.22.25s4.46-4.85,3.8-6.8-2,.38-4.77,2.19S491.91,325.15,492.58,327.1Z"/><path class="cls-11" d="M493.21,326.88a1.49,1.49,0,0,0,.85.84,2.82,2.82,0,0,0,1.4.1,7.33,7.33,0,0,0,2.93-1.22,9.74,9.74,0,0,0,2.42-2.24A5.54,5.54,0,0,0,502,321.5a2.16,2.16,0,0,0-.06-.68c0-.21-.19-.45-.14-.39s0,0-.22.11a7.57,7.57,0,0,0-.67.47,27.71,27.71,0,0,1-2.93,2.21c-1,.67-2.17,1.19-3.19,1.77a6.89,6.89,0,0,0-1.36.93A.8.8,0,0,0,493.21,326.88Zm-1.26.43a2,2,0,0,1,0-1.29,2.34,2.34,0,0,1,.69-1,7.44,7.44,0,0,1,1.67-1,26,26,0,0,0,3.15-1.66,28.11,28.11,0,0,0,2.75-2.24,6.3,6.3,0,0,1,.77-.62,2.66,2.66,0,0,1,.56-.27,1.29,1.29,0,0,1,.91.08,1.88,1.88,0,0,1,.79,1.11,3.46,3.46,0,0,1,.18,1.09,6.69,6.69,0,0,1-1.33,3.77,10.69,10.69,0,0,1-2.76,2.73,7.87,7.87,0,0,1-3.72,1.37,4.31,4.31,0,0,1-2.15-.34A2.94,2.94,0,0,1,492,327.31Z"/><path class="cls-15" d="M140.64,92.53c-1.23-5.33-4.82-4.27-5.38,1.6-1,10.12,0,13,2.78,9.92,3.47-3.84,3.47-7.68,2.6-11.52Z"/><path class="cls-14" d="M460.89,253s-16,13.61-1.23,13.61a21.78,21.78,0,0,0,12.88-3.88c5-3.54,3.59-14.16-2.06-14.59C467.77,247.94,464.53,249.1,460.89,253Z"/><path class="cls-11" d="M461.42,253.56c-1.06.87-2,1.72-2.95,2.64a27.64,27.64,0,0,0-2.65,2.87,10.27,10.27,0,0,0-1.91,3.3,2.91,2.91,0,0,0-.06,1.77A2.24,2.24,0,0,0,455,265.4a9.4,9.4,0,0,0,3.69.69,24.14,24.14,0,0,0,3.89-.19,20.92,20.92,0,0,0,7.34-2.31,12.9,12.9,0,0,0,3.07-2.14,7.18,7.18,0,0,0,1.6-3.2,9.56,9.56,0,0,0-1-7.07,4.34,4.34,0,0,0-2.52-2c-.27,0-.5-.13-.8-.14a6.61,6.61,0,0,0-.89,0,7,7,0,0,0-1.75.33,11.74,11.74,0,0,0-3.29,1.67A20.13,20.13,0,0,0,461.42,253.56Zm-1.05-1.1a15.93,15.93,0,0,1,6.74-4.76,9.66,9.66,0,0,1,2.14-.42,10.11,10.11,0,0,1,1.1,0,8,8,0,0,1,1.16.19A6,6,0,0,1,475,250.3a11.21,11.21,0,0,1,1,8.32,8.56,8.56,0,0,1-2,3.78,14.46,14.46,0,0,1-3.48,2.34,22.44,22.44,0,0,1-7.82,2.25,25,25,0,0,1-4.06.09,9.42,9.42,0,0,1-4-1.05,3.27,3.27,0,0,1-1.39-1.69,4,4,0,0,1,0-2.15,12.93,12.93,0,0,1,1.83-3.68A36.21,36.21,0,0,1,460.37,252.46Z"/><path class="cls-13" d="M234.33,336.35s-7.39,0-3.7,5.1c2.14,2.95,5.51,3.06,8,2.62,1.94-.34,2.25-4,.43-5C238,338.47,236.45,336.35,234.33,336.35Z"/><path class="cls-11" d="M234.33,336.9a7.82,7.82,0,0,0-3.29.68,1.75,1.75,0,0,0-.93,1,2.34,2.34,0,0,0,.23,1.48,6.29,6.29,0,0,0,5.38,3.76,9.41,9.41,0,0,0,1.76,0,8.78,8.78,0,0,0,.88-.1,1.36,1.36,0,0,0,.7-.25,2.79,2.79,0,0,0,.64-2.94,1.92,1.92,0,0,0-.94-1.14,13.23,13.23,0,0,1-1.51-1.17A4.73,4.73,0,0,0,234.33,336.9Zm0-1.11a5.66,5.66,0,0,1,3.54,1.73,13.9,13.9,0,0,0,1.34,1.13,2.77,2.77,0,0,1,1.25,1.66,4.15,4.15,0,0,1,.07,2,2.89,2.89,0,0,1-1.06,1.76,2.33,2.33,0,0,1-1,.38c-.3.05-.62.09-.93.12a9.94,9.94,0,0,1-1.89,0,7.26,7.26,0,0,1-6.12-4.13,3.15,3.15,0,0,1-.34-2.06,2.69,2.69,0,0,1,1.36-1.69A8.2,8.2,0,0,1,234.33,335.79Z"/><path class="cls-11" d="M109.55,126a5.64,5.64,0,0,0-2,.86,9.07,9.07,0,0,0-1.67,1.57,6.87,6.87,0,0,0-1.92,3.94,4.46,4.46,0,0,0,2,3.57,9.49,9.49,0,0,0,4.22,1.91c3.13.56,6.45-.34,9.44-1.68a31.71,31.71,0,0,0,8.27-5.47,4.65,4.65,0,0,0,.38-.42,3.19,3.19,0,0,1,.56-.54A7,7,0,0,1,130,129a13.27,13.27,0,0,0,2.15-1.17,3.73,3.73,0,0,0,1.46-4,12.4,12.4,0,0,0-1.85-4.44,3.86,3.86,0,0,0-1.69-1.39,2.46,2.46,0,0,0-2,.23,6.57,6.57,0,0,0-1.78,1.48,11.6,11.6,0,0,0-.75.95,4.47,4.47,0,0,1-1.17,1,23.42,23.42,0,0,1-4.87,1.91C116.21,124.57,112.88,125.3,109.55,126Zm-.32-1.66c3.33-.59,6.65-1.22,9.89-2.08a22,22,0,0,0,4.62-1.65,5.4,5.4,0,0,0,.47-.3,2.62,2.62,0,0,0,.34-.31c.28-.35.55-.7.86-1a7.72,7.72,0,0,1,2.16-1.69,3.64,3.64,0,0,1,2.88-.23,5,5,0,0,1,2.18,1.78,13.4,13.4,0,0,1,2,4.89,5.31,5.31,0,0,1-.14,2.76,4.5,4.5,0,0,1-1.69,2.23A14.7,14.7,0,0,1,130.5,130a5.6,5.6,0,0,0-1,.59c-.18.11-.2.19-.35.34a6.1,6.1,0,0,1-.47.52,33.19,33.19,0,0,1-8.49,5.91,23.24,23.24,0,0,1-4.92,1.76,14,14,0,0,1-5.33.26,11.11,11.11,0,0,1-5-2.12,7.72,7.72,0,0,1-2-2.06,5.19,5.19,0,0,1-.83-2.89,8.39,8.39,0,0,1,2.36-5.07c.3-.34.61-.65.94-1a8.6,8.6,0,0,1,1.12-.87A7.34,7.34,0,0,1,109.23,124.33Z"/><path class="cls-13" d="M223.12,344.37c-2-.55-3.45,2.54-2.27,4.75.78,1.46,2,2.38,3.63.83,3.69-3.4,0-5.1,0-5.1A9.3,9.3,0,0,0,223.12,344.37Z"/><path class="cls-11" d="M223,344.85a1.44,1.44,0,0,0-1.56.61,3.26,3.26,0,0,0-.68,2,3.4,3.4,0,0,0,.67,2,1.66,1.66,0,0,0,1.59.92,3.41,3.41,0,0,0,1.65-1.21,3.66,3.66,0,0,0,.94-1.8,1.78,1.78,0,0,0-.71-1.61,2.61,2.61,0,0,0-.86-.52Zm.27-1,1.17.4a2,2,0,0,1,.6.28,4.11,4.11,0,0,1,.54.39,2.77,2.77,0,0,1,1,2.53,4.5,4.5,0,0,1-1.28,2.25,4,4,0,0,1-2.17,1.36,1.9,1.9,0,0,1-1.36-.34,3.59,3.59,0,0,1-.88-.95,4.51,4.51,0,0,1-.77-2.37,4.39,4.39,0,0,1,.66-2.45,2.55,2.55,0,0,1,1-.94A2.22,2.22,0,0,1,223.26,343.89Z"/><path class="cls-14" d="M328.77,182.73c-1.87-.47-3.22,2.35-2.17,4.55.78,1.61,2,2.74,3.77,1.1,3.7-3.4,0-5.1,0-5.1A9.42,9.42,0,0,0,328.77,182.73Z"/><path class="cls-11" d="M328.71,183a1.58,1.58,0,0,0-1.65.9,3.45,3.45,0,0,0-.37,2,4.54,4.54,0,0,0,.82,1.94c.42.58.92.95,1.48.82a4.05,4.05,0,0,0,1.69-1.19,3.46,3.46,0,0,0,1-1.85,2.15,2.15,0,0,0-.89-1.82A5,5,0,0,0,328.71,183Zm.12-.47a12,12,0,0,1,1.15.39,4.17,4.17,0,0,1,1.11.57,2.7,2.7,0,0,1,1.22,2.22,4.09,4.09,0,0,1-1,2.34,4.54,4.54,0,0,1-2.09,1.58,2,2,0,0,1-1.49-.21,3.11,3.11,0,0,1-1-1,6.25,6.25,0,0,1-.61-1.14,3.88,3.88,0,0,1-.28-1.3,4.18,4.18,0,0,1,.67-2.5,2.69,2.69,0,0,1,1-.88A1.88,1.88,0,0,1,328.83,182.5Z"/><path class="cls-11" d="M203.21,337.12a.68.68,0,0,0-.77.28,1.72,1.72,0,0,0-.43,1.11,2,2,0,0,0,.4,1.17c.24.37.57.57.85.49a1.89,1.89,0,0,0,.9-.72,2,2,0,0,0,.52-1,.9.9,0,0,0-.38-.81,1.52,1.52,0,0,0-.48-.28Zm.27-1,.75.25a2.09,2.09,0,0,1,.75.45,1.87,1.87,0,0,1,.67,1.73,2.82,2.82,0,0,1-.84,1.46,2.71,2.71,0,0,1-1.44.87,1.37,1.37,0,0,1-.93-.25,2.22,2.22,0,0,1-.57-.62,2.89,2.89,0,0,1-.49-1.52,3,3,0,0,1,.4-1.6A1.58,1.58,0,0,1,203.48,336.15Z"/><path class="cls-11" d="M196.2,333.36l-.84-.14a2.92,2.92,0,0,0-.72,0c-.23.05-.26.09-.27.13s0,.32.15.53a3,3,0,0,0,2.46,1.68,4.37,4.37,0,0,0,.81,0,2.42,2.42,0,0,0,.7-.13,1.1,1.1,0,0,0,.31-1.17.88.88,0,0,0-.3-.49,2.47,2.47,0,0,0-.66-.25,3.87,3.87,0,0,0-.77-.13c-.13,0-.26,0-.4,0Zm.13-1.1a6.17,6.17,0,0,1,1.81.32,3.23,3.23,0,0,1,.92.5,1.72,1.72,0,0,1,.53,1,2.49,2.49,0,0,1-.07,1,1.51,1.51,0,0,1-.67.9,2.84,2.84,0,0,1-1,.22,5.9,5.9,0,0,1-.94,0,4.08,4.08,0,0,1-1.83-.57,4.17,4.17,0,0,1-1.34-1.4,1.82,1.82,0,0,1-.29-1.12.93.93,0,0,1,.39-.67,1.47,1.47,0,0,1,.58-.26,3.67,3.67,0,0,1,1-.1A5.27,5.27,0,0,1,196.33,332.26Z"/><path class="cls-16" d="M523,303.3a1.71,1.71,0,0,0-2.55,1.05,2.82,2.82,0,0,0,1.49,3c1.11.55.61-.5.91-1.63S524.14,303.85,523,303.3Z"/><path class="cls-11" d="M522.94,303.48a1.72,1.72,0,0,0-1.31-.1,1.4,1.4,0,0,0-.86.9,2.49,2.49,0,0,0,.7,2.52,2.83,2.83,0,0,0,.56.42c.2.11.48.18.48.12a1.65,1.65,0,0,0,.09-.63,4,4,0,0,1,.09-.77,6.11,6.11,0,0,1,.54-1.45,1,1,0,0,0,.13-.62C523.33,303.7,523.15,303.57,522.94,303.48Zm.17-.35a1,1,0,0,1,.59.66,1.37,1.37,0,0,1-.17.83A5.46,5.46,0,0,0,523,306a5.83,5.83,0,0,0-.06.73,1.59,1.59,0,0,1-.14.84.49.49,0,0,1-.53.14,2.62,2.62,0,0,1-.39-.15,3,3,0,0,1-1.56-3.44,1.9,1.9,0,0,1,1.19-1.17A2.16,2.16,0,0,1,523.11,303.13Z"/><path class="cls-14" d="M462.61,273.33s-2.53,1-1.06,2.19a1.69,1.69,0,0,0,1.55.35c.75-.2,1.34-2.1.8-2.61C463.65,273,463.24,273,462.61,273.33Z"/><path class="cls-11" d="M462.76,273.62a5.41,5.41,0,0,0-1,.44c-.29.18-.57.48-.5.78a1.58,1.58,0,0,0,1.64.8c.28-.05.44-.28.6-.59a2.84,2.84,0,0,0,.25-1,1.4,1.4,0,0,0,0-.43.25.25,0,0,0-.15-.18A1,1,0,0,0,462.76,273.62Zm-.29-.59a1.52,1.52,0,0,1,1.37-.25,1,1,0,0,1,.58.65,1.94,1.94,0,0,1,0,.71,3.35,3.35,0,0,1-.41,1.2,2,2,0,0,1-.41.53,1.16,1.16,0,0,1-.66.31,1.93,1.93,0,0,1-1.27-.27,1.44,1.44,0,0,1-.76-1,1.56,1.56,0,0,1,.55-1.14A3.94,3.94,0,0,1,462.47,273Z"/><path class="cls-14" d="M468.7,272.81s4.13-2,2.24-3.88a2,2,0,0,0-2.25-.48c-1.18.42-2.62,3.75-2,4.59C467,273.44,467.63,273.51,468.7,272.81Z"/><path class="cls-11" d="M468.54,272.52a8.21,8.21,0,0,0,1.62-.9,2.44,2.44,0,0,0,1.08-1.39,1.48,1.48,0,0,0-.76-1.38,1.79,1.79,0,0,0-1.61-.17,2.55,2.55,0,0,0-1.14,1.21,6.71,6.71,0,0,0-.67,1.67c-.14.55-.2,1.24.07,1.35S468,272.86,468.54,272.52Zm.32.57a4.39,4.39,0,0,1-.89.49,1.41,1.41,0,0,1-1.23,0,1.05,1.05,0,0,1-.45-.54,1.64,1.64,0,0,1-.1-.6,3.76,3.76,0,0,1,.17-1,7.26,7.26,0,0,1,.83-1.81,3.09,3.09,0,0,1,1.52-1.41,2.29,2.29,0,0,1,2,.31,2.39,2.39,0,0,1,.7.78,1.5,1.5,0,0,1,.11,1.06,4.06,4.06,0,0,1-1.13,1.62A8.71,8.71,0,0,1,468.86,273.09Z"/><path class="cls-13" d="M467.78,344.08s-2.33,0-1.16,1.6a2.41,2.41,0,0,0,2.51.83c.61-.11.71-1.26.14-1.58C468.93,344.74,468.45,344.08,467.78,344.08Z"/><path class="cls-11" d="M467.78,344.2a2.52,2.52,0,0,0-1.06.22.59.59,0,0,0-.23.85,2.07,2.07,0,0,0,1.73,1.2,2.35,2.35,0,0,0,1.07-.11.94.94,0,0,0,.22-1,.69.69,0,0,0-.31-.38,3.66,3.66,0,0,1-.47-.37A1.55,1.55,0,0,0,467.78,344.2Zm0-.25a1.69,1.69,0,0,1,1.09.53c.15.12.29.27.43.36a.8.8,0,0,1,.38.5,1.06,1.06,0,0,1-.29,1.15,2.48,2.48,0,0,1-1.19.16,2.28,2.28,0,0,1-1.9-1.29,1,1,0,0,1-.1-.63.83.83,0,0,1,.41-.5A2.55,2.55,0,0,1,467.78,344Z"/><path class="cls-13" d="M394.4,406.08s-7.39,0-3.69,5.1c2.13,2.95,5.5,3.06,8,2.63,1.95-.35,2.26-4,.44-5C398,408.2,396.52,406.08,394.4,406.08Z"/><path class="cls-11" d="M394.4,406.63a7.82,7.82,0,0,0-3.29.68,1.69,1.69,0,0,0-.92,1,2.25,2.25,0,0,0,.23,1.47,6.6,6.6,0,0,0,2.14,2.63,6.71,6.71,0,0,0,3.23,1.13,10.34,10.34,0,0,0,1.76,0c.3,0,.59-.06.88-.11a1.36,1.36,0,0,0,.7-.25,2.77,2.77,0,0,0,.64-2.94,1.92,1.92,0,0,0-.94-1.14,13.89,13.89,0,0,1-1.51-1.17A4.76,4.76,0,0,0,394.4,406.63Zm0-1.11a5.69,5.69,0,0,1,3.55,1.73,12.74,12.74,0,0,0,1.33,1.13,2.77,2.77,0,0,1,1.26,1.67,4.23,4.23,0,0,1,.06,2,2.88,2.88,0,0,1-1.05,1.76,2.43,2.43,0,0,1-1,.38c-.31.05-.62.09-.94.12a9.94,9.94,0,0,1-1.89,0,7.28,7.28,0,0,1-6.12-4.12,3.2,3.2,0,0,1-.34-2.07,2.74,2.74,0,0,1,1.36-1.69A8.2,8.2,0,0,1,394.4,405.52Z"/><path class="cls-13" d="M400.06,401.9s-2.33,0-1.17,1.61a2.45,2.45,0,0,0,2.52.83c.61-.11.71-1.26.13-1.58C401.2,402.57,400.73,401.9,400.06,401.9Z"/><path class="cls-11" d="M400.06,402.15a2.48,2.48,0,0,0-1,.2c-.29.14-.35.38-.2.71a1.93,1.93,0,0,0,1.64,1.16,3.37,3.37,0,0,0,.55,0,1.13,1.13,0,0,0,.47-.1.82.82,0,0,0,.17-.87.54.54,0,0,0-.26-.33,3.47,3.47,0,0,1-.49-.37A1.46,1.46,0,0,0,400.06,402.15Zm0-.5a1.86,1.86,0,0,1,1.16.57,4.06,4.06,0,0,0,.41.36.91.91,0,0,1,.42.56,1.18,1.18,0,0,1-.34,1.24,1.36,1.36,0,0,1-.63.17,3.11,3.11,0,0,1-.61,0,2.37,2.37,0,0,1-2-1.32,1.08,1.08,0,0,1-.11-.7.94.94,0,0,1,.45-.57A2.61,2.61,0,0,1,400.06,401.65Z"/><path class="cls-13" d="M429.61,393.4s-2.33,0-1.16,1.61a2.4,2.4,0,0,0,2.51.82c.61-.1.71-1.26.14-1.57C430.76,394.07,430.28,393.4,429.61,393.4Z"/><path class="cls-11" d="M429.61,393.65a2.51,2.51,0,0,0-1,.19.47.47,0,0,0-.2.71,1.92,1.92,0,0,0,1.64,1.16,3.37,3.37,0,0,0,.55,0,1.13,1.13,0,0,0,.47-.1.86.86,0,0,0,.18-.88.58.58,0,0,0-.27-.32,4.45,4.45,0,0,1-.49-.37A1.4,1.4,0,0,0,429.61,393.65Zm0-.5a1.86,1.86,0,0,1,1.16.57,5.19,5.19,0,0,0,.41.35,1,1,0,0,1,.42.56,1.13,1.13,0,0,1-.34,1.24,1.36,1.36,0,0,1-.63.17,3.1,3.1,0,0,1-.61,0,2.38,2.38,0,0,1-2-1.33,1.12,1.12,0,0,1-.11-.69.91.91,0,0,1,.46-.58A2.68,2.68,0,0,1,429.61,393.15Z"/><path class="cls-13" d="M428.17,351.24a6,6,0,0,0-.48,6.63c1.19,2.07,3.34,2.46,4.79.86s-.19-1.91-1.38-4S429.62,349.64,428.17,351.24Z"/><path class="cls-11" d="M428.38,351.43a5.7,5.7,0,0,0-.83,5.17,4.64,4.64,0,0,0,1.4,2.24,2.3,2.3,0,0,0,2.39.37,3.16,3.16,0,0,0,1-.79c.3-.35.49-.71.35-1a4.39,4.39,0,0,0-.8-1.09,9.75,9.75,0,0,1-.88-1.2,16.71,16.71,0,0,1-1.22-2.66,4.48,4.48,0,0,0-.65-1.19c-.14-.17-.24-.19-.36-.15A1.24,1.24,0,0,0,428.38,351.43ZM428,351a1.8,1.8,0,0,1,.73-.49.85.85,0,0,1,.9.34,5,5,0,0,1,.69,1.36,15,15,0,0,0,1.16,2.61,10.1,10.1,0,0,0,.87,1.11,4.78,4.78,0,0,1,.93,1.22,1.24,1.24,0,0,1,0,.89,2.33,2.33,0,0,1-.42.7,3.55,3.55,0,0,1-1.22,1,3,3,0,0,1-3.06-.38,5.16,5.16,0,0,1-1.69-2.56A6.13,6.13,0,0,1,428,351Z"/><path class="cls-16" d="M352.72,163.62c.39,1.12,2,1.19,3.59.15s2.57-2.81,2.19-3.93-1.16.22-2.75,1.27S352.34,162.49,352.72,163.62Z"/><path class="cls-11" d="M353,163.52a1.19,1.19,0,0,0,1.39.63,4.23,4.23,0,0,0,1.75-.72,4.44,4.44,0,0,0,2.13-3,1.46,1.46,0,0,0,0-.42.58.58,0,0,0-.13-.27s-.08,0-.21.08a2.88,2.88,0,0,0-.39.28,15.72,15.72,0,0,1-1.68,1.27c-.6.38-1.23.69-1.84,1S352.77,163.07,353,163.52Zm-.55.19a1.08,1.08,0,0,1,0-.69,1.32,1.32,0,0,1,.38-.53,5,5,0,0,1,.94-.58,19.55,19.55,0,0,0,1.82-1,15.87,15.87,0,0,0,1.59-1.3,3.19,3.19,0,0,1,.44-.34.77.77,0,0,1,.77-.11,1.06,1.06,0,0,1,.41.6,2.08,2.08,0,0,1,.09.6,3.89,3.89,0,0,1-.76,2.11,6.21,6.21,0,0,1-1.57,1.54,4.73,4.73,0,0,1-2.09.78,2.33,2.33,0,0,1-1.18-.18A1.54,1.54,0,0,1,352.45,163.71Z"/><path class="cls-14" d="M331.83,182.21a1.94,1.94,0,0,0-.7-2c-.64-.59-1.35-.64-1.6-.12s.3.57.94,1.15S331.58,182.73,331.83,182.21Z"/><path class="cls-11" d="M331.66,182.13a1.74,1.74,0,0,0-.49-1.51,2.24,2.24,0,0,0-.65-.55.72.72,0,0,0-.69,0,.52.52,0,0,0-.17.27c0,.07,0,.13.14.23a9.45,9.45,0,0,1,.76.6c.24.23.46.47.67.71a2.24,2.24,0,0,0,.32.3c.05,0,.11.06.09,0S331.63,182.18,331.66,182.13Zm.35.17a.45.45,0,0,1-.33.25.49.49,0,0,1-.34-.13,2.38,2.38,0,0,1-.35-.37c-.21-.24-.41-.49-.63-.7s-.49-.34-.78-.54a.62.62,0,0,1-.3-.56.84.84,0,0,1,.3-.53,1.1,1.1,0,0,1,1.13-.06,2.41,2.41,0,0,1,.84.64A2,2,0,0,1,332,182.3Z"/><path class="cls-15" d="M351.6,156.43c1.54-4.55-1.48-7.38-4.53-4.25-5.27,5.39-5.89,8.14-2.54,8.93,4.2,1,5.94-1.43,7.07-4.68Z"/><path class="cls-17" d="M262.15,393.4s-2.33,0-1.16,1.61a2.4,2.4,0,0,0,2.51.82c.61-.1.71-1.26.13-1.57C263.29,394.07,262.82,393.4,262.15,393.4Z"/><path class="cls-11" d="M262.15,393.65a2.51,2.51,0,0,0-1,.19.47.47,0,0,0-.2.71,1.92,1.92,0,0,0,1.64,1.16,3.37,3.37,0,0,0,.55,0,1.13,1.13,0,0,0,.47-.1.86.86,0,0,0,.18-.88.58.58,0,0,0-.27-.32,4.45,4.45,0,0,1-.49-.37A1.4,1.4,0,0,0,262.15,393.65Zm0-.5a1.86,1.86,0,0,1,1.16.57,5.19,5.19,0,0,0,.41.35,1,1,0,0,1,.42.56,1.15,1.15,0,0,1-.34,1.24,1.36,1.36,0,0,1-.63.17,3.11,3.11,0,0,1-.61,0,2.38,2.38,0,0,1-2-1.33,1.05,1.05,0,0,1-.11-.69.93.93,0,0,1,.45-.58A2.75,2.75,0,0,1,262.15,393.15Z"/><path class="cls-18" d="M280.62,296.45s-2.33,0-1.16,1.61a2.41,2.41,0,0,0,2.51.83c.61-.11.71-1.26.13-1.58C281.76,297.12,281.29,296.45,280.62,296.45Z"/><path class="cls-11" d="M280.62,296.7a2.51,2.51,0,0,0-1,.2c-.29.14-.35.38-.2.71a1.93,1.93,0,0,0,1.64,1.16,2.53,2.53,0,0,0,.55,0,1,1,0,0,0,.47-.1.84.84,0,0,0,.18-.87.6.6,0,0,0-.27-.33,3.47,3.47,0,0,1-.49-.37A1.46,1.46,0,0,0,280.62,296.7Zm0-.5a1.86,1.86,0,0,1,1.16.57c.15.13.29.28.41.36a.91.91,0,0,1,.42.56,1.16,1.16,0,0,1-.34,1.24,1.36,1.36,0,0,1-.63.17,3.11,3.11,0,0,1-.61,0,2.35,2.35,0,0,1-2-1.32,1.07,1.07,0,0,1-.11-.7.94.94,0,0,1,.45-.57A2.64,2.64,0,0,1,280.62,296.2Z"/><path class="cls-19" d="M401.37,352.59a1.19,1.19,0,0,0,1-1c.09-.56-.14-1.2-1.59-1.32-2.64-.21-9.37.42-10.1.94s-1,1.92.84,1.75C393.08,352.79,399.38,352.87,401.37,352.59Z"/><path class="cls-11" d="M401.3,352.07a.74.74,0,0,0,.55-.7.42.42,0,0,0-.14-.35,1.31,1.31,0,0,0-.57-.25,18.09,18.09,0,0,0-3.25-.15c-1.12,0-2.23.07-3.35.16a22.57,22.57,0,0,0-3.3.44,1.18,1.18,0,0,0-.62.31,1,1,0,0,0-.31.6c-.06.44.43.61.95.57,1.11-.09,2.26-.13,3.37-.18C396.87,352.4,399.16,352.36,401.3,352.07Zm.15,1c-2.34.17-4.55.06-6.81.05-1.12,0-2.23,0-3.36,0a1.9,1.9,0,0,1-.94-.18.92.92,0,0,1-.49-.93,1.58,1.58,0,0,1,.42-.89,1.28,1.28,0,0,1,.41-.3,4.59,4.59,0,0,1,.44-.15,51.58,51.58,0,0,1,6.74-.87,19.12,19.12,0,0,1,3.47,0,2.37,2.37,0,0,1,1,.4,1.44,1.44,0,0,1,.54,1.12A1.71,1.71,0,0,1,401.45,353.11Z"/><path class="cls-14" d="M350.77,243.22s7.35,2.42,3.15-3.39a11.6,11.6,0,0,0-4.46-4c-2.16-1-3.94,2.62-2.42,5A5.31,5.31,0,0,0,350.77,243.22Z"/><path class="cls-11" d="M351,242.48c.56.22,1,.35,1.49.5a5.46,5.46,0,0,0,1.46.25c.47,0,.87-.11,1-.45a1.85,1.85,0,0,0-.34-1.32,15.43,15.43,0,0,0-4.28-4.42c-.21-.13-.43-.25-.65-.36a2.1,2.1,0,0,0-.6-.23,1,1,0,0,0-.88.25,2.85,2.85,0,0,0-.77,2.29,2.66,2.66,0,0,0,.34,1.17,4.23,4.23,0,0,0,.8,1.06A5.05,5.05,0,0,0,351,242.48Zm-.37,1.48c-2.23-.24-4.87-2.08-4.95-4.89a4.48,4.48,0,0,1,1.54-3.53,2.42,2.42,0,0,1,2.15-.44,4.1,4.1,0,0,1,.88.39,7.78,7.78,0,0,1,.74.47,11.9,11.9,0,0,1,2.46,2.34,10.74,10.74,0,0,1,1.76,2.84,3.76,3.76,0,0,1,.36,1.78,1.31,1.31,0,0,1-.61.9,2.4,2.4,0,0,1-.92.34A8.75,8.75,0,0,1,350.58,244Z"/><path class="cls-14" d="M307.35,242.73s4.55-3.45.14-2.73a9.75,9.75,0,0,0-3.79,1.39,1.46,1.46,0,0,0,.86,2.76A5.07,5.07,0,0,0,307.35,242.73Z"/><path class="cls-11" d="M307.14,242.48a12.71,12.71,0,0,0,1.6-1.29,1.88,1.88,0,0,0,.52-.78c.07-.25-.29-.36-.61-.35a11.09,11.09,0,0,0-3.91,1.06c-.3.16-.6.33-.87.51a1.51,1.51,0,0,0-.55.66,1,1,0,0,0,.44,1.36,2.17,2.17,0,0,0,1.71-.12A6.07,6.07,0,0,0,307.14,242.48Zm.41.5a5.8,5.8,0,0,1-1.8,1.23,4.17,4.17,0,0,1-1.1.3,2.1,2.1,0,0,1-1.24-.22,1.75,1.75,0,0,1-.68-2.26,2.18,2.18,0,0,1,.81-.89,8.82,8.82,0,0,1,1-.51,10.53,10.53,0,0,1,2-.68,7.24,7.24,0,0,1,2.13-.2,1.9,1.9,0,0,1,.56.13.56.56,0,0,1,.34.56,2.49,2.49,0,0,1-.52,1A11.37,11.37,0,0,1,307.55,243Z"/><path class="cls-14" d="M301.31,246.11s-2.54,1-1.06,2.19a1.7,1.7,0,0,0,1.55.36c.74-.2,1.33-2.1.8-2.62C302.34,245.8,301.94,245.74,301.31,246.11Z"/><path class="cls-11" d="M301.45,246.4a5.72,5.72,0,0,0-1,.45c-.3.18-.58.48-.5.78a1.56,1.56,0,0,0,1.63.79c.29,0,.44-.27.6-.59a2.41,2.41,0,0,0,.25-1,1,1,0,0,0,0-.43.26.26,0,0,0-.15-.19A1,1,0,0,0,301.45,246.4Zm-.29-.58a1.48,1.48,0,0,1,1.38-.25,1,1,0,0,1,.57.65,1.54,1.54,0,0,1,0,.7,3.16,3.16,0,0,1-.41,1.21,2,2,0,0,1-.4.53,1.19,1.19,0,0,1-.66.31,2,2,0,0,1-1.27-.27,1.45,1.45,0,0,1-.77-1,1.55,1.55,0,0,1,.56-1.14A4.09,4.09,0,0,1,301.16,245.82Z"/><path class="cls-16" d="M549.28,116.62s-22.84-19.76-9.62,6.13c5.05,9.87,9.89,16.18,14,20.21,6.73,6.66,12.07-2.34,7.29-12.5A34.74,34.74,0,0,0,549.28,116.62Z"/><path class="cls-11" d="M548.81,117.22c-1.51-1.34-3-2.54-4.57-3.73a29.08,29.08,0,0,0-4.91-3.09,4.43,4.43,0,0,0-2.58-.53c-.74.16-.92,1.17-.83,2.09a12.1,12.1,0,0,0,.62,2.81,24.45,24.45,0,0,0,1.06,2.73,103,103,0,0,0,12.14,20.13,53.89,53.89,0,0,0,3.9,4.36,10.72,10.72,0,0,0,2.13,1.79,4.44,4.44,0,0,0,2.4.72c1.61,0,2.82-1.56,3.32-3.27a12.08,12.08,0,0,0,.2-5.49,19.08,19.08,0,0,0-1.8-5.35,36.52,36.52,0,0,0-2.93-5A35,35,0,0,0,548.81,117.22Zm.93-1.2a34.69,34.69,0,0,1,8.62,8.39,36.51,36.51,0,0,1,3.1,5.21,20.07,20.07,0,0,1,1.9,5.85,13.91,13.91,0,0,1-.36,6.24,7.2,7.2,0,0,1-1.64,2.85,4.53,4.53,0,0,1-3.15,1.43,5.84,5.84,0,0,1-3.19-1,12.41,12.41,0,0,1-2.37-2,56.18,56.18,0,0,1-3.92-4.54,86,86,0,0,1-6.57-10,83.23,83.23,0,0,1-5.23-10.69,26.14,26.14,0,0,1-1.71-5.77,4.44,4.44,0,0,1,.09-1.61,2.24,2.24,0,0,1,.42-.79,1.92,1.92,0,0,1,.79-.51,5.23,5.23,0,0,1,3.17.43,30.4,30.4,0,0,1,5.28,2.92C546.62,113.57,548.24,114.8,549.74,116Z"/><path class="cls-13" d="M325,439.32s-2.33,0-1.17,1.61a2.44,2.44,0,0,0,2.51.83c.62-.11.72-1.27.14-1.58C326.09,440,325.62,439.32,325,439.32Z"/><path class="cls-11" d="M325,439.57a2.56,2.56,0,0,0-1,.19.48.48,0,0,0-.19.71,1.92,1.92,0,0,0,1.64,1.16,3.35,3.35,0,0,0,.55,0,1.13,1.13,0,0,0,.47-.1.82.82,0,0,0,.17-.87.5.5,0,0,0-.27-.33,5.4,5.4,0,0,1-.48-.37A1.4,1.4,0,0,0,325,439.57Zm0-.5a1.86,1.86,0,0,1,1.16.57,3.07,3.07,0,0,0,.41.35,1,1,0,0,1,.42.56,1.19,1.19,0,0,1-.34,1.25,1.34,1.34,0,0,1-.64.16,3,3,0,0,1-.6,0,2.38,2.38,0,0,1-2-1.33,1.05,1.05,0,0,1-.11-.69.93.93,0,0,1,.45-.58A2.72,2.72,0,0,1,325,439.07Z"/><path class="cls-13" d="M355.27,429.2s-3.65,8.87,1.39,7c2.91-1.11,4.64-5.1,5.58-8.27.75-2.5-1.4-4.68-2.93-3C358.4,425.89,356.32,426.66,355.27,429.2Z"/><path class="cls-11" d="M355.78,429.41a22.62,22.62,0,0,0-1.15,3.67,6.35,6.35,0,0,0-.14,1.82c.07.6.27,1,.72,1.06a3.12,3.12,0,0,0,1.65-.36,5.93,5.93,0,0,0,1.5-1.06,11.51,11.51,0,0,0,2.15-3.14,23.19,23.19,0,0,0,1.4-3.64,3.12,3.12,0,0,0,0-1.74,1.89,1.89,0,0,0-1-1.23,1.09,1.09,0,0,0-1.29.44,14.78,14.78,0,0,1-1.58,1.31A6.85,6.85,0,0,0,355.78,429.41Zm-1-.42a7.6,7.6,0,0,1,2.68-3.21,16.94,16.94,0,0,0,1.51-1.16,2.4,2.4,0,0,1,1-.66,1.79,1.79,0,0,1,1.25.09,2.71,2.71,0,0,1,1.41,1.75,3.78,3.78,0,0,1,0,2.16,25.49,25.49,0,0,1-1.4,3.77,12.86,12.86,0,0,1-2.27,3.38,6.84,6.84,0,0,1-1.69,1.26,3.94,3.94,0,0,1-2.17.48,1.62,1.62,0,0,1-1.12-.7,2.59,2.59,0,0,1-.39-1.13,7.43,7.43,0,0,1,.1-2.12A18.79,18.79,0,0,1,354.76,429Z"/><path class="cls-14" d="M341.81,234.44s-1.36,0-.68,1.22a1.23,1.23,0,0,0,1.46.63c.36-.08.41-1,.08-1.2S342.19,234.44,341.81,234.44Z"/><path class="cls-11" d="M341.81,234.69a.94.94,0,0,0-.55.15c-.12.09-.13.26-.07.47a1.11,1.11,0,0,0,.89.85c.19,0,.52,0,.55-.09a.82.82,0,0,0,.05-.6.33.33,0,0,0-.12-.21,2.8,2.8,0,0,1-.3-.28C342.1,234.8,341.91,234.67,341.81,234.69Zm0-.5a1.14,1.14,0,0,1,.77.5,2.1,2.1,0,0,0,.23.26.73.73,0,0,1,.23.44,1.15,1.15,0,0,1-.15.86.42.42,0,0,1-.21.18.68.68,0,0,1-.22,0,1.47,1.47,0,0,1-.42,0,1.51,1.51,0,0,1-1.23-1.05.84.84,0,0,1,.14-.93A1.3,1.3,0,0,1,341.81,234.19Z"/><path class="cls-20" d="M165.84,344.45c-4.22,17.45,13.54,13.61,22.16,8.5s14.49-3.4,17.24-3.4c2.46,0,8.62-5.1,1.23-11.9s-22.16-8.51-27.09-5.11S167.07,339.35,165.84,344.45Z"/><polygon class="cls-6" points="357.5 428.72 618.5 406.72 539.5 479.72 285.5 508.72 357.5 428.72"/><path class="cls-11" d="M168.18,344.77a15.58,15.58,0,0,0-.42,6.46,5.76,5.76,0,0,0,1.16,2.61,5.47,5.47,0,0,0,2.35,1.61,13.72,13.72,0,0,0,6.45.45,32.86,32.86,0,0,0,9.83-3.12c1-.51,2.08-1.14,3.19-1.64a25.67,25.67,0,0,1,7-2.17,27.09,27.09,0,0,1,7.25,0l.86.07h.42l.35,0a4.29,4.29,0,0,0,1.43-.63,5.53,5.53,0,0,0,2.09-2.45,4.85,4.85,0,0,0,.18-3.17,8,8,0,0,0-1.56-2.92,18,18,0,0,0-5.33-4.31,31.66,31.66,0,0,0-13.31-3.62,21.38,21.38,0,0,0-6.72.6,10.91,10.91,0,0,0-1.49.54c-.43.27-.81.46-1.34.85-1,.7-2,1.37-3,2a59.74,59.74,0,0,0-5.69,4A10.07,10.07,0,0,0,168.18,344.77Zm-2.69-.65a9.83,9.83,0,0,1,1.9-3.66,17,17,0,0,1,2.75-2.69,56.47,56.47,0,0,1,6.06-4c1-.62,2-1.21,3-1.83a19.32,19.32,0,0,1,1.71-1,15.15,15.15,0,0,1,1.88-.6,23.61,23.61,0,0,1,7.43-.33A33.87,33.87,0,0,1,204,334.41a19.84,19.84,0,0,1,5.55,4.74,9.11,9.11,0,0,1,1.72,3.33,5.8,5.8,0,0,1-.26,3.81,6.63,6.63,0,0,1-2.44,2.92,5.24,5.24,0,0,1-1.8.8l-.54.07h-.47l-.91-.06a24.81,24.81,0,0,0-7,.19,23.43,23.43,0,0,0-6.49,2.33c-1,.53-2,1.15-3.07,1.77a33.28,33.28,0,0,1-3.28,1.62,32.87,32.87,0,0,1-7,2.17,15.73,15.73,0,0,1-7.63-.26,8,8,0,0,1-3.51-2.28,8.26,8.26,0,0,1-1.81-3.77A18.17,18.17,0,0,1,165.49,344.12Z"/><path class="cls-13" d="M176.12,346.27c-1.23.32-2.17-1.51-1.43-2.82.49-.86,1.23-1.41,2.28-.49,2.32,2,0,3,0,3A6.29,6.29,0,0,1,176.12,346.27Z"/><path class="cls-11" d="M176.25,346.75a1.61,1.61,0,0,1-1.7-.72,2.77,2.77,0,0,1,.09-3.1,2.25,2.25,0,0,1,.6-.59,1.37,1.37,0,0,1,.91-.21,3.34,3.34,0,0,1,2.32,2.27,1.82,1.82,0,0,1-.73,1.71,2.25,2.25,0,0,1-.36.24l-.21.11-.18.06Zm-.26-1,.62-.22.15-.05.11-.06.22-.16a.83.83,0,0,0,.41-.76,1.89,1.89,0,0,0-.53-1,2.08,2.08,0,0,0-.93-.7.89.89,0,0,0-.88.46,1.79,1.79,0,0,0-.41,1.13,1.63,1.63,0,0,0,.44,1.08A.75.75,0,0,0,176,345.78Z"/><path class="cls-13" d="M202.3,342.1c-.13,0-.26.48-.29,1.15s0,1.48.44,1.78c.74.56,2.67.56,2.88,0s.33-2.23-.21-2.23S202.87,342,202.3,342.1Z"/><path class="cls-11" d="M202.4,342.62c.21-.06.23-.13.25-.15h0s0,0,0,.08a2,2,0,0,0-.08.29c0,.21-.07.43-.09.65a2.47,2.47,0,0,0,.13,1.17,1.66,1.66,0,0,0,1,.48,2.54,2.54,0,0,0,1.29-.05c.32,0,.31-.62.35-1.05a2.8,2.8,0,0,0-.06-.66.71.71,0,0,0-.09-.24s0,0,0,0h0a11.63,11.63,0,0,1-1.49-.32l-.68-.15A1.53,1.53,0,0,0,202.4,342.62Zm-.21-1a2.21,2.21,0,0,1,.94.13l.7.26a11,11,0,0,0,1.27.5l.14,0a.37.37,0,0,1,.18.08.67.67,0,0,1,.21.25,1.57,1.57,0,0,1,.11.44,3.39,3.39,0,0,1,0,.78,3.86,3.86,0,0,1-.1.75,1.13,1.13,0,0,1-.15.42.9.9,0,0,1-.39.3,3.78,3.78,0,0,1-1.55.17,3.56,3.56,0,0,1-.78-.14,1.59,1.59,0,0,1-.78-.47,2.88,2.88,0,0,1-.45-1.62,6.83,6.83,0,0,1,0-.78,3.27,3.27,0,0,1,.06-.42,1.44,1.44,0,0,1,.08-.25,1,1,0,0,1,.11-.18A.65.65,0,0,1,202.19,341.59Z"/><path class="cls-21" d="M726.21,593.29c-.87.46-2.53-.95-3.71-3.16s-1.42-4.38-.54-4.84"/><rect class="cls-22" x="699.79" y="584.72" width="13.82" height="26.9" rx="3.97" transform="translate(510.61 1503.03) rotate(-118.02)"/><rect class="cls-22" x="720.19" y="577.25" width="7.37" height="23.83" rx="3.05" transform="translate(543.8 1504.96) rotate(-118.02)"/><path class="cls-21" d="M724.9,593.81c-.88.47-2.54-.95-3.71-3.15s-1.42-4.38-.55-4.85"/><path class="cls-21" d="M726.86,593c-.87.47-2.53-1-3.71-3.16s-1.42-4.37-.54-4.84"/><path class="cls-21" d="M729.48,591.93c-.87.47-2.54-.94-3.71-3.15s-1.42-4.38-.55-4.84"/><path class="cls-16" d="M715,593.78a3.81,3.81,0,0,1,.69-4.36,2.1,2.1,0,0,0-.7.16c-1.54.63-2.11,2.75-1.3,4.74s2.73,3.08,4.26,2.45a2.59,2.59,0,0,0,.61-.38A3.82,3.82,0,0,1,715,593.78Z"/><path class="cls-16" d="M713.62,587.09a4.72,4.72,0,0,0-2.3,3.63,8.86,8.86,0,0,0,3.24,7.81,4.67,4.67,0,0,0,4.15.92.06.06,0,0,1,.08,0,.05.05,0,0,1,0,.07,4,4,0,0,1-2.33.36,5.9,5.9,0,0,1-2.22-.89,8.53,8.53,0,0,1-3-3.71,8.43,8.43,0,0,1-.48-4.71,5.89,5.89,0,0,1,1-2.17A3.91,3.91,0,0,1,713.62,587.09Z"/><path class="cls-23" d="M488.52,752.27a40.71,40.71,0,0,0,7.58-23.58c0-23.92-21-43.31-46.94-43.31s-46.94,19.39-46.94,43.31c0,1.11.06,2.21.15,3.3a38.08,38.08,0,0,0-18.84,6.66c-12.34,8.22-18.41,21-14.21,29.3-3.38,6-5.74,12.61-5.25,19.49,1.81,25.74,32.13,51.78,71.77,51.78,15.6,0,30.58-3.63,41.81-9.69,17.19-9.27,29.35-24.45,29.35-41.79C507,774.16,500.36,761.51,488.52,752.27Z"/><path class="cls-24" d="M454,752.75l8-3.73,15.93-12.16,10.6,1.52,10.52,6.07,4.66,4.14s1.58,5.1-6.4,10.08c-8.56,5.34-27.25,10.37-43.61,3-2.14-1-2.26-4.54-1.21-6.66C453.16,753.68,452.49,753.22,454,752.75Z"/><path class="cls-25" d="M451,758.22s2.52,5.79,11,7,28.95-2,32-4.43c.78-.62,1.83-1.36,3-2.18,3.28-2.38,6.06-3.27,6.06-7.39"/><ellipse class="cls-26" cx="446.59" cy="730.39" rx="8.63" ry="7.99"/><path class="cls-26" d="M496.71,726c-4,0-7.27-3.88-7.27-8.67a9.46,9.46,0,0,1,2.43-6.47"/><ellipse class="cls-27" cx="449.01" cy="728.07" rx="1.97" ry="1.82"/><ellipse class="cls-27" cx="491.83" cy="716.92" rx="0.99" ry="1.43" transform="matrix(1, -0.1, 0.1, 1, -67.46, 51.29)"/><path class="cls-25" d="M451.58,759c-.3-2.86.46-7,9-9.35a6.5,6.5,0,0,0,2.44-1.28c3.33-2.85,12-11.12,15-11.12,7,0,9.32.55,11.74,1.76l6.06,3c.84.42,4.86,3.73,7.26,5.74"/><path class="cls-28" d="M504.5,750.72c-7.21-.55-19.68,15.54-52.5,7.5"/><path class="cls-25" d="M503.06,747.75c1.08.9.94,3.47-.06,3.47"/><path class="cls-29" d="M383,746.22c7.34-6.06,15.69-9.26,21-8-.07-1.67-.69-5.22-2-6-5-3-13.53.92-23.11,8.84s-13,20.16-8.89,25.16a17.36,17.36,0,0,0,6,4C370,762.22,375.67,752.28,383,746.22Z"/><path class="cls-30" d="M494.12,741.17a40.11,40.11,0,0,0,2-12.48c0-23.92-21-43.31-46.94-43.31s-46.94,19.39-46.94,43.31"/><path class="cls-30" d="M402.22,731.67a36.85,36.85,0,0,0-18.77,6.3c-12.36,8-18.43,20.76-13.95,28.88A41.73,41.73,0,0,0,365,785.62c0,29.43,31.73,53.3,70.87,53.3s70.71-23.87,70.86-53.3c.05-9.88-3.4-19-9.75-27"/><path class="cls-26" d="M379.51,771.08a10.57,10.57,0,0,1-4.19-.68,14.58,14.58,0,0,1-3.8-2.06,13.45,13.45,0,0,1-3.09-3.16,7.3,7.3,0,0,1-1.42-4.54l2,.29a5.61,5.61,0,0,0,.72,3.47,12.21,12.21,0,0,0,2.45,3.17,14.11,14.11,0,0,0,3.35,2.37A10.47,10.47,0,0,0,379.51,771.08Z"/><path class="cls-26" d="M403.22,728.69a39.43,39.43,0,0,0,3.53,16.84,43,43,0,0,0,10.25,14,47.37,47.37,0,0,0,14.89,9.14A50.85,50.85,0,0,0,449.16,772a50.85,50.85,0,0,1-17.44-2.86,48.09,48.09,0,0,1-15.38-8.86,44.27,44.27,0,0,1-10.95-14.11,41.06,41.06,0,0,1-4.17-17.47Z"/><path class="cls-31" d="M131,667.22c-28,2-31.81-.71-55.5,1.5-22.53,2.1-42,11.88-34,28,30.81,62.28,512.09-148.91,579-82,18.5,18.5-34.29,107-45.5,125.5"/><path class="cls-16" d="M343.38,13.19s-39.13,10,.18,10.35c15,.13,25.72-1.09,33.27-2.65,12.5-2.58,6-10.71-9.16-11.18A70.08,70.08,0,0,0,343.38,13.19Z"/><path class="cls-11" d="M343.6,13.92c-2.51.61-4.92,1.29-7.36,2a53.71,53.71,0,0,0-7.1,2.61,12.56,12.56,0,0,0-1.61.9,2.51,2.51,0,0,0-1.08,1.14c-.13.32.36.71.89,1a9.59,9.59,0,0,0,1.74.57,27.34,27.34,0,0,0,3.73.6c1.26.13,2.53.21,3.8.25a215.07,215.07,0,0,0,30.46-1.19c2.52-.31,5-.69,7.51-1.16,1.25-.24,2.5-.48,3.66-.82a10.63,10.63,0,0,0,3.24-1.46,3.36,3.36,0,0,0,1-1.14,1.65,1.65,0,0,0,.05-1.29,5.2,5.2,0,0,0-2.24-2.33,20.26,20.26,0,0,0-6.89-2.41,40.32,40.32,0,0,0-7.46-.61,71.7,71.7,0,0,0-22.35,3.36Zm-.43-1.46a67.47,67.47,0,0,1,15.06-3.29A71.3,71.3,0,0,1,366,8.81a40.66,40.66,0,0,1,7.76.7,22,22,0,0,1,7.43,2.73A6.58,6.58,0,0,1,384,15.42a3.2,3.2,0,0,1-.14,2.43,4.82,4.82,0,0,1-1.49,1.69c-2.37,1.59-5,2-7.53,2.44s-5.07.8-7.61,1.08c-5.1.56-10.21.84-15.32,1s-10.22.07-15.33-.31a64.27,64.27,0,0,1-7.65-.89,10.31,10.31,0,0,1-1.89-.59,3.11,3.11,0,0,1-.92-.57,1.3,1.3,0,0,1-.44-1.21,2.06,2.06,0,0,1,.59-1,5.44,5.44,0,0,1,.77-.68,12.94,12.94,0,0,1,1.69-1A81.26,81.26,0,0,1,343.17,12.46Z"/><path class="cls-15" d="M318.6,33.43c1.54-4.55-1.48-7.38-4.53-4.25-5.27,5.39-5.89,8.14-2.54,8.93,4.2,1,5.94-1.43,7.07-4.68Z"/><path class="cls-16" d="M323.72,34.62c.39,1.12,2,1.19,3.59.15s2.57-2.81,2.19-3.93-1.16.22-2.75,1.27S323.34,33.49,323.72,34.62Z"/><path class="cls-11" d="M324,34.52a1.19,1.19,0,0,0,1.39.63,4.23,4.23,0,0,0,1.75-.72,4.44,4.44,0,0,0,2.13-3,1.46,1.46,0,0,0,0-.42.58.58,0,0,0-.13-.27s-.08,0-.21.08a2.88,2.88,0,0,0-.39.28,15.72,15.72,0,0,1-1.68,1.27c-.6.38-1.23.69-1.84,1S323.77,34.07,324,34.52Zm-.55.19a1.08,1.08,0,0,1,0-.69,1.32,1.32,0,0,1,.38-.53,5,5,0,0,1,.94-.58,19.55,19.55,0,0,0,1.82-1,15.87,15.87,0,0,0,1.59-1.3,3.19,3.19,0,0,1,.44-.34.77.77,0,0,1,.77-.11,1.06,1.06,0,0,1,.41.6,2.08,2.08,0,0,1,.09.6,3.89,3.89,0,0,1-.76,2.11,6.21,6.21,0,0,1-1.57,1.54,4.73,4.73,0,0,1-2.09.78,2.33,2.33,0,0,1-1.18-.18A1.54,1.54,0,0,1,323.45,34.71Z"/><path class="cls-32" d="M132.5,663.16c-27,0-18.35-54.41-35.5-59-12.24-3.25-28.37,2.28-34,15.55C50.15,650.05,87.27,732,137,759.69c80.83,45,199.65-50.58,264-129.57,65.85-80.83,84.25-156,139-160.68,35.07-3,65.43,24.65,86,49.24"/><path class="cls-33" d="M131.5,660.57c-24,2.59-19.35-47.93-36.5-52.48-12.24-3.25-28.37,2.28-34,15.55-12.85,30.3,24.27,112.24,74,139.94C215.83,808.6,334.65,713,399,634c65.85-80.82,84.25-156,139-160.67,35.07-3,65.43,24.65,86,49.24"/><path class="cls-21" d="M630.45,535.62c-.64-.76.39-2.68,2.3-4.3s4-2.31,4.62-1.56"/><rect class="cls-22" x="614.64" y="504.13" width="13.82" height="26.9" rx="3.97" transform="translate(-187.26 524.12) rotate(-40.25)"/><rect class="cls-22" x="630.3" y="520.55" width="7.37" height="23.83" rx="3.05" transform="translate(-193.93 535.68) rotate(-40.25)"/><path class="cls-21" d="M629.66,534.44c-.64-.75.39-2.68,2.3-4.29s4-2.32,4.62-1.56"/><path class="cls-21" d="M630.86,536.2c-.64-.76.39-2.68,2.3-4.3s4-2.32,4.62-1.56"/><path class="cls-21" d="M632.47,538.52c-.64-.75.39-2.68,2.3-4.29s4-2.32,4.62-1.56"/><path class="cls-16" d="M627.61,524.78a3.8,3.8,0,0,1,4.4-.25,2.26,2.26,0,0,0-.3-.65c-.94-1.36-3.14-1.48-4.91-.26s-2.44,3.31-1.49,4.68a2.2,2.2,0,0,0,.5.51A3.8,3.8,0,0,1,627.61,524.78Z"/><path class="cls-16" d="M633.85,522a4.74,4.74,0,0,0-4-1.48,8.83,8.83,0,0,0-6.94,4.82,4.65,4.65,0,0,0,0,4.25.07.07,0,0,1,0,.09.07.07,0,0,1-.09,0,4,4,0,0,1-.83-2.21,5.78,5.78,0,0,1,.39-2.36,8.41,8.41,0,0,1,3-3.67,8.54,8.54,0,0,1,4.5-1.47,5.82,5.82,0,0,1,2.33.48A4,4,0,0,1,633.85,522Z"/><path class="cls-34" d="M583.78,102.25c-6.47-5.21-11.92-2-8.17,4.78,6.46,11.74,10.48,14.38,12.88,9.43,3-6.19-.09-10.44-4.71-14.21Z"/><path class="cls-35" d="M525.26,91.52s10.8,3.55,4.63-5a16.85,16.85,0,0,0-6.55-5.81c-3.17-1.43-5.78,3.84-3.55,7.28A7.81,7.81,0,0,0,525.26,91.52Z"/><path class="cls-11" d="M525.45,90.78a20.86,20.86,0,0,0,2.23.68,8.39,8.39,0,0,0,2.2.3c.72,0,1.4-.25,1.53-.85a2.93,2.93,0,0,0-.51-2,21.83,21.83,0,0,0-6.25-6.68c-.32-.2-.65-.38-1-.55a4.8,4.8,0,0,0-.95-.38,1.8,1.8,0,0,0-1.6.42,4.58,4.58,0,0,0-1.31,3.65,4.28,4.28,0,0,0,.55,1.9,6.19,6.19,0,0,0,1.26,1.65A7.6,7.6,0,0,0,525.45,90.78Zm-.37,1.48c-3.22-.37-6.82-3-7-6.85a6.15,6.15,0,0,1,2.08-4.89,3.21,3.21,0,0,1,2.86-.6,5.41,5.41,0,0,1,1.23.54,10.44,10.44,0,0,1,1.06.66,17.83,17.83,0,0,1,3.59,3.34,17.09,17.09,0,0,1,2.62,4.09,5,5,0,0,1,.53,2.51,1.7,1.7,0,0,1-.83,1.19,3.68,3.68,0,0,1-1.28.44A13,13,0,0,1,525.08,92.26Z"/><path class="cls-36" d="M249.46,109c-4.11-3.32-7.57-1.29-5.19,3,4.11,7.46,6.67,9.13,8.19,6,1.91-3.94-.06-6.64-3-9Z"/><path class="cls-37" d="M174.6,17.43c1.54-4.55-1.48-7.38-4.53-4.25-5.27,5.39-5.89,8.14-2.54,8.93,4.2,1,5.94-1.43,7.07-4.68Z"/><path class="cls-4" d="M205.85,194.28a6,6,0,0,0-3,.28c-2.27.82-5.57,2.74-1.4,6.33,5.88,5.06,17.39,1.87,18.66,1.14s6.12.72,5.39-3.91-3.94-4.49-6.49-3C217.55,195.93,209.7,194.84,205.85,194.28Z"/><path class="cls-38" d="M285.6,41.43c1.54-4.55-1.48-7.38-4.53-4.25-5.27,5.39-5.89,8.14-2.54,8.93,4.2,1,5.94-1.43,7.07-4.68Z"/><path class="cls-14" d="M387.61,245s-9,7.65-.69,7.65a12.31,12.31,0,0,0,7.24-2.18c2.83-2,2-8-1.15-8.21C391.48,242.12,389.66,242.77,387.61,245Z"/><path class="cls-11" d="M388.14,245.52c-.62.48-1.14.93-1.69,1.43a15.89,15.89,0,0,0-1.53,1.54,5.63,5.63,0,0,0-1.09,1.78,1.12,1.12,0,0,0,.54,1.52,5.21,5.21,0,0,0,2,.31,14,14,0,0,0,2.14-.12,11.78,11.78,0,0,0,4-1.31,7,7,0,0,0,1.63-1.17,3.68,3.68,0,0,0,.81-1.67,5.06,5.06,0,0,0-.56-3.7,2,2,0,0,0-1.2-1,2.3,2.3,0,0,0-.82-.07,3.49,3.49,0,0,0-.9.17A8.37,8.37,0,0,0,388.14,245.52Zm-1.05-1.1a9.12,9.12,0,0,1,3.91-2.8,5.46,5.46,0,0,1,1.29-.25,4,4,0,0,1,1.39.11,3.64,3.64,0,0,1,2.19,1.77,6.66,6.66,0,0,1,.56,4.95,5.11,5.11,0,0,1-1.24,2.25,7.69,7.69,0,0,1-2.05,1.36,12.71,12.71,0,0,1-4.49,1.25,12.84,12.84,0,0,1-2.32,0,5.43,5.43,0,0,1-2.33-.66,2.07,2.07,0,0,1-.83-1.05,2.49,2.49,0,0,1,0-1.3,7.8,7.8,0,0,1,1-2.14A19.66,19.66,0,0,1,387.09,244.42Z"/><path class="cls-21" d="M566.52,753.31c.47-.87,2.63-.61,4.83.57s3.61,2.86,3.14,3.73"/><rect class="cls-22" x="573.14" y="724.98" width="13.82" height="26.9" rx="3.97" transform="translate(419.74 -186.79) rotate(28.32)"/><rect class="cls-22" x="567.06" y="743.54" width="7.37" height="23.83" rx="3.05" transform="translate(426.7 -180.34) rotate(28.32)"/><path class="cls-21" d="M567.32,752.15c.47-.87,2.64-.62,4.84.57s3.61,2.85,3.14,3.73"/><path class="cls-21" d="M566.13,753.9c.47-.87,2.63-.61,4.84.57s3.6,2.86,3.13,3.73"/><path class="cls-21" d="M564.55,756.25c.47-.87,2.63-.62,4.84.57s3.6,2.86,3.13,3.73"/><path class="cls-16" d="M575.56,746.7a3.82,3.82,0,0,1,1.85,4,2.7,2.7,0,0,0,.49-.52c.93-1.38.23-3.46-1.55-4.66s-4-1.06-4.9.31a2.45,2.45,0,0,0-.3.66A3.82,3.82,0,0,1,575.56,746.7Z"/><path class="cls-16" d="M580.43,751.49a4.69,4.69,0,0,0-.1-4.3,8.75,8.75,0,0,0-7-4.69,4.67,4.67,0,0,0-4,1.52.06.06,0,0,1-.09,0,.08.08,0,0,1,0-.08,4,4,0,0,1,1.75-1.58,5.73,5.73,0,0,1,2.35-.5,8.42,8.42,0,0,1,7.52,5.1,5.91,5.91,0,0,1,.4,2.35A3.84,3.84,0,0,1,580.43,751.49Z"/><path class="cls-11" d="M519,100.94a15.34,15.34,0,0,0-.93,2.11,11.85,11.85,0,0,0-.56,2.26,6.89,6.89,0,0,0,0,2.31,4.69,4.69,0,0,0,1,2.1,4.87,4.87,0,0,1-1.26-2,7.33,7.33,0,0,1-.28-2.42,11.76,11.76,0,0,1,.34-2.43,15.94,15.94,0,0,1,.76-2.34Z"/><path class="cls-14" d="M421.31,406.76c-1.31-1.11-2.82-.91-3.37.45a4.29,4.29,0,0,0,1.37,4.48c1.31,1.11.86-.43,1.41-1.79S422.62,407.87,421.31,406.76Z"/><path class="cls-11" d="M420.89,407.27a2,2,0,0,0-1.34-.44,1,1,0,0,0-.79.64,3.47,3.47,0,0,0,.38,3,3.7,3.7,0,0,0,.51.67,2.38,2.38,0,0,0,.29.27c.08.1.19,0-.05.1a.33.33,0,0,0-.16.12.27.27,0,0,0,0-.11c0-.11.06-.28.09-.43a8.63,8.63,0,0,1,.26-1,9,9,0,0,1,1-1.86c.16-.27.19-.48.15-.54A1.12,1.12,0,0,0,420.89,407.27Zm.85-1a2.12,2.12,0,0,1,.71,1.22,1.89,1.89,0,0,1-.42,1.3,4.79,4.79,0,0,0-.93,1.58,5.92,5.92,0,0,0-.16.91c0,.17,0,.33-.08.53a1.88,1.88,0,0,1-.12.36.84.84,0,0,1-.5.45.6.6,0,0,1-.36,0,.66.66,0,0,1-.26-.06,1.35,1.35,0,0,1-.34-.16,3.69,3.69,0,0,1-.48-.34,5.17,5.17,0,0,1-.8-.82,5.09,5.09,0,0,1-1-2.06,3.91,3.91,0,0,1,.18-2.44,2.74,2.74,0,0,1,.9-1.09,2.56,2.56,0,0,1,1.38-.41A3.38,3.38,0,0,1,421.74,406.25Z"/><path class="cls-14" d="M476.16,360.2c4.21-2.91,6.26-5.6,4.58-6s-3.52-1.86-7.74,1-3.52,4.84-1.83,5.26S471.94,363.1,476.16,360.2Z"/><path class="cls-11" d="M475.78,359.65a27.24,27.24,0,0,0,2.79-2.32,14.21,14.21,0,0,0,1.19-1.28,3.53,3.53,0,0,0,.71-1.19c0-.05,0,0,0,.07s.11.11.08.1l-.1,0-.26-.07-.47-.16a7.62,7.62,0,0,0-1.62-.47,5.78,5.78,0,0,0-3.18.58,14.28,14.28,0,0,0-3,1.89,6.19,6.19,0,0,0-1.17,1.24,1.62,1.62,0,0,0-.38,1.31.88.88,0,0,0,.36.46,1.48,1.48,0,0,0,.31.15c.11.05.22.06.44.13.8.25,1.28,1.08,1.48,1.05a2.38,2.38,0,0,0,1.3-.45C474.79,360.35,475.29,360,475.78,359.65Zm.75,1.09a15.17,15.17,0,0,1-1.67,1,5.89,5.89,0,0,1-.95.4,2.11,2.11,0,0,1-1.26,0,2.41,2.41,0,0,1-.93-.73,1.37,1.37,0,0,0-.55-.41,2.29,2.29,0,0,1-1.73-1.39,2.61,2.61,0,0,1,.44-2.2,7.71,7.71,0,0,1,1.31-1.52,15.86,15.86,0,0,1,3.14-2.28,6.82,6.82,0,0,1,4-.93,9.17,9.17,0,0,1,2,.48l.42.12.19.06a1.92,1.92,0,0,1,.34.1,1.52,1.52,0,0,1,.77.69,1.56,1.56,0,0,1,.14,1,3.17,3.17,0,0,1-.48,1.17,7,7,0,0,1-.64.83,14.08,14.08,0,0,1-1.42,1.37A28.84,28.84,0,0,1,476.53,360.74Z"/></g></g></svg>