<svg xmlns="http://www.w3.org/2000/svg" viewBox="0 0 467.87 121.5"><defs><style>.cls-1{fill:#272a39;}.cls-2{fill:none;stroke:#272a39;stroke-linecap:round;stroke-linejoin:round;stroke-width:7px;}</style></defs><title>Recurso 11titulocrear almacen</title><g id="Capa_2" data-name="Capa 2"><g id="Capa_1-2" data-name="Capa 1"><path class="cls-1" d="M57.12,75.86a16.73,16.73,0,0,1-6.6-6.21,18.17,18.17,0,0,1,0-18.05,16.69,16.69,0,0,1,6.6-6.22,19.86,19.86,0,0,1,9.48-2.23,20.29,20.29,0,0,1,8.3,1.63,16,16,0,0,1,6.15,4.71L75,55A10,10,0,0,0,67.08,51a9.74,9.74,0,0,0-4.87,1.2,8.34,8.34,0,0,0-3.32,3.39,11.33,11.33,0,0,0,0,10A8.37,8.37,0,0,0,62.21,69a9.74,9.74,0,0,0,4.87,1.2A10,10,0,0,0,75,66.29l6,5.47a16,16,0,0,1-6.15,4.7,20.29,20.29,0,0,1-8.3,1.63A19.86,19.86,0,0,1,57.12,75.86Z"/><path class="cls-1" d="M97.15,51.86a13.78,13.78,0,0,1,5.11-.89v8.21A20,20,0,0,0,100.2,59,5.67,5.67,0,0,0,94,65.47v12H84.84v-26h8.69v3.12A8.36,8.36,0,0,1,97.15,51.86Z"/><path class="cls-1" d="M132.21,66.72H113.3a5.33,5.33,0,0,0,2.23,3.09,7.48,7.48,0,0,0,4.16,1.08,9.1,9.1,0,0,0,3.24-.52,9.8,9.8,0,0,0,2.76-1.73l4.8,5q-3.8,4.23-11.09,4.22a17.76,17.76,0,0,1-8-1.72,13.14,13.14,0,0,1-.29-23.43,16.36,16.36,0,0,1,14.4-.12,12.19,12.19,0,0,1,5,4.66,13.68,13.68,0,0,1,1.85,7.22C132.36,64.53,132.31,65.28,132.21,66.72ZM115,58.65a5.36,5.36,0,0,0-1.8,3.27h10.65a5.36,5.36,0,0,0-1.8-3.27,5.78,5.78,0,0,0-7.05,0Z"/><path class="cls-1" d="M156.84,53.93q3.41,2.94,3.41,9V77.42h-8.5V74.06q-2,3.8-7.68,3.79a12,12,0,0,1-5.23-1,7.81,7.81,0,0,1-3.34-2.86,7.59,7.59,0,0,1-1.13-4.1,6.66,6.66,0,0,1,2.84-5.74c1.88-1.36,4.8-2,8.73-2h5.19q-.24-4.12-5.52-4.13a12.7,12.7,0,0,0-3.8.6,10.21,10.21,0,0,0-3.26,1.66L135.48,54a16.83,16.83,0,0,1,5.25-2.23A25,25,0,0,1,147,51Q153.43,51,156.84,53.93Zm-7.44,17.4a4.37,4.37,0,0,0,1.73-2.26V66.81h-3.94c-2.66,0-4,.88-4,2.64a2.32,2.32,0,0,0,.91,1.92,3.9,3.9,0,0,0,2.49.72A5.07,5.07,0,0,0,149.4,71.33Z"/><path class="cls-1" d="M178.32,51.86a13.75,13.75,0,0,1,5.11-.89v8.21a20,20,0,0,0-2.06-.14,5.68,5.68,0,0,0-6.25,6.43v12H166v-26h8.68v3.12A8.45,8.45,0,0,1,178.32,51.86Z"/><path class="cls-1" d="M222.21,53.93q3.4,2.94,3.41,9V77.42h-8.5V74.06q-2,3.8-7.68,3.79a12.08,12.08,0,0,1-5.23-1,7.79,7.79,0,0,1-3.33-2.86,7.5,7.5,0,0,1-1.13-4.1,6.65,6.65,0,0,1,2.83-5.74q2.83-2,8.74-2h5.18q-.24-4.12-5.52-4.13a12.64,12.64,0,0,0-3.79.6,10.26,10.26,0,0,0-3.27,1.66L200.85,54a16.79,16.79,0,0,1,5.26-2.23,24.84,24.84,0,0,1,6.21-.8Q218.8,51,222.21,53.93Zm-7.44,17.4a4.32,4.32,0,0,0,1.73-2.26V66.81h-3.94q-4,0-4,2.64a2.32,2.32,0,0,0,.91,1.92,3.93,3.93,0,0,0,2.5.72A5.06,5.06,0,0,0,214.77,71.33Z"/><path class="cls-1" d="M231.38,41.81h9.12V77.42h-9.12Z"/><path class="cls-1" d="M288,53.85q2.85,2.88,2.85,8.69V77.42h-9.12V64a6.42,6.42,0,0,0-1-4,3.49,3.49,0,0,0-2.9-1.3,4.19,4.19,0,0,0-3.32,1.44,6.55,6.55,0,0,0-1.24,4.37V77.42h-9.12V64c0-3.55-1.32-5.33-3.94-5.33a4.21,4.21,0,0,0-3.36,1.44,6.55,6.55,0,0,0-1.25,4.37V77.42H246.4v-26h8.69v2.73a9.09,9.09,0,0,1,3.43-2.37,11.65,11.65,0,0,1,4.35-.8,11.46,11.46,0,0,1,4.89,1,8.38,8.38,0,0,1,3.51,3.07,10.06,10.06,0,0,1,3.88-3A12.47,12.47,0,0,1,280.29,51,10.32,10.32,0,0,1,288,53.85Z"/><path class="cls-1" d="M317.54,53.93q3.4,2.94,3.41,9V77.42h-8.5V74.06q-2,3.8-7.68,3.79a12,12,0,0,1-5.23-1,7.81,7.81,0,0,1-3.34-2.86,7.59,7.59,0,0,1-1.13-4.1,6.66,6.66,0,0,1,2.84-5.74c1.88-1.36,4.8-2,8.73-2h5.19q-.24-4.12-5.52-4.13a12.7,12.7,0,0,0-3.8.6,10.21,10.21,0,0,0-3.26,1.66L296.18,54a16.83,16.83,0,0,1,5.25-2.23,25,25,0,0,1,6.22-.8Q314.13,51,317.54,53.93Zm-7.44,17.4a4.37,4.37,0,0,0,1.73-2.26V66.81h-3.94c-2.66,0-4,.88-4,2.64a2.32,2.32,0,0,0,.91,1.92,3.92,3.92,0,0,0,2.49.72A5.07,5.07,0,0,0,310.1,71.33Z"/><path class="cls-1" d="M332.66,76.13a12.76,12.76,0,0,1-7.2-11.76,12.62,12.62,0,0,1,7.2-11.69A17,17,0,0,1,340.39,51a14.82,14.82,0,0,1,7.63,1.9,10.53,10.53,0,0,1,4.56,5.26l-7.06,3.6q-1.77-3.51-5.18-3.51a5.49,5.49,0,0,0-4.06,1.63,6.18,6.18,0,0,0-1.61,4.52A6.3,6.3,0,0,0,336.28,69a5.44,5.44,0,0,0,4.06,1.66q3.41,0,5.18-3.51l7.06,3.6A10.57,10.57,0,0,1,348,76a14.81,14.81,0,0,1-7.63,1.89A16.87,16.87,0,0,1,332.66,76.13Z"/><path class="cls-1" d="M382.2,66.72H363.28a5.3,5.3,0,0,0,2.24,3.09,7.42,7.42,0,0,0,4.15,1.08,9.1,9.1,0,0,0,3.24-.52,9.8,9.8,0,0,0,2.76-1.73l4.8,5q-3.8,4.23-11.09,4.22a17.76,17.76,0,0,1-8-1.72,13.14,13.14,0,0,1-.29-23.43,16.38,16.38,0,0,1,14.41-.12,12.23,12.23,0,0,1,5,4.66,13.68,13.68,0,0,1,1.85,7.22C382.34,64.53,382.29,65.28,382.2,66.72Zm-17.26-8.07a5.41,5.41,0,0,0-1.8,3.27h10.65a5.36,5.36,0,0,0-1.8-3.27,5.78,5.78,0,0,0-7.05,0ZM370,41h9.12l-9,7.3h-6.53Z"/><path class="cls-1" d="M411.31,53.85q3,2.88,2.95,8.69V77.42h-9.12V64q0-5.33-4.27-5.33a4.86,4.86,0,0,0-3.77,1.54,6.61,6.61,0,0,0-1.42,4.61V77.42h-9.12v-26h8.69v2.83a10.34,10.34,0,0,1,3.65-2.43,12.35,12.35,0,0,1,4.61-.84A10.7,10.7,0,0,1,411.31,53.85Z"/><polyline class="cls-2" points="335.38 118 3.5 116.5 3.5 86.5"/><polyline class="cls-2" points="164.23 3.5 464.37 4 464.37 52.5"/><polyline class="cls-2" points="117.93 3.5 3.5 4 3.5 52.5"/><polyline class="cls-2" points="385.99 118 464.37 117 464.37 87"/></g></g></svg>