<svg xmlns="http://www.w3.org/2000/svg" viewBox="0 0 675 767"><defs><style>.cls-1{fill:#267f4c;}</style></defs><title>Recurso 1elipse1</title><g id="Capa_2" data-name="Capa 2"><g id="Capa_1-2" data-name="Capa 1"><path class="cls-1" d="M337.5,766.5a300.42,300.42,0,0,1-131.15-30.09c-40.13-19.28-76.17-46.9-107.12-82.07C35.56,582,.5,485.81.5,383.5S35.56,185,99.23,112.65c31-35.16,67-62.78,107.12-82.06a300.86,300.86,0,0,1,262.3,0c40.13,19.28,76.17,46.9,107.12,82.06C639.44,185,674.5,281.19,674.5,383.5S639.44,582,575.77,654.34c-30.95,35.17-67,62.79-107.12,82.07A300.42,300.42,0,0,1,337.5,766.5Z"/><path d="M337.5,1A300.09,300.09,0,0,1,468.44,31C508.5,50.3,544.49,77.87,575.4,113s55.18,76,72.14,121.58a432.36,432.36,0,0,1,0,297.86C630.58,578,606.31,618.89,575.4,654s-66.9,62.69-107,82a300.39,300.39,0,0,1-261.88,0c-40.06-19.26-76.05-46.83-107-82S44.42,578,27.46,532.43a432.36,432.36,0,0,1,0-297.86C44.42,189,68.69,148.11,99.6,113S166.5,50.3,206.56,31A300.09,300.09,0,0,1,337.5,1m0-1C151.1,0,0,171.7,0,383.5S151.1,767,337.5,767,675,595.3,675,383.5,523.9,0,337.5,0Z"/></g></g></svg>