<svg xmlns="http://www.w3.org/2000/svg" viewBox="0 0 470.44 121.5"><defs><style>.cls-1{fill:#272a39;}.cls-2{fill:none;stroke:#272a39;stroke-linecap:round;stroke-linejoin:round;stroke-width:7px;}</style></defs><title>Recurso 14tituloMISALMA</title><g id="Capa_2" data-name="Capa 2"><g id="Capa_1-2" data-name="Capa 1"><path class="cls-1" d="M81.27,72.1l-.09-17.81-8.64,14.5H68.31l-8.59-14V72.1H50.94V38.5h7.82L70.57,57.89,82.09,38.5h7.82L90,72.1Z"/><path class="cls-1" d="M96.83,41.81a4.65,4.65,0,0,1,0-6.91,5.74,5.74,0,0,1,4-1.39,6,6,0,0,1,4,1.32,4.28,4.28,0,0,1,1.54,3.38,4.69,4.69,0,0,1-1.54,3.58,6.5,6.5,0,0,1-8.06,0Zm-.53,4.27h9.12v26H96.3Z"/><path class="cls-1" d="M114.34,71.79a17.06,17.06,0,0,1-5.08-2L112,63.6a15.6,15.6,0,0,0,4.23,1.76,18.89,18.89,0,0,0,4.84.64,7.89,7.89,0,0,0,3.15-.45,1.44,1.44,0,0,0,.93-1.32c0-.58-.37-1-1.12-1.23a23.34,23.34,0,0,0-3.58-.69,35.09,35.09,0,0,1-5.3-1,8.17,8.17,0,0,1-3.77-2.3,6.58,6.58,0,0,1-1.59-4.71,7.14,7.14,0,0,1,1.49-4.44,9.87,9.87,0,0,1,4.35-3.07,18.62,18.62,0,0,1,6.84-1.13,27.19,27.19,0,0,1,5.61.58,16.15,16.15,0,0,1,4.66,1.63L130,54.05a15.16,15.16,0,0,0-7.49-1.92,7.34,7.34,0,0,0-3.16.51,1.48,1.48,0,0,0-1,1.32c0,.6.37,1,1.1,1.27a24.67,24.67,0,0,0,3.65.74,39.73,39.73,0,0,1,5.33,1.11,8,8,0,0,1,3.67,2.28A6.47,6.47,0,0,1,133.64,64a7.06,7.06,0,0,1-1.49,4.39,9.66,9.66,0,0,1-4.39,3.05,19.82,19.82,0,0,1-7,1.1A28.47,28.47,0,0,1,114.34,71.79Z"/><path class="cls-1" d="M172.52,48.6q3.4,3,3.41,9V72.1h-8.5V68.74q-2,3.8-7.68,3.79a12.08,12.08,0,0,1-5.23-1,7.87,7.87,0,0,1-3.34-2.86,7.58,7.58,0,0,1-1.12-4.1,6.65,6.65,0,0,1,2.83-5.74q2.84-2,8.73-2h5.19q-.24-4.12-5.52-4.13a12.64,12.64,0,0,0-3.79.6,10.06,10.06,0,0,0-3.27,1.66l-3.07-6.19a17,17,0,0,1,5.26-2.24,25.3,25.3,0,0,1,6.21-.79Q169.11,45.65,172.52,48.6ZM165.08,66a4.3,4.3,0,0,0,1.73-2.25V61.49h-3.94q-4,0-4,2.64a2.32,2.32,0,0,0,.91,1.92,3.93,3.93,0,0,0,2.5.72A5,5,0,0,0,165.08,66Z"/><path class="cls-1" d="M181.69,36.48h9.12V72.1h-9.12Z"/><path class="cls-1" d="M238.25,48.53q2.87,2.88,2.86,8.69V72.1H232V58.71a6.4,6.4,0,0,0-1-4,3.5,3.5,0,0,0-2.91-1.3,4.18,4.18,0,0,0-3.31,1.44,6.55,6.55,0,0,0-1.25,4.37V72.1h-9.12V58.71q0-5.33-3.93-5.33a4.21,4.21,0,0,0-3.36,1.44,6.55,6.55,0,0,0-1.25,4.37V72.1h-9.12v-26h8.69v2.74a9.11,9.11,0,0,1,3.43-2.38,11.83,11.83,0,0,1,4.34-.79,11.48,11.48,0,0,1,4.9,1,8.38,8.38,0,0,1,3.51,3.07,10,10,0,0,1,3.88-3,12.31,12.31,0,0,1,5.14-1.06A10.28,10.28,0,0,1,238.25,48.53Z"/><path class="cls-1" d="M267.85,48.6q3.4,3,3.4,9V72.1h-8.49V68.74q-2,3.8-7.68,3.79a12,12,0,0,1-5.23-1,7.76,7.76,0,0,1-3.34-2.86,7.59,7.59,0,0,1-1.13-4.1,6.68,6.68,0,0,1,2.83-5.74q2.83-2,8.74-2h5.18q-.24-4.12-5.52-4.13a12.69,12.69,0,0,0-3.79.6,9.91,9.91,0,0,0-3.26,1.66l-3.07-6.19a17.07,17.07,0,0,1,5.25-2.24,25.44,25.44,0,0,1,6.22-.79Q264.44,45.65,267.85,48.6ZM260.41,66a4.24,4.24,0,0,0,1.72-2.25V61.49H258.2q-4,0-4,2.64a2.32,2.32,0,0,0,.92,1.92,3.9,3.9,0,0,0,2.49.72A5,5,0,0,0,260.41,66Z"/><path class="cls-1" d="M283,70.8a13,13,0,0,1,0-23.44,17,17,0,0,1,7.72-1.71,14.73,14.73,0,0,1,7.64,1.9,10.5,10.5,0,0,1,4.56,5.25l-7.06,3.6q-1.77-3.49-5.18-3.5a5.44,5.44,0,0,0-4.06,1.63A6.16,6.16,0,0,0,285,59a6.32,6.32,0,0,0,1.61,4.59,5.42,5.42,0,0,0,4.06,1.65c2.27,0,4-1.16,5.18-3.5l7.06,3.6a10.57,10.57,0,0,1-4.56,5.26,14.83,14.83,0,0,1-7.64,1.89A16.71,16.71,0,0,1,283,70.8Z"/><path class="cls-1" d="M332.5,61.4H313.59a5.29,5.29,0,0,0,2.23,3.09A7.47,7.47,0,0,0,320,65.57a8.8,8.8,0,0,0,3.24-.53A9.28,9.28,0,0,0,326,63.32l4.8,5q-3.78,4.22-11.08,4.22a17.6,17.6,0,0,1-8-1.73A12.74,12.74,0,0,1,304.42,59a13,13,0,0,1,1.85-6.88,12.81,12.81,0,0,1,5.11-4.78,16.36,16.36,0,0,1,14.4-.12,12.19,12.19,0,0,1,5,4.66,13.68,13.68,0,0,1,1.85,7.22C332.65,59.2,332.6,60,332.5,61.4Zm-17.25-8.07a5.36,5.36,0,0,0-1.8,3.27H324.1a5.41,5.41,0,0,0-1.8-3.27,5.78,5.78,0,0,0-7.05,0Z"/><path class="cls-1" d="M361.61,48.53q3,2.88,3,8.69V72.1h-9.12V58.71q0-5.33-4.28-5.33a4.85,4.85,0,0,0-3.76,1.54,6.55,6.55,0,0,0-1.42,4.6V72.1h-9.12v-26h8.69v2.84a10.25,10.25,0,0,1,3.65-2.43,12.3,12.3,0,0,1,4.6-.84A10.67,10.67,0,0,1,361.61,48.53Z"/><path class="cls-1" d="M397.11,61.4H378.2a5.29,5.29,0,0,0,2.23,3.09,7.45,7.45,0,0,0,4.15,1.08,8.8,8.8,0,0,0,3.24-.53,9.53,9.53,0,0,0,2.76-1.72l4.8,5q-3.79,4.22-11.09,4.22a17.56,17.56,0,0,1-8-1.73A12.74,12.74,0,0,1,369,59a13,13,0,0,1,1.85-6.88A12.81,12.81,0,0,1,376,47.38a16.36,16.36,0,0,1,14.4-.12,12.25,12.25,0,0,1,5,4.66,13.67,13.67,0,0,1,1.84,7.22C397.25,59.2,397.21,60,397.11,61.4Zm-17.26-8.07a5.46,5.46,0,0,0-1.8,3.27h10.66a5.46,5.46,0,0,0-1.8-3.27,5.79,5.79,0,0,0-7.06,0Z"/><path class="cls-1" d="M404.5,71.79a17.13,17.13,0,0,1-5.09-2l2.74-6.24a15.53,15.53,0,0,0,4.22,1.76,19,19,0,0,0,4.85.64,7.92,7.92,0,0,0,3.15-.45,1.44,1.44,0,0,0,.93-1.32c0-.58-.37-1-1.13-1.23a22.91,22.91,0,0,0-3.57-.69,35.49,35.49,0,0,1-5.31-1,8.19,8.19,0,0,1-3.76-2.3,6.58,6.58,0,0,1-1.59-4.71,7.14,7.14,0,0,1,1.49-4.44,9.89,9.89,0,0,1,4.34-3.07,18.72,18.72,0,0,1,6.85-1.13,27.26,27.26,0,0,1,5.61.58,16.15,16.15,0,0,1,4.66,1.63l-2.74,6.19a15.16,15.16,0,0,0-7.49-1.92,7.42,7.42,0,0,0-3.17.51,1.48,1.48,0,0,0-1,1.32c0,.6.36,1,1.1,1.27a24.67,24.67,0,0,0,3.65.74,39.73,39.73,0,0,1,5.33,1.11,8.08,8.08,0,0,1,3.67,2.28A6.47,6.47,0,0,1,423.8,64a7.06,7.06,0,0,1-1.49,4.39,9.71,9.71,0,0,1-4.39,3.05,19.88,19.88,0,0,1-7,1.1A28.45,28.45,0,0,1,404.5,71.79Z"/><polyline class="cls-2" points="337.23 118 3.5 116.5 3.5 86.5"/><polyline class="cls-2" points="165.12 3.5 466.94 4 466.94 52.5"/><polyline class="cls-2" points="118.57 3.5 3.5 4 3.5 52.5"/><polyline class="cls-2" points="388.12 118 466.94 117 466.94 87"/></g></g></svg>