<svg xmlns="http://www.w3.org/2000/svg" viewBox="0 0 383 383"><defs><style>.cls-1{fill:none;stroke:#fff;stroke-linecap:round;stroke-linejoin:round;stroke-width:22px;}.cls-2{fill:#fff;}</style></defs><title>Recurso 3logo</title><g id="Capa_2" data-name="Capa 2"><g id="Capa_1-2" data-name="Capa 1"><polyline class="cls-1" points="232 11 372 11 371.81 189.51"/><polyline class="cls-1" points="11 79.88 11 11 154 11"/><polyline class="cls-1" points="220.81 371.51 11 372 11 154"/><polyline class="cls-1" points="372 265 372 372 299.5 372"/><path class="cls-2" d="M85.63,100.93v65.14H67.51V100.93Z"/><path class="cls-2" d="M155.83,166.07H137.71l-23.92-36.34v36.34H95.66V101h18.13l23.92,36.8V101h18.12Z"/><path class="cls-2" d="M238.54,150.2a29.69,29.69,0,0,1-11.78,11.63,36.33,36.33,0,0,1-17.94,4.24H182.88V100.93h25.94a37.7,37.7,0,0,1,18,4.1,28.38,28.38,0,0,1,11.77,11.45,36.56,36.56,0,0,1,0,33.72Zm-18.77-4.65q4.59-4.32,4.6-12.23t-4.6-12.19q-4.61-4.38-12.6-4.37H201v33.12h6.17Q215.17,149.88,219.77,145.55Z"/><path class="cls-2" d="M291.9,155.21H268.8l-3.58,10.86H246.17L270,101.21h20.88l23.74,64.86H295.48Zm-4.51-13.61-7-21.16-7.09,21.16Z"/><path class="cls-2" d="M132.55,247a20,20,0,0,1,4.23,12.64q0,10.67-7.07,16.53t-20.3,5.86H68.81V199.94h39.67q12.4,0,19.43,5.45t7,15.78a19.38,19.38,0,0,1-3.83,12.24A17.6,17.6,0,0,1,121,239.84,20,20,0,0,1,132.55,247ZM91.66,232.77h11.48q8.6,0,8.59-7.19,0-7.43-8.7-7.43H91.66Zm21.81,23.55q0-7.66-8.93-7.66H91.66v15.08h12.88Q113.46,263.74,113.47,256.32Z"/><path class="cls-2" d="M207.14,204.06a39.35,39.35,0,0,1,15.08,15,45.23,45.23,0,0,1-.06,43.38,39.8,39.8,0,0,1-15.14,15,43.94,43.94,0,0,1-42.17,0,39.66,39.66,0,0,1-15.19-15,45,45,0,0,1,0-43.38,39.56,39.56,0,0,1,15.19-15,44.1,44.1,0,0,1,42.29,0ZM172.28,225.4q-5,5.63-5,15.37,0,9.51,5,15.2T186,261.65q8.58,0,13.57-5.68t5-15.2q0-9.74-4.93-15.37T186,219.78Q177.27,219.78,172.28,225.4Z"/><path class="cls-2" d="M289,282.07l-16.12-23.32-13.69,23.32h-26l26.56-42.23-27.61-39.9h27l15.66,22.62L288,199.94h26.1l-26.33,41.41L316,282.07Z"/></g></g></svg>