<svg xmlns="http://www.w3.org/2000/svg" viewBox="0 0 467.87 121.5"><defs><style>.cls-1{fill:#272a39;}.cls-2{fill:none;stroke:#272a39;stroke-linecap:round;stroke-linejoin:round;stroke-width:7px;}</style></defs><title>Recurso 11aeditar almacen</title><g id="Capa_2" data-name="Capa 2"><g id="Capa_1-2" data-name="Capa 1"><path class="cls-1" d="M69.82,70.08v7.34h-27V43.82H69.2v7.35H52.26v5.66H67.18v7.1H52.26v6.15Z"/><path class="cls-1" d="M102.23,41.81V77.42H93.54V74.83c-1.7,2-4.24,3-7.64,3a13,13,0,0,1-6.48-1.65,12,12,0,0,1-4.63-4.73,14.48,14.48,0,0,1-1.7-7.1,14.32,14.32,0,0,1,1.7-7.08,11.78,11.78,0,0,1,4.63-4.68A13.11,13.11,0,0,1,85.9,51a9.47,9.47,0,0,1,7.21,2.69V41.81ZM91.71,69a6.44,6.44,0,0,0,1.54-4.58,6.4,6.4,0,0,0-1.51-4.52,5.54,5.54,0,0,0-7.85,0,6.32,6.32,0,0,0-1.54,4.52A6.44,6.44,0,0,0,83.89,69a5.43,5.43,0,0,0,7.82,0Z"/><path class="cls-1" d="M108.61,47.13a4.65,4.65,0,0,1,0-6.91,5.76,5.76,0,0,1,4-1.39,6,6,0,0,1,4,1.32,4.25,4.25,0,0,1,1.54,3.38,4.64,4.64,0,0,1-1.54,3.58,6.46,6.46,0,0,1-8.06,0Zm-.53,4.28h9.12v26h-9.12Z"/><path class="cls-1" d="M141.06,76.37a9.37,9.37,0,0,1-2.81,1.1,15.41,15.41,0,0,1-3.53.38q-5.08,0-7.82-2.49t-2.74-7.44V59.18h-3.79V52.37h3.79V45.6h9.12v6.77h5.95v6.81h-5.95v8.64A3.1,3.1,0,0,0,134,70a2.64,2.64,0,0,0,2,.79A4.79,4.79,0,0,0,138.8,70Z"/><path class="cls-1" d="M165.54,53.93q3.41,2.94,3.4,9V77.42h-8.49V74.06c-1.32,2.53-3.87,3.79-7.68,3.79a12,12,0,0,1-5.23-1,7.76,7.76,0,0,1-3.34-2.86,7.59,7.59,0,0,1-1.13-4.1,6.65,6.65,0,0,1,2.83-5.74q2.83-2,8.74-2h5.18q-.24-4.12-5.52-4.13a12.69,12.69,0,0,0-3.79.6,10.11,10.11,0,0,0-3.26,1.66L144.18,54a16.83,16.83,0,0,1,5.25-2.23,25,25,0,0,1,6.22-.8Q162.13,51,165.54,53.93Zm-7.44,17.4a4.3,4.3,0,0,0,1.72-2.26V66.81h-3.93q-4,0-4,2.64a2.32,2.32,0,0,0,.92,1.92,3.9,3.9,0,0,0,2.49.72A5.07,5.07,0,0,0,158.1,71.33Z"/><path class="cls-1" d="M187,51.86a13.75,13.75,0,0,1,5.11-.89v8.21a20.21,20.21,0,0,0-2.07-.14,6.37,6.37,0,0,0-4.58,1.58,6.44,6.44,0,0,0-1.66,4.85v12H174.7v-26h8.69v3.12A8.45,8.45,0,0,1,187,51.86Z"/><path class="cls-1" d="M230.91,53.93q3.41,2.94,3.41,9V77.42h-8.5V74.06q-2,3.8-7.68,3.79a12.08,12.08,0,0,1-5.23-1,7.87,7.87,0,0,1-3.34-2.86,7.58,7.58,0,0,1-1.12-4.1,6.65,6.65,0,0,1,2.83-5.74q2.83-2,8.73-2h5.19q-.24-4.12-5.52-4.13a12.64,12.64,0,0,0-3.79.6,10.26,10.26,0,0,0-3.27,1.66L209.55,54a16.79,16.79,0,0,1,5.26-2.23A24.84,24.84,0,0,1,221,51Q227.5,51,230.91,53.93Zm-7.44,17.4a4.32,4.32,0,0,0,1.73-2.26V66.81h-3.94q-4,0-4,2.64a2.32,2.32,0,0,0,.91,1.92,3.93,3.93,0,0,0,2.5.72A5.06,5.06,0,0,0,223.47,71.33Z"/><path class="cls-1" d="M240.08,41.81h9.12V77.42h-9.12Z"/><path class="cls-1" d="M296.65,53.85q2.85,2.88,2.85,8.69V77.42h-9.12V64a6.42,6.42,0,0,0-1-4,3.49,3.49,0,0,0-2.9-1.3,4.19,4.19,0,0,0-3.32,1.44,6.55,6.55,0,0,0-1.24,4.37V77.42h-9.12V64c0-3.55-1.32-5.33-3.94-5.33a4.21,4.21,0,0,0-3.36,1.44,6.55,6.55,0,0,0-1.25,4.37V77.42H255.1v-26h8.69v2.73a9.09,9.09,0,0,1,3.43-2.37,11.65,11.65,0,0,1,4.35-.8,11.46,11.46,0,0,1,4.89,1A8.38,8.38,0,0,1,280,55.05a10,10,0,0,1,3.88-3A12.47,12.47,0,0,1,289,51,10.32,10.32,0,0,1,296.65,53.85Z"/><path class="cls-1" d="M326.24,53.93q3.4,2.94,3.41,9V77.42h-8.5V74.06q-2,3.8-7.68,3.79a12,12,0,0,1-5.23-1,7.81,7.81,0,0,1-3.34-2.86,7.59,7.59,0,0,1-1.13-4.1,6.66,6.66,0,0,1,2.84-5.74c1.88-1.36,4.8-2,8.73-2h5.19c-.17-2.75-2-4.13-5.52-4.13a12.7,12.7,0,0,0-3.8.6A10.21,10.21,0,0,0,308,60.19L304.88,54a16.83,16.83,0,0,1,5.25-2.23,25,25,0,0,1,6.22-.8Q322.83,51,326.24,53.93Zm-7.44,17.4a4.37,4.37,0,0,0,1.73-2.26V66.81h-3.94c-2.66,0-4,.88-4,2.64a2.32,2.32,0,0,0,.91,1.92,3.9,3.9,0,0,0,2.49.72A5.07,5.07,0,0,0,318.8,71.33Z"/><path class="cls-1" d="M341.36,76.13a12.76,12.76,0,0,1-7.2-11.76,12.62,12.62,0,0,1,7.2-11.69A17,17,0,0,1,349.08,51a14.83,14.83,0,0,1,7.64,1.9,10.53,10.53,0,0,1,4.56,5.26l-7.06,3.6q-1.77-3.51-5.18-3.51A5.48,5.48,0,0,0,345,59.85a6.18,6.18,0,0,0-1.61,4.52A6.3,6.3,0,0,0,345,69,5.43,5.43,0,0,0,349,70.61q3.4,0,5.18-3.51l7.06,3.6A10.57,10.57,0,0,1,356.72,76a14.83,14.83,0,0,1-7.64,1.89A16.83,16.83,0,0,1,341.36,76.13Z"/><path class="cls-1" d="M390.89,66.72H372a5.29,5.29,0,0,0,2.23,3.09,7.47,7.47,0,0,0,4.15,1.08,9,9,0,0,0,3.24-.52,9.53,9.53,0,0,0,2.76-1.73l4.8,5q-3.78,4.23-11.08,4.22a17.73,17.73,0,0,1-8-1.72,13.14,13.14,0,0,1-.29-23.43,16.36,16.36,0,0,1,14.4-.12,12.25,12.25,0,0,1,5,4.66A13.68,13.68,0,0,1,391,64.46C391,64.53,391,65.28,390.89,66.72Zm-17.25-8.07a5.36,5.36,0,0,0-1.8,3.27h10.65a5.36,5.36,0,0,0-1.8-3.27,5.78,5.78,0,0,0-7.05,0Zm5-17.66h9.12l-9,7.3h-6.53Z"/><path class="cls-1" d="M420,53.85q3,2.88,3,8.69V77.42h-9.12V64c0-3.55-1.43-5.33-4.27-5.33a4.86,4.86,0,0,0-3.77,1.54,6.56,6.56,0,0,0-1.42,4.61V77.42h-9.12v-26H404v2.83a10.25,10.25,0,0,1,3.65-2.43,12.3,12.3,0,0,1,4.6-.84A10.67,10.67,0,0,1,420,53.85Z"/><polyline class="cls-2" points="335.38 118 3.5 116.5 3.5 86.5"/><polyline class="cls-2" points="164.23 3.5 464.37 4 464.37 52.5"/><polyline class="cls-2" points="117.93 3.5 3.5 4 3.5 52.5"/><polyline class="cls-2" points="385.99 118 464.37 117 464.37 87"/></g></g></svg>