<svg xmlns="http://www.w3.org/2000/svg" xmlns:xlink="http://www.w3.org/1999/xlink" viewBox="0 0 698.07 723.45"><defs><style>.cls-1{fill:url(#Degradado_sin_nombre_55);}.cls-2{fill:url(#Degradado_sin_nombre_55-2);}.cls-14,.cls-15,.cls-3,.cls-4,.cls-5,.cls-6,.cls-8{stroke:#484866;}.cls-14,.cls-15,.cls-3,.cls-4,.cls-8{stroke-miterlimit:10;}.cls-14,.cls-15,.cls-3,.cls-4,.cls-6,.cls-8{stroke-width:2px;}.cls-3{fill:url(#Degradado_sin_nombre_64);}.cls-4{fill:url(#Degradado_sin_nombre_63);}.cls-5,.cls-8{fill:#a6a6ed;}.cls-5,.cls-6{stroke-linejoin:round;}.cls-6{fill:none;}.cls-7{fill:#4b4b70;opacity:0.69;}.cls-9{fill:url(#Degradado_sin_nombre_55-3);}.cls-10{fill:url(#Degradado_sin_nombre_55-4);}.cls-11{fill:url(#Degradado_sin_nombre_55-5);}.cls-12{fill:url(#Degradado_sin_nombre_55-6);}.cls-13{fill:url(#Degradado_sin_nombre_60);}.cls-14{fill:url(#Degradado_sin_nombre_63-2);}.cls-15{fill:url(#Degradado_sin_nombre_63-3);}</style><linearGradient id="Degradado_sin_nombre_55" y1="267.72" x2="698.07" y2="267.72" gradientUnits="userSpaceOnUse"><stop offset="0" stop-color="#c867f0"/><stop offset="0.47" stop-color="#774894"/><stop offset="0.83" stop-color="#3d3252"/><stop offset="1" stop-color="#272a39"/></linearGradient><linearGradient id="Degradado_sin_nombre_55-2" x1="20.36" y1="630.45" x2="671.86" y2="630.45" xlink:href="#Degradado_sin_nombre_55"/><linearGradient id="Degradado_sin_nombre_64" x1="242.46" y1="379.69" x2="197.27" y2="643.23" gradientUnits="userSpaceOnUse"><stop offset="0" stop-color="#c5c5ff"/><stop offset="0.01" stop-color="#c2c2fb"/><stop offset="0.37" stop-color="#6f7194"/><stop offset="0.62" stop-color="#3b3e52"/><stop offset="0.74" stop-color="#272a39"/></linearGradient><linearGradient id="Degradado_sin_nombre_63" x1="424.67" y1="371.52" x2="425.39" y2="626.52" gradientUnits="userSpaceOnUse"><stop offset="0.17" stop-color="#c5c5ff"/><stop offset="0.18" stop-color="#c2c2fb"/><stop offset="0.59" stop-color="#6f7194"/><stop offset="0.87" stop-color="#3b3e52"/><stop offset="1" stop-color="#272a39"/></linearGradient><linearGradient id="Degradado_sin_nombre_55-3" x1="713.78" y1="337.27" x2="762.68" y2="337.27" gradientTransform="matrix(-1.24, -0.04, 0.03, -1, 1493.77, 613.05)" xlink:href="#Degradado_sin_nombre_55"/><linearGradient id="Degradado_sin_nombre_55-4" x1="570.84" y1="190.35" x2="586.43" y2="190.35" xlink:href="#Degradado_sin_nombre_55"/><linearGradient id="Degradado_sin_nombre_55-5" x1="238.07" y1="200.24" x2="273.18" y2="200.24" xlink:href="#Degradado_sin_nombre_55"/><linearGradient id="Degradado_sin_nombre_55-6" x1="63.79" y1="496.86" x2="114.79" y2="496.86" gradientTransform="translate(534.75 263.87) rotate(71.34)" xlink:href="#Degradado_sin_nombre_55"/><linearGradient id="Degradado_sin_nombre_60" x1="368.07" y1="57.23" x2="408.07" y2="57.23" gradientUnits="userSpaceOnUse"><stop offset="0" stop-color="#c5c5ff"/><stop offset="0.02" stop-color="#c2c2fb"/><stop offset="0.5" stop-color="#6f7194"/><stop offset="0.84" stop-color="#3b3e52"/><stop offset="1" stop-color="#272a39"/></linearGradient><linearGradient id="Degradado_sin_nombre_63-2" x1="422.54" y1="602.41" x2="422.61" y2="626.91" xlink:href="#Degradado_sin_nombre_63"/><linearGradient id="Degradado_sin_nombre_63-3" x1="424.53" y1="602.45" x2="424.6" y2="626.86" xlink:href="#Degradado_sin_nombre_63"/></defs><title>Recurso 7productosilus</title><g id="Capa_2" data-name="Capa 2"><g id="Capa_2-2" data-name="Capa 2"><path class="cls-1" d="M383.4,320.8c-40.35-.52-33.77,181.15-112.85,210.43C172,567.71-33,357.73,4.54,281.83c34.17-69,253.18,4.93,310.79-93.53C347.91,132.64,296.55,77.11,335,34.16,379.43-15.37,510.27-11.28,555.37,48c56.27,74-61.68,180.34-4.48,290.1,44.56,85.49,153.53,92.72,146.89,120.37-7.42,30.87-151,53.84-231.08-11.26C406.21,398.05,409.67,321.14,383.4,320.8Z"/><ellipse class="cls-2" cx="346.11" cy="630.45" rx="325.75" ry="93"/><polygon class="cls-3" points="298.07 684.45 144.57 596.95 144.07 324.45 298.57 368.95 298.07 684.45"/><polygon class="cls-4" points="552.57 622.95 297.57 684.95 298.57 368.95 552.57 339.95 552.57 622.95"/><polygon class="cls-5" points="298.57 368.95 144.57 323.95 380.57 303.95 552.57 339.95 298.57 368.95"/><polyline class="cls-6" points="467.57 321.95 221.32 346.7 221.32 640.7"/><polygon class="cls-7" points="221.07 384.45 241.07 390.45 240.07 352.45 296.07 345.45 263.07 334.45 203.07 340.45 204.07 378.45 221.07 384.45"/><polygon class="cls-8" points="363.94 350.25 287.17 327.4 285.56 251.97 362.61 262.9 363.94 350.25"/><polygon class="cls-8" points="490.19 330.94 363.69 350.39 362.61 262.9 488.78 252.59 490.19 330.94"/><polygon class="cls-5" points="362.61 262.9 285.8 251.82 403.06 244.17 488.78 252.59 362.61 262.9"/><polyline class="cls-6" points="446.42 248.37 324.08 257.43 325.55 338.83"/><polygon class="cls-7" points="324.15 267.89 334.13 269.37 333.44 258.86 361.25 256.42 344.79 253.66 314.98 255.87 315.67 266.38 324.15 267.89"/><polygon class="cls-8" points="385.06 697.77 330.47 666.65 330.29 569.74 385.24 585.56 385.06 697.77"/><polygon class="cls-8" points="475.57 675.9 384.88 697.95 385.24 585.56 475.57 575.25 475.57 675.9"/><polygon class="cls-5" points="385.24 585.56 330.47 569.56 414.4 562.45 475.57 575.25 385.24 585.56"/><polyline class="cls-6" points="445.34 568.85 357.76 577.65 357.76 682.21"/><polygon class="cls-7" points="357.67 591.08 364.79 593.21 364.43 579.7 384.35 577.21 372.61 573.29 351.27 575.43 351.63 588.94 357.67 591.08"/><path class="cls-9" d="M558,264.73c-11-26.81,30-60.68,46.51-56.61,13.23,3.27,13.52,31.52,12.35,43.4-1.1,11.11-3.21,32.57-18.53,36.45C584.19,291.56,563.83,278.78,558,264.73Z"/><path class="cls-10" d="M573.55,198.32c3.49,2.73,10.15,1.7,12.17-1.62,3.25-5.35-5.4-16.75-9.74-15.82C572,181.74,568.06,194,573.55,198.32Z"/><path class="cls-11" d="M242.72,189.85c1.82-3.39,5.52-10.27,11.64-11,8.93-1,19.8,11.39,18.75,22.64-1.37,14.5-22.29,24-30.39,18.75C235.73,215.75,237.36,199.81,242.72,189.85Z"/><path class="cls-12" d="M72,509.06c12.93,19.47,43,24.1,46.34,13.91,2.87-8.66-12-32.6-28.36-37.09-9.29-2.56-21.47.51-22.69,9.22C66.44,500.76,70.55,507,72,509.06Z"/><path class="cls-13" d="M373.36,45.39c2.08-3.87,6.29-11.7,13.26-12.53,10.18-1.2,22.57,13,21.37,25.79C406.43,75.17,382.6,86,373.36,80,365.41,74.9,367.26,56.74,373.36,45.39Z"/><polygon class="cls-14" points="403.07 607.45 437.07 632.45 442.07 620.45 411.07 599.45 403.07 607.45"/><polygon class="cls-15" points="407.07 625.45 428.07 599.45 442.07 607.45 416.07 632.45 407.07 625.45"/></g></g></svg>