<?xml version="1.0"?>
<svg xmlns="http://www.w3.org/2000/svg" id="line" viewBox="0 0 64 64" width="512" height="512"><path d="M43,2H21a1,1,0,0,0-1,1V18H19a1,1,0,0,0-1,1V48a14,14,0,0,0,28,0V19a1,1,0,0,0-1-1H44V3A1,1,0,0,0,43,2ZM22,4H42V18H35V16H33v2H31V16H29v2H22ZM44,48a12,12,0,0,1-24,0V20H44Z"/><path d="M24,38.816V41a1,1,0,0,0,.293.707L31,48.414v.728a4,4,0,1,0,2,0V45.414l6.707-6.707A1,1,0,0,0,40,38V36h1a1,1,0,0,0,1-1V31a1,1,0,0,0-1-1H37a1,1,0,0,0-1,1v4a1,1,0,0,0,1,1h1v1.586l-5,5V30h2a1,1,0,0,0,.9-1.447l-3-6a1.042,1.042,0,0,0-1.79,0l-3,6A1,1,0,0,0,29,30h2V45.586l-5-5v-1.77a3,3,0,1,0-2,0ZM38,32h2v2H38Zm-6-6.764L33.382,28H30.618ZM34,53a2,2,0,1,1-2-2A2,2,0,0,1,34,53ZM25,35a1,1,0,1,1-1,1A1,1,0,0,1,25,35Z"/><path d="M29,12a1,1,0,0,0,1-1V7a1,1,0,0,0-1-1H25a1,1,0,0,0-1,1v4a1,1,0,0,0,1,1ZM26,8h2v2H26Z"/><path d="M35,12h4a1,1,0,0,0,1-1V7a1,1,0,0,0-1-1H35a1,1,0,0,0-1,1v4A1,1,0,0,0,35,12Zm1-4h2v2H36Z"/></svg>
